<svg width="122" height="20" viewBox="0 0 122 20" fill="none" xmlns="http://www.w3.org/2000/svg">
<rect x="0.75" y="0.75" width="19.5" height="18.5" rx="4.25" stroke="#36463E" stroke-width="1.5"/>
<circle cx="11" cy="10" r="4.25" stroke="#36463E" stroke-width="1.5"/>
<path d="M37.206 14.126C36.7393 14.126 36.3193 14.0373 35.946 13.86C35.582 13.6733 35.2927 13.4213 35.078 13.104C34.8633 12.7867 34.756 12.432 34.756 12.04C34.756 11.536 34.882 11.1393 35.134 10.85C35.3953 10.5607 35.82 10.3553 36.408 10.234C37.0053 10.1127 37.8173 10.052 38.844 10.052H39.474V10.794H38.858C38.102 10.794 37.5047 10.8313 37.066 10.906C36.6367 10.9713 36.3333 11.088 36.156 11.256C35.988 11.424 35.904 11.662 35.904 11.97C35.904 12.3527 36.0347 12.6653 36.296 12.908C36.5667 13.1507 36.9307 13.272 37.388 13.272C37.7613 13.272 38.088 13.1833 38.368 13.006C38.6573 12.8287 38.8813 12.586 39.04 12.278C39.208 11.97 39.292 11.6153 39.292 11.214V9.618C39.292 9.03933 39.1753 8.624 38.942 8.372C38.7087 8.11067 38.326 7.98 37.794 7.98C37.4673 7.98 37.1407 8.022 36.814 8.106C36.4873 8.19 36.142 8.32533 35.778 8.512C35.6473 8.57733 35.5353 8.60067 35.442 8.582C35.3487 8.554 35.274 8.50267 35.218 8.428C35.162 8.35333 35.1293 8.26933 35.12 8.176C35.1107 8.07333 35.1293 7.97533 35.176 7.882C35.232 7.78867 35.316 7.714 35.428 7.658C35.8387 7.45267 36.2447 7.30333 36.646 7.21C37.0473 7.11667 37.43 7.07 37.794 7.07C38.382 7.07 38.8673 7.168 39.25 7.364C39.6327 7.55067 39.9173 7.84 40.104 8.232C40.2907 8.61467 40.384 9.10933 40.384 9.716V13.51C40.384 13.6967 40.3373 13.8413 40.244 13.944C40.16 14.0467 40.034 14.098 39.866 14.098C39.6887 14.098 39.5533 14.0467 39.46 13.944C39.3667 13.8413 39.32 13.6967 39.32 13.51V12.418H39.446C39.3713 12.7727 39.2267 13.076 39.012 13.328C38.8067 13.58 38.55 13.776 38.242 13.916C37.934 14.056 37.5887 14.126 37.206 14.126ZM45.3718 14.126C44.6905 14.126 44.1025 13.9767 43.6078 13.678C43.1132 13.3793 42.7305 12.964 42.4598 12.432C42.1985 11.8907 42.0678 11.2653 42.0678 10.556C42.0678 10.0147 42.1425 9.52933 42.2918 9.1C42.4412 8.67067 42.6605 8.30667 42.9498 8.008C43.2392 7.7 43.5845 7.46667 43.9858 7.308C44.3965 7.14933 44.8585 7.07 45.3718 7.07C45.7078 7.07 46.0578 7.12133 46.4218 7.224C46.7858 7.32667 47.1172 7.504 47.4158 7.756C47.5092 7.82133 47.5698 7.90067 47.5978 7.994C47.6258 8.08733 47.6258 8.18067 47.5978 8.274C47.5698 8.358 47.5232 8.43267 47.4578 8.498C47.3925 8.554 47.3085 8.58667 47.2058 8.596C47.1125 8.60533 47.0145 8.57267 46.9118 8.498C46.6692 8.31133 46.4218 8.18067 46.1698 8.106C45.9178 8.03133 45.6752 7.994 45.4418 7.994C45.0778 7.994 44.7605 8.05467 44.4898 8.176C44.2192 8.288 43.9905 8.45133 43.8038 8.666C43.6172 8.88067 43.4725 9.14667 43.3698 9.464C43.2765 9.78133 43.2298 10.15 43.2298 10.57C43.2298 11.382 43.4212 12.026 43.8038 12.502C44.1865 12.9687 44.7325 13.202 45.4418 13.202C45.6752 13.202 45.9132 13.1647 46.1558 13.09C46.4078 13.0153 46.6598 12.8847 46.9118 12.698C47.0145 12.6233 47.1125 12.5907 47.2058 12.6C47.2992 12.6093 47.3785 12.6467 47.4438 12.712C47.5092 12.768 47.5512 12.8427 47.5698 12.936C47.5978 13.0293 47.5978 13.1227 47.5698 13.216C47.5418 13.3 47.4812 13.3747 47.3878 13.44C47.0892 13.6827 46.7625 13.86 46.4078 13.972C46.0532 14.0747 45.7078 14.126 45.3718 14.126ZM49.5423 14.098C49.3556 14.098 49.211 14.0467 49.1083 13.944C49.015 13.8413 48.9683 13.6967 48.9683 13.51V7.672C48.9683 7.48533 49.015 7.34533 49.1083 7.252C49.2016 7.14933 49.337 7.098 49.5143 7.098C49.6916 7.098 49.827 7.14933 49.9203 7.252C50.023 7.34533 50.0743 7.48533 50.0743 7.672V8.806H49.9343C50.0836 8.25533 50.3683 7.83067 50.7883 7.532C51.2083 7.23333 51.7263 7.07467 52.3423 7.056C52.4823 7.04667 52.5943 7.07933 52.6783 7.154C52.7623 7.21933 52.809 7.336 52.8183 7.504C52.8276 7.66267 52.7903 7.78867 52.7063 7.882C52.6223 7.97533 52.4916 8.03133 52.3143 8.05L52.0903 8.078C51.4556 8.134 50.9656 8.33933 50.6203 8.694C50.2843 9.03933 50.1163 9.51533 50.1163 10.122V13.51C50.1163 13.6967 50.065 13.8413 49.9623 13.944C49.869 14.0467 49.729 14.098 49.5423 14.098ZM56.7318 14.126C56.0692 14.126 55.4952 13.9813 55.0098 13.692C54.5245 13.4027 54.1465 12.9967 53.8758 12.474C53.6145 11.942 53.4838 11.3167 53.4838 10.598C53.4838 10.0567 53.5585 9.57133 53.7078 9.142C53.8572 8.70333 54.0765 8.33 54.3658 8.022C54.6552 7.714 54.9958 7.48067 55.3878 7.322C55.7892 7.154 56.2372 7.07 56.7318 7.07C57.3945 7.07 57.9685 7.21467 58.4538 7.504C58.9392 7.79333 59.3125 8.204 59.5738 8.736C59.8445 9.25867 59.9798 9.87933 59.9798 10.598C59.9798 11.1393 59.9052 11.6247 59.7558 12.054C59.6065 12.4833 59.3872 12.8567 59.0978 13.174C58.8085 13.482 58.4632 13.72 58.0618 13.888C57.6698 14.0467 57.2265 14.126 56.7318 14.126ZM56.7318 13.216C57.1518 13.216 57.5205 13.1133 57.8378 12.908C58.1552 12.7027 58.3978 12.404 58.5658 12.012C58.7432 11.62 58.8318 11.1487 58.8318 10.598C58.8318 9.74867 58.6405 9.1 58.2578 8.652C57.8845 8.204 57.3758 7.98 56.7318 7.98C56.3025 7.98 55.9292 8.08267 55.6118 8.288C55.3038 8.484 55.0612 8.778 54.8838 9.17C54.7158 9.55267 54.6318 10.0287 54.6318 10.598C54.6318 11.438 54.8232 12.0867 55.2058 12.544C55.5885 12.992 56.0972 13.216 56.7318 13.216ZM63.0994 16.618C62.9594 16.618 62.8474 16.5807 62.7634 16.506C62.6794 16.4313 62.6281 16.3287 62.6094 16.198C62.6001 16.0767 62.6234 15.9507 62.6794 15.82L63.6454 13.65V14.14L60.9574 7.896C60.9014 7.756 60.8828 7.62533 60.9014 7.504C60.9201 7.38267 60.9761 7.28467 61.0694 7.21C61.1628 7.13533 61.2934 7.098 61.4614 7.098C61.6108 7.098 61.7274 7.13067 61.8114 7.196C61.8954 7.26133 61.9701 7.378 62.0354 7.546L64.3314 13.174H63.9534L66.2774 7.546C66.3521 7.378 66.4314 7.26133 66.5154 7.196C66.5994 7.13067 66.7208 7.098 66.8794 7.098C67.0288 7.098 67.1408 7.13533 67.2154 7.21C67.2994 7.28467 67.3461 7.38267 67.3554 7.504C67.3741 7.616 67.3554 7.742 67.2994 7.882L63.7154 16.17C63.6408 16.338 63.5568 16.4547 63.4634 16.52C63.3794 16.5853 63.2581 16.618 63.0994 16.618ZM71.5111 14.126C70.8485 14.126 70.2745 13.9813 69.7891 13.692C69.3038 13.4027 68.9258 12.9967 68.6551 12.474C68.3938 11.942 68.2631 11.3167 68.2631 10.598C68.2631 10.0567 68.3378 9.57133 68.4871 9.142C68.6365 8.70333 68.8558 8.33 69.1451 8.022C69.4345 7.714 69.7751 7.48067 70.1671 7.322C70.5685 7.154 71.0165 7.07 71.5111 7.07C72.1738 7.07 72.7478 7.21467 73.2331 7.504C73.7185 7.79333 74.0918 8.204 74.3531 8.736C74.6238 9.25867 74.7591 9.87933 74.7591 10.598C74.7591 11.1393 74.6845 11.6247 74.5351 12.054C74.3858 12.4833 74.1665 12.8567 73.8771 13.174C73.5878 13.482 73.2425 13.72 72.8411 13.888C72.4491 14.0467 72.0058 14.126 71.5111 14.126ZM71.5111 13.216C71.9311 13.216 72.2998 13.1133 72.6171 12.908C72.9345 12.7027 73.1771 12.404 73.3451 12.012C73.5225 11.62 73.6111 11.1487 73.6111 10.598C73.6111 9.74867 73.4198 9.1 73.0371 8.652C72.6638 8.204 72.1551 7.98 71.5111 7.98C71.0818 7.98 70.7085 8.08267 70.3911 8.288C70.0831 8.484 69.8405 8.778 69.6631 9.17C69.4951 9.55267 69.4111 10.0287 69.4111 10.598C69.4111 11.438 69.6025 12.0867 69.9851 12.544C70.3678 12.992 70.8765 13.216 71.5111 13.216ZM79.4724 16.646C78.9778 16.646 78.4924 16.5853 78.0164 16.464C77.5498 16.352 77.1251 16.17 76.7424 15.918C76.6304 15.8527 76.5558 15.7733 76.5184 15.68C76.4904 15.5867 76.4858 15.4933 76.5044 15.4C76.5231 15.316 76.5651 15.2367 76.6304 15.162C76.6958 15.0967 76.7704 15.0547 76.8544 15.036C76.9478 15.0173 77.0411 15.0313 77.1344 15.078C77.5451 15.33 77.9371 15.5027 78.3104 15.596C78.6838 15.6893 79.0524 15.736 79.4164 15.736C80.0791 15.736 80.5784 15.5587 80.9144 15.204C81.2598 14.8493 81.4324 14.336 81.4324 13.664V12.082H81.5724C81.4324 12.6233 81.1338 13.0527 80.6764 13.37C80.2284 13.6873 79.7011 13.846 79.0944 13.846C78.4691 13.846 77.9278 13.706 77.4704 13.426C77.0131 13.1367 76.6584 12.7353 76.4064 12.222C76.1638 11.7087 76.0424 11.116 76.0424 10.444C76.0424 9.94 76.1124 9.48267 76.2524 9.072C76.3924 8.652 76.5931 8.29733 76.8544 8.008C77.1251 7.70933 77.4471 7.48067 77.8204 7.322C78.2031 7.154 78.6278 7.07 79.0944 7.07C79.7104 7.07 80.2424 7.22867 80.6904 7.546C81.1384 7.854 81.4278 8.274 81.5584 8.806L81.4184 8.974V7.672C81.4184 7.48533 81.4651 7.34533 81.5584 7.252C81.6611 7.14933 81.8011 7.098 81.9784 7.098C82.1651 7.098 82.3051 7.14933 82.3984 7.252C82.4918 7.34533 82.5384 7.48533 82.5384 7.672V13.51C82.5384 14.546 82.2771 15.3253 81.7544 15.848C81.2411 16.38 80.4804 16.646 79.4724 16.646ZM79.3044 12.922C79.7431 12.922 80.1211 12.824 80.4384 12.628C80.7558 12.4227 80.9984 12.1333 81.1664 11.76C81.3438 11.3867 81.4324 10.948 81.4324 10.444C81.4324 9.688 81.2411 9.09067 80.8584 8.652C80.4758 8.204 79.9578 7.98 79.3044 7.98C78.8751 7.98 78.5018 8.08267 78.1844 8.288C77.8671 8.484 77.6198 8.76867 77.4424 9.142C77.2744 9.506 77.1904 9.94 77.1904 10.444C77.1904 11.2 77.3818 11.802 77.7644 12.25C78.1471 12.698 78.6604 12.922 79.3044 12.922ZM86.8076 14.126C86.3409 14.126 85.9209 14.0373 85.5476 13.86C85.1836 13.6733 84.8942 13.4213 84.6796 13.104C84.4649 12.7867 84.3576 12.432 84.3576 12.04C84.3576 11.536 84.4836 11.1393 84.7356 10.85C84.9969 10.5607 85.4216 10.3553 86.0096 10.234C86.6069 10.1127 87.4189 10.052 88.4456 10.052H89.0756V10.794H88.4596C87.7036 10.794 87.1062 10.8313 86.6676 10.906C86.2382 10.9713 85.9349 11.088 85.7576 11.256C85.5896 11.424 85.5056 11.662 85.5056 11.97C85.5056 12.3527 85.6362 12.6653 85.8976 12.908C86.1682 13.1507 86.5322 13.272 86.9896 13.272C87.3629 13.272 87.6896 13.1833 87.9696 13.006C88.2589 12.8287 88.4829 12.586 88.6416 12.278C88.8096 11.97 88.8936 11.6153 88.8936 11.214V9.618C88.8936 9.03933 88.7769 8.624 88.5436 8.372C88.3102 8.11067 87.9276 7.98 87.3956 7.98C87.0689 7.98 86.7422 8.022 86.4156 8.106C86.0889 8.19 85.7436 8.32533 85.3796 8.512C85.2489 8.57733 85.1369 8.60067 85.0436 8.582C84.9502 8.554 84.8756 8.50267 84.8196 8.428C84.7636 8.35333 84.7309 8.26933 84.7216 8.176C84.7122 8.07333 84.7309 7.97533 84.7776 7.882C84.8336 7.78867 84.9176 7.714 85.0296 7.658C85.4402 7.45267 85.8462 7.30333 86.2476 7.21C86.6489 7.11667 87.0316 7.07 87.3956 7.07C87.9836 7.07 88.4689 7.168 88.8516 7.364C89.2342 7.55067 89.5189 7.84 89.7056 8.232C89.8922 8.61467 89.9856 9.10933 89.9856 9.716V13.51C89.9856 13.6967 89.9389 13.8413 89.8456 13.944C89.7616 14.0467 89.6356 14.098 89.4676 14.098C89.2902 14.098 89.1549 14.0467 89.0616 13.944C88.9682 13.8413 88.9216 13.6967 88.9216 13.51V12.418H89.0476C88.9729 12.7727 88.8282 13.076 88.6136 13.328C88.4082 13.58 88.1516 13.776 87.8436 13.916C87.5356 14.056 87.1902 14.126 86.8076 14.126ZM92.6354 14.056C92.4021 14.056 92.2154 13.986 92.0754 13.846C91.9354 13.6967 91.8654 13.51 91.8654 13.286C91.8654 13.062 91.9354 12.88 92.0754 12.74C92.2154 12.5907 92.4021 12.516 92.6354 12.516C92.8687 12.516 93.0507 12.5907 93.1814 12.74C93.3214 12.88 93.3914 13.062 93.3914 13.286C93.3914 13.51 93.3214 13.6967 93.1814 13.846C93.0507 13.986 92.8687 14.056 92.6354 14.056ZM97.5505 14.126C96.9438 14.126 96.4118 13.9813 95.9545 13.692C95.5065 13.4027 95.1565 12.9967 94.9045 12.474C94.6618 11.942 94.5405 11.3167 94.5405 10.598C94.5405 9.87 94.6618 9.24467 94.9045 8.722C95.1565 8.19 95.5065 7.784 95.9545 7.504C96.4118 7.21467 96.9438 7.07 97.5505 7.07C98.1665 7.07 98.6938 7.224 99.1325 7.532C99.5712 7.84 99.8652 8.25533 100.014 8.778H99.8605V4.606C99.8605 4.41933 99.9072 4.27933 100 4.186C100.103 4.08333 100.248 4.032 100.434 4.032C100.612 4.032 100.747 4.08333 100.84 4.186C100.943 4.27933 100.994 4.41933 100.994 4.606V13.51C100.994 13.6967 100.948 13.8413 100.854 13.944C100.761 14.0467 100.621 14.098 100.434 14.098C100.257 14.098 100.117 14.0467 100.014 13.944C99.9212 13.8413 99.8745 13.6967 99.8745 13.51V12.18L100.028 12.376C99.8792 12.908 99.5805 13.3327 99.1325 13.65C98.6938 13.9673 98.1665 14.126 97.5505 14.126ZM97.7885 13.216C98.2085 13.216 98.5772 13.1133 98.8945 12.908C99.2118 12.7027 99.4545 12.404 99.6225 12.012C99.7998 11.62 99.8885 11.1487 99.8885 10.598C99.8885 9.74867 99.6972 9.1 99.3145 8.652C98.9412 8.204 98.4325 7.98 97.7885 7.98C97.3592 7.98 96.9858 8.08267 96.6685 8.288C96.3605 8.484 96.1178 8.778 95.9405 9.17C95.7725 9.55267 95.6885 10.0287 95.6885 10.598C95.6885 11.438 95.8798 12.0867 96.2625 12.544C96.6452 12.992 97.1538 13.216 97.7885 13.216ZM105.265 14.126C104.798 14.126 104.378 14.0373 104.005 13.86C103.641 13.6733 103.351 13.4213 103.137 13.104C102.922 12.7867 102.815 12.432 102.815 12.04C102.815 11.536 102.941 11.1393 103.193 10.85C103.454 10.5607 103.879 10.3553 104.467 10.234C105.064 10.1127 105.876 10.052 106.903 10.052H107.533V10.794H106.917C106.161 10.794 105.563 10.8313 105.125 10.906C104.695 10.9713 104.392 11.088 104.215 11.256C104.047 11.424 103.963 11.662 103.963 11.97C103.963 12.3527 104.093 12.6653 104.355 12.908C104.625 13.1507 104.989 13.272 105.447 13.272C105.82 13.272 106.147 13.1833 106.427 13.006C106.716 12.8287 106.94 12.586 107.099 12.278C107.267 11.97 107.351 11.6153 107.351 11.214V9.618C107.351 9.03933 107.234 8.624 107.001 8.372C106.767 8.11067 106.385 7.98 105.853 7.98C105.526 7.98 105.199 8.022 104.873 8.106C104.546 8.19 104.201 8.32533 103.837 8.512C103.706 8.57733 103.594 8.60067 103.501 8.582C103.407 8.554 103.333 8.50267 103.277 8.428C103.221 8.35333 103.188 8.26933 103.179 8.176C103.169 8.07333 103.188 7.97533 103.235 7.882C103.291 7.78867 103.375 7.714 103.487 7.658C103.897 7.45267 104.303 7.30333 104.705 7.21C105.106 7.11667 105.489 7.07 105.853 7.07C106.441 7.07 106.926 7.168 107.309 7.364C107.691 7.55067 107.976 7.84 108.163 8.232C108.349 8.61467 108.443 9.10933 108.443 9.716V13.51C108.443 13.6967 108.396 13.8413 108.303 13.944C108.219 14.0467 108.093 14.098 107.925 14.098C107.747 14.098 107.612 14.0467 107.519 13.944C107.425 13.8413 107.379 13.6967 107.379 13.51V12.418H107.505C107.43 12.7727 107.285 13.076 107.071 13.328C106.865 13.58 106.609 13.776 106.301 13.916C105.993 14.056 105.647 14.126 105.265 14.126ZM113.276 14.126C112.744 14.126 112.296 14.0327 111.932 13.846C111.578 13.65 111.312 13.37 111.134 13.006C110.957 12.6327 110.868 12.18 110.868 11.648V8.078H109.93C109.772 8.078 109.65 8.04067 109.566 7.966C109.482 7.882 109.44 7.77 109.44 7.63C109.44 7.49 109.482 7.38267 109.566 7.308C109.65 7.23333 109.772 7.196 109.93 7.196H110.868V5.586C110.868 5.39933 110.92 5.25933 111.022 5.166C111.125 5.06333 111.265 5.012 111.442 5.012C111.62 5.012 111.755 5.06333 111.848 5.166C111.951 5.25933 112.002 5.39933 112.002 5.586V7.196H113.766C113.925 7.196 114.046 7.23333 114.13 7.308C114.214 7.38267 114.256 7.49 114.256 7.63C114.256 7.77 114.214 7.882 114.13 7.966C114.046 8.04067 113.925 8.078 113.766 8.078H112.002V11.536C112.002 12.068 112.114 12.474 112.338 12.754C112.562 13.0247 112.926 13.16 113.43 13.16C113.608 13.16 113.757 13.1413 113.878 13.104C114.009 13.0667 114.116 13.048 114.2 13.048C114.284 13.0387 114.354 13.0667 114.41 13.132C114.466 13.1973 114.494 13.3093 114.494 13.468C114.494 13.58 114.471 13.6827 114.424 13.776C114.387 13.8693 114.317 13.9347 114.214 13.972C114.102 14.0093 113.953 14.042 113.766 14.07C113.589 14.1073 113.426 14.126 113.276 14.126ZM117.583 14.126C117.116 14.126 116.696 14.0373 116.323 13.86C115.959 13.6733 115.67 13.4213 115.455 13.104C115.24 12.7867 115.133 12.432 115.133 12.04C115.133 11.536 115.259 11.1393 115.511 10.85C115.772 10.5607 116.197 10.3553 116.785 10.234C117.382 10.1127 118.194 10.052 119.221 10.052H119.851V10.794H119.235C118.479 10.794 117.882 10.8313 117.443 10.906C117.014 10.9713 116.71 11.088 116.533 11.256C116.365 11.424 116.281 11.662 116.281 11.97C116.281 12.3527 116.412 12.6653 116.673 12.908C116.944 13.1507 117.308 13.272 117.765 13.272C118.138 13.272 118.465 13.1833 118.745 13.006C119.034 12.8287 119.258 12.586 119.417 12.278C119.585 11.97 119.669 11.6153 119.669 11.214V9.618C119.669 9.03933 119.552 8.624 119.319 8.372C119.086 8.11067 118.703 7.98 118.171 7.98C117.844 7.98 117.518 8.022 117.191 8.106C116.864 8.19 116.519 8.32533 116.155 8.512C116.024 8.57733 115.912 8.60067 115.819 8.582C115.726 8.554 115.651 8.50267 115.595 8.428C115.539 8.35333 115.506 8.26933 115.497 8.176C115.488 8.07333 115.506 7.97533 115.553 7.882C115.609 7.78867 115.693 7.714 115.805 7.658C116.216 7.45267 116.622 7.30333 117.023 7.21C117.424 7.11667 117.807 7.07 118.171 7.07C118.759 7.07 119.244 7.168 119.627 7.364C120.01 7.55067 120.294 7.84 120.481 8.232C120.668 8.61467 120.761 9.10933 120.761 9.716V13.51C120.761 13.6967 120.714 13.8413 120.621 13.944C120.537 14.0467 120.411 14.098 120.243 14.098C120.066 14.098 119.93 14.0467 119.837 13.944C119.744 13.8413 119.697 13.6967 119.697 13.51V12.418H119.823C119.748 12.7727 119.604 13.076 119.389 13.328C119.184 13.58 118.927 13.776 118.619 13.916C118.311 14.056 117.966 14.126 117.583 14.126Z" fill="#36463E"/>
</svg>
