<svg width="17" height="14" viewBox="0 0 17 14" fill="none" xmlns="http://www.w3.org/2000/svg">
<path d="M9.4517 0.751612C9.67673 0.526647 9.9819 0.400269 10.3001 0.400269C10.6183 0.400269 10.9235 0.526647 11.1485 0.751612L16.5485 6.15161C16.7735 6.37665 16.8998 6.68181 16.8998 7.00001C16.8998 7.31821 16.7735 7.62338 16.5485 7.84841L11.1485 13.2484C10.9222 13.467 10.6191 13.588 10.3044 13.5852C9.98978 13.5825 9.68881 13.4563 9.46632 13.2338C9.24383 13.0113 9.11762 12.7103 9.11489 12.3957C9.11215 12.0811 9.23311 11.7779 9.4517 11.5516L12.7001 8.20001H1.3001C0.981838 8.20001 0.676613 8.07358 0.45157 7.84854C0.226526 7.6235 0.100098 7.31827 0.100098 7.00001C0.100098 6.68175 0.226526 6.37653 0.45157 6.15148C0.676613 5.92644 0.981838 5.80001 1.3001 5.80001H12.7001L9.4517 2.44841C9.22673 2.22338 9.10035 1.91821 9.10035 1.60001C9.10035 1.28182 9.22673 0.976645 9.4517 0.751612Z" fill="#36463E"/>
</svg>
