<svg width="325" height="475" viewBox="0 0 325 475" fill="none" xmlns="http://www.w3.org/2000/svg">
<g filter="url(#filter0_d_450_2)">
<rect x="4" width="317" height="467" rx="10" fill="#EDE8DF"/>
</g>
<g filter="url(#filter1_d_450_2)">
<ellipse cx="163" cy="168.5" rx="72" ry="73.5" fill="#5F6F66"/>
</g>
<path d="M130.699 156.804C130.028 155.824 139.483 139.172 139.259 138.25C139.035 137.328 125.888 157.149 128.294 159.569C129.856 161.141 137.602 159.164 142.839 157.475C142.839 157.475 144.35 156.611 144.793 156.819C146.579 156.194 147.762 155.7 147.762 155.594C147.762 155.19 131.371 157.783 130.699 156.804Z" fill="white"/>
<path d="M143.567 166.426C143.678 165.85 144.797 157.956 144.909 157.092C144.928 156.947 144.882 156.861 144.793 156.819C144.201 157.026 143.543 157.248 142.839 157.475C143.958 158.936 137.748 173.283 137.581 174.666C137.413 176.049 137.748 179.16 138.028 180.543C138.308 181.926 139.315 175.472 139.427 174.839C139.539 174.205 143.455 167.002 143.567 166.426Z" fill="white"/>
<path d="M141.161 184.346C141.161 183.597 142.28 187.572 142.504 188.725C142.727 189.877 142.727 191.663 142.504 192.47C142.28 193.277 139.539 204.743 140.042 205.838C140.546 206.932 140.769 206.356 141.161 206.875C141.553 207.393 142.056 207.854 142 208.315C141.944 208.776 140.713 209.007 140.378 208.776C140.042 208.546 138.476 205.089 138.699 204.167C138.923 203.245 141.161 191.087 141.161 189.589V184.346Z" fill="white"/>
<path d="M139.147 208.315C139.595 207.854 132.378 210.274 132.378 210.274C132.378 210.274 131.298 210.607 131.035 211.196C130.825 211.666 130.755 212.291 131.035 212.521C131.315 212.752 155.762 212.867 156.713 213.098C157.664 213.328 170.699 214.596 171.65 214.653C172.601 214.711 179.93 214.423 181.776 214.308C183.622 214.192 181.552 213.559 176.965 212.521C172.378 211.484 135.175 212.118 134.671 211.945C134.168 211.772 133.273 211.6 133.832 211.196C134.392 210.793 138.699 208.776 139.147 208.315Z" fill="white"/>
<path d="M143.455 210.62C143.678 210.39 144.741 209.953 145.636 209.813C146.328 209.706 148.042 209.352 147.427 209.813C146.811 210.274 146.643 210.793 146.14 210.793C145.636 210.793 143.231 210.85 143.455 210.62Z" fill="white"/>
<path d="M155.818 202.38C156.657 201.574 165.832 199.96 165.441 200.537C165.049 201.113 162.196 202.899 161.021 202.38C159.846 201.862 154.979 203.187 155.818 202.38Z" fill="white"/>
<path d="M168.182 199.903C168.965 200.018 175.119 201.17 176.965 202.15C178.811 203.13 178.979 206.414 179.594 207.393C180.21 208.373 176.238 212.982 177.692 207.566C179.147 202.15 167.399 199.788 168.182 199.903Z" fill="white"/>
<path d="M182.224 211.311C181.944 211.945 182.727 206.817 183.175 206.183C183.622 205.55 188.378 206.299 187.93 206.356C187.482 206.414 184.853 206.644 184.685 206.817C184.517 206.99 182.503 210.678 182.224 211.311Z" fill="white"/>
<path d="M188.21 206.587C188.601 206.356 197.72 207.681 197.944 210.044C198.168 212.406 197.664 215.057 197.44 214.999C197.217 214.941 196.489 214.48 196.545 213.904C196.601 213.328 197.496 212.81 197.273 211.196C197.049 209.583 187.818 206.817 188.21 206.587Z" fill="white"/>
<path d="M156.713 209.18C156.713 209.18 166.615 206.126 169.133 206.068C171.65 206.01 172.154 207.105 172.657 207.393C173.161 207.681 170.476 207.105 168.965 207.393C167.455 207.681 162.084 209.468 160.35 209.583C158.615 209.698 156.769 209.352 156.657 209.295C156.546 209.237 156.713 209.18 156.713 209.18Z" fill="white"/>
<path d="M144.685 170.978L145.189 186.593C145.386 192.691 146.919 191.172 147.091 194.256C147.203 196.26 146.755 198.866 146.755 199.384C146.755 199.903 149.273 196.676 148.993 194.256C148.713 191.836 147.732 190.14 147.091 187.457C145.58 181.138 144.489 164.88 144.685 170.978Z" fill="white"/>
<path d="M131.818 134.678C132.322 134.332 133.832 133.986 133.832 133.986C133.832 133.986 137.077 133.583 136.797 133.986C136.518 134.39 135.678 135.83 134.839 136.695C134 137.559 132.602 136.406 132.602 136.406C132.602 136.406 131.315 135.024 131.818 134.678Z" fill="white"/>
<path d="M153.357 152.425C153.357 152.425 157.185 150.438 159.846 150.177L159.93 150.169C160.989 150.065 161.627 150.003 162.699 150.177C163.764 150.351 165.497 150.869 165.329 151.042C165.329 151.042 165.052 151.593 164.769 151.848C164.104 152.448 163.147 152.56 162.531 152.194C161.916 151.828 161.164 151.622 160.238 151.503C159.261 151.377 158.696 151.483 157.72 151.618C156.539 151.781 155.941 152.241 154.755 152.367C154.212 152.425 153.357 152.425 153.357 152.425Z" fill="white"/>
<path d="M147.035 161.932C147.371 161.586 156.042 153.174 156.546 152.943C157.049 152.713 155.93 152.54 155.93 152.54C155.93 152.54 153.793 153.024 152.573 153.692C149.219 155.531 146.699 162.278 147.035 161.932Z" fill="white"/>
<path d="M142.056 143.378C142.168 143.263 144.462 137.271 144.462 136.695C144.462 136.118 142.56 136.695 142.56 136.695C142.56 136.695 141.925 138.026 141.72 138.942C141.337 140.653 141.819 143.407 141.888 143.436C141.957 143.465 141.944 143.494 142.056 143.378Z" fill="white"/>
<path d="M142.056 148.449C142.56 148.91 145.413 149.717 145.804 148.91C146.196 148.103 146.14 146.144 147.762 145.222C149.385 144.3 151.927 144.506 154.364 143.378C156.531 142.375 157.767 141.699 159.511 140.037C160.191 139.387 160.802 139.143 161.133 138.25C161.549 137.126 161.133 136.406 160.741 135.196C160.35 133.986 157.105 139.864 156.322 140.209C155.539 140.555 153.399 141.47 151.455 142.053C148.953 142.803 146.14 142.745 144.909 143.378C143.678 144.012 141.553 147.988 142.056 148.449Z" fill="white"/>
<path d="M142.839 133.986C143.119 133.295 154.587 132.776 156.546 132.143C158.504 131.509 164.657 129.146 165.608 128.858C166.559 128.57 170.811 129.204 171.147 129.607C171.483 130.011 172.657 132.949 171.483 132.143C170.308 131.336 168.797 130.529 167.566 130.587C166.336 130.645 159.063 133.122 157.72 133.468C156.378 133.814 142.56 134.678 142.839 133.986Z" fill="white"/>
<path d="M166.783 145.683C167.566 145.395 168.685 145.165 168.909 144.3C169.133 143.436 168.695 141.385 169.692 140.037C170.449 139.014 171.386 139.032 172.378 138.25C172.735 137.968 173.104 137.931 173.273 137.501C173.544 136.81 173.04 136.131 172.378 135.83C171.938 135.631 171.483 135.196 171.147 135.83C170.811 136.464 169.207 137.31 168.35 138.596C166.79 140.936 166 145.971 166.783 145.683Z" fill="white"/>
<path d="M169.692 126.842C170.42 126.438 170.365 124.595 171.483 123.846C172.384 123.241 173.095 123.122 174.168 123.212C176.572 123.413 177.288 125.655 178.364 127.879C179.715 130.673 179.692 134.966 179.147 135.83C178.602 136.695 176.573 137.501 177.468 137.501C178.364 137.501 179.371 137.789 179.93 137.501C180.489 137.213 180.806 132.99 180.266 130.184C179.752 127.517 179.468 125.621 177.468 123.846C176.27 122.781 175.414 122.063 173.832 122.002C172.752 121.96 171.147 122.693 171.147 122.693C171.147 122.693 168.965 127.245 169.692 126.842Z" fill="white"/>
<path d="M135.8 308C135.8 305 134.217 303.5 131.05 303.5H126V330.85H131.05C134.217 330.85 135.8 329.317 135.8 326.25V308ZM122.45 300.4H131.25C133.917 300.4 135.933 301.083 137.3 302.45C138.667 303.817 139.35 305.65 139.35 307.95V326.35C139.35 328.717 138.683 330.583 137.35 331.95C136.017 333.317 134.017 334 131.35 334H122.45V300.4ZM159.742 334L157.692 324.6H148.692L146.642 334H143.092L150.692 300.4H155.692L163.292 334H159.742ZM149.342 321.5H156.992L153.142 303.85L149.342 321.5ZM181.216 300.4V303.55H174.716V334H171.116V303.55H164.616V300.4H181.216ZM199.146 334L197.096 324.6H188.096L186.046 334H182.496L190.096 300.4H195.096L202.696 334H199.146ZM188.746 321.5H196.396L192.546 303.85L188.746 321.5Z" fill="#5F6F66"/>
<path d="M117.03 359.14V360.04C117.03 360.84 117.22 361.43 117.6 361.81C117.98 362.19 118.7 362.38 119.76 362.38C120.82 362.38 121.82 361.99 122.76 361.21V355.6L119.34 356.56C118.44 356.82 117.83 357.14 117.51 357.52C117.19 357.9 117.03 358.44 117.03 359.14ZM119.73 346.78C123.13 346.78 124.83 348.23 124.83 351.13V364H122.79V362.77C121.77 363.67 120.55 364.12 119.13 364.12C116.35 364.12 114.96 362.75 114.96 360.01V359.05C114.96 356.97 116.17 355.59 118.59 354.91L122.79 353.74V351.13C122.77 350.31 122.54 349.71 122.1 349.33C121.66 348.95 120.77 348.76 119.43 348.76C118.11 348.76 116.89 348.96 115.77 349.36V347.35C116.91 346.97 118.23 346.78 119.73 346.78ZM128.514 351.1C128.514 348.22 130.194 346.78 133.554 346.78C134.794 346.78 135.854 346.92 136.734 347.2V349.15C135.774 348.89 134.734 348.76 133.614 348.76C132.494 348.76 131.714 348.96 131.274 349.36C130.854 349.74 130.644 350.34 130.644 351.16V359.8C130.644 360.64 130.854 361.25 131.274 361.63C131.714 362.01 132.514 362.2 133.674 362.2C134.834 362.2 135.874 362.04 136.794 361.72V363.73C135.714 364.01 134.634 364.15 133.554 364.15C130.194 364.15 128.514 362.73 128.514 359.89V351.1ZM145.438 346.84H146.188V348.88H145.168C144.448 348.88 143.798 349.07 143.218 349.45C143.038 349.57 142.648 349.84 142.048 350.26V364H139.918V346.93H141.958V348.22C142.018 348.18 142.168 348.07 142.408 347.89C142.668 347.71 142.818 347.61 142.858 347.59C142.918 347.55 143.048 347.47 143.248 347.35C143.468 347.23 143.628 347.16 143.728 347.14C143.848 347.1 144.008 347.05 144.208 346.99C144.508 346.89 144.918 346.84 145.438 346.84ZM155.734 351.31C155.734 349.45 154.814 348.52 152.974 348.52C151.134 348.52 150.214 349.45 150.214 351.31V359.62C150.214 361.5 151.134 362.44 152.974 362.44C154.814 362.44 155.734 361.5 155.734 359.62V351.31ZM148.114 351.28C148.114 349.86 148.514 348.73 149.314 347.89C150.114 347.05 151.334 346.63 152.974 346.63C154.614 346.63 155.834 347.05 156.634 347.89C157.434 348.73 157.834 349.86 157.834 351.28V359.65C157.834 361.07 157.434 362.2 156.634 363.04C155.834 363.88 154.614 364.3 152.974 364.3C151.334 364.3 150.114 363.88 149.314 363.04C148.514 362.2 148.114 361.07 148.114 359.65V351.28ZM168.585 346.93H170.715L166.035 368.47H163.995L164.925 364H163.875L160.155 346.93H162.315L164.115 355.42L165.435 362.5C165.835 360.14 166.275 357.78 166.755 355.42L168.585 346.93ZM180.636 351.31C180.636 349.45 179.716 348.52 177.876 348.52C176.036 348.52 175.116 349.45 175.116 351.31V359.62C175.116 361.5 176.036 362.44 177.876 362.44C179.716 362.44 180.636 361.5 180.636 359.62V351.31ZM173.016 351.28C173.016 349.86 173.416 348.73 174.216 347.89C175.016 347.05 176.236 346.63 177.876 346.63C179.516 346.63 180.736 347.05 181.536 347.89C182.336 348.73 182.736 349.86 182.736 351.28V359.65C182.736 361.07 182.336 362.2 181.536 363.04C180.736 363.88 179.516 364.3 177.876 364.3C176.236 364.3 175.016 363.88 174.216 363.04C173.416 362.2 173.016 361.07 173.016 359.65V351.28ZM197.298 347.71H196.278C195.758 347.71 195.308 347.84 194.928 348.1C195.548 348.84 195.858 349.81 195.858 351.01V353.41C195.858 354.77 195.448 355.84 194.628 356.62C193.808 357.38 192.568 357.77 190.908 357.79C189.768 357.79 189.198 358.32 189.198 359.38C189.198 359.86 189.348 360.21 189.648 360.43C189.948 360.65 190.448 360.76 191.148 360.76H192.918C195.658 360.76 197.028 361.92 197.028 364.24V364.63C197.028 367.19 195.218 368.47 191.598 368.47H190.368C188.348 368.47 186.788 368.16 185.688 367.54V365.5C187.008 366.24 188.568 366.61 190.368 366.61H191.448C193.808 366.61 194.988 365.95 194.988 364.63V364.33C194.988 363.75 194.838 363.32 194.538 363.04C194.258 362.74 193.678 362.59 192.798 362.59H190.998C189.798 362.59 188.878 362.37 188.238 361.93C187.598 361.49 187.278 360.85 187.278 360.01V359.53C187.278 359.01 187.418 358.58 187.698 358.24C187.998 357.9 188.368 357.67 188.808 357.55C186.828 356.99 185.838 355.61 185.838 353.41V351.01C185.838 349.65 186.248 348.58 187.068 347.8C187.908 347.02 189.098 346.63 190.638 346.63C192.178 346.63 193.338 346.9 194.118 347.44C194.518 346.24 195.428 345.64 196.848 345.64H197.298V347.71ZM193.728 353.41V351.01C193.728 350.15 193.498 349.51 193.038 349.09C192.598 348.67 191.868 348.46 190.848 348.46C189.828 348.46 189.088 348.67 188.628 349.09C188.188 349.51 187.968 350.15 187.968 351.01V353.41C187.968 354.27 188.188 354.91 188.628 355.33C189.088 355.75 189.828 355.96 190.848 355.96C191.868 355.96 192.598 355.75 193.038 355.33C193.498 354.91 193.728 354.27 193.728 353.41ZM200.966 359.14V360.04C200.966 360.84 201.156 361.43 201.536 361.81C201.916 362.19 202.636 362.38 203.696 362.38C204.756 362.38 205.756 361.99 206.696 361.21V355.6L203.276 356.56C202.376 356.82 201.766 357.14 201.446 357.52C201.126 357.9 200.966 358.44 200.966 359.14ZM203.666 346.78C207.066 346.78 208.766 348.23 208.766 351.13V364H206.726V362.77C205.706 363.67 204.486 364.12 203.066 364.12C200.286 364.12 198.896 362.75 198.896 360.01V359.05C198.896 356.97 200.106 355.59 202.526 354.91L206.726 353.74V351.13C206.706 350.31 206.476 349.71 206.036 349.33C205.596 348.95 204.706 348.76 203.366 348.76C202.046 348.76 200.826 348.96 199.706 349.36V347.35C200.846 346.97 202.166 346.78 203.666 346.78Z" fill="#5F6F66"/>
<defs>
<filter id="filter0_d_450_2" x="0" y="0" width="325" height="475" filterUnits="userSpaceOnUse" color-interpolation-filters="sRGB">
<feFlood flood-opacity="0" result="BackgroundImageFix"/>
<feColorMatrix in="SourceAlpha" type="matrix" values="0 0 0 0 0 0 0 0 0 0 0 0 0 0 0 0 0 0 127 0" result="hardAlpha"/>
<feOffset dy="4"/>
<feGaussianBlur stdDeviation="2"/>
<feComposite in2="hardAlpha" operator="out"/>
<feColorMatrix type="matrix" values="0 0 0 0 0 0 0 0 0 0 0 0 0 0 0 0 0 0 0.25 0"/>
<feBlend mode="normal" in2="BackgroundImageFix" result="effect1_dropShadow_450_2"/>
<feBlend mode="normal" in="SourceGraphic" in2="effect1_dropShadow_450_2" result="shape"/>
</filter>
<filter id="filter1_d_450_2" x="87" y="95" width="152" height="155" filterUnits="userSpaceOnUse" color-interpolation-filters="sRGB">
<feFlood flood-opacity="0" result="BackgroundImageFix"/>
<feColorMatrix in="SourceAlpha" type="matrix" values="0 0 0 0 0 0 0 0 0 0 0 0 0 0 0 0 0 0 127 0" result="hardAlpha"/>
<feOffset dy="4"/>
<feGaussianBlur stdDeviation="2"/>
<feComposite in2="hardAlpha" operator="out"/>
<feColorMatrix type="matrix" values="0 0 0 0 0 0 0 0 0 0 0 0 0 0 0 0 0 0 0.25 0"/>
<feBlend mode="normal" in2="BackgroundImageFix" result="effect1_dropShadow_450_2"/>
<feBlend mode="normal" in="SourceGraphic" in2="effect1_dropShadow_450_2" result="shape"/>
</filter>
</defs>
</svg>
