<svg width="52" height="75" viewBox="0 0 52 75" fill="none" xmlns="http://www.w3.org/2000/svg">
<g filter="url(#filter0_d_476_205)">
<ellipse cx="26" cy="22.5" rx="22" ry="22.5" fill="#5F6F66"/>
</g>
<path d="M16.7713 18.1043C16.5795 17.8199 19.2807 12.9855 19.2168 12.7178C19.1529 12.4502 15.3967 18.2047 16.084 18.9073C16.5304 19.3636 18.7433 18.7896 20.2398 18.2992C20.2398 18.2992 20.6714 18.0484 20.7979 18.1088C21.3084 17.9272 21.6464 17.7838 21.6464 17.753C21.6464 17.6359 16.9631 18.3887 16.7713 18.1043Z" fill="white"/>
<path d="M20.4476 20.8979C20.4795 20.7306 20.7992 18.4389 20.8312 18.1879C20.8366 18.1458 20.8234 18.1209 20.7979 18.1088C20.6288 18.1689 20.4408 18.2333 20.2398 18.2992C20.5595 18.7232 18.7852 22.8886 18.7373 23.29C18.6893 23.6915 18.7852 24.5948 18.8652 24.9963C18.9451 25.3978 19.2328 23.5242 19.2648 23.3402C19.2967 23.1562 20.4156 21.0652 20.4476 20.8979Z" fill="white"/>
<path d="M19.7603 26.1004C19.7603 25.8829 20.0799 27.0371 20.1439 27.3717C20.2078 27.7063 20.2078 28.2248 20.1439 28.459C20.0799 28.6932 19.2967 32.0221 19.4406 32.34C19.5844 32.6578 19.6484 32.4905 19.7603 32.6411C19.8722 32.7916 20.016 32.9254 20 33.0593C19.984 33.1931 19.6324 33.26 19.5365 33.1931C19.4406 33.1262 18.993 32.1225 19.057 31.8548C19.1209 31.5872 19.7603 28.0576 19.7603 27.6226V26.1004Z" fill="white"/>
<path d="M19.1848 33.0593C19.3127 32.9254 17.2508 33.628 17.2508 33.628C17.2508 33.628 16.9424 33.7245 16.8672 33.8957C16.8072 34.0322 16.7873 34.2135 16.8672 34.2804C16.9471 34.3473 23.9321 34.3808 24.2038 34.4477C24.4755 34.5146 28.1998 34.8826 28.4715 34.8994C28.7433 34.9161 30.8372 34.8325 31.3646 34.799C31.8921 34.7655 31.3007 34.5815 29.99 34.2804C28.6793 33.9793 18.05 34.1633 17.9061 34.1131C17.7623 34.063 17.5065 34.0128 17.6664 33.8957C17.8262 33.7786 19.057 33.1931 19.1848 33.0593Z" fill="white"/>
<path d="M20.4156 33.7284C20.4795 33.6615 20.7832 33.5346 21.039 33.4942C21.2365 33.463 21.7263 33.3604 21.5505 33.4942C21.3746 33.628 21.3267 33.7786 21.1828 33.7786C21.039 33.7786 20.3517 33.7953 20.4156 33.7284Z" fill="white"/>
<path d="M23.9481 31.3363C24.1878 31.1021 26.8092 30.6337 26.6973 30.801C26.5854 30.9683 25.7702 31.4868 25.4346 31.3363C25.0989 31.1857 23.7083 31.5705 23.9481 31.3363Z" fill="white"/>
<path d="M27.4805 30.617C27.7043 30.6504 29.4625 30.985 29.99 31.2694C30.5175 31.5537 30.5654 32.5072 30.7412 32.7916C30.9171 33.076 29.7822 34.4142 30.1978 32.8418C30.6134 31.2694 27.2567 30.5835 27.4805 30.617Z" fill="white"/>
<path d="M31.4925 33.9291C31.4126 34.1131 31.6363 32.6243 31.7642 32.4403C31.8921 32.2563 33.2507 32.4738 33.1229 32.4905C32.995 32.5072 32.2437 32.5742 32.1958 32.6243C32.1478 32.6745 31.5724 33.7451 31.4925 33.9291Z" fill="white"/>
<path d="M33.2028 32.5574C33.3147 32.4905 35.92 32.8753 35.984 33.5611C36.0479 34.247 35.9041 35.0165 35.8401 34.9997C35.7762 34.983 35.5684 34.8492 35.5844 34.6819C35.6004 34.5146 35.8561 34.3641 35.7922 33.8957C35.7282 33.4273 33.0909 32.6243 33.2028 32.5574Z" fill="white"/>
<path d="M24.2038 33.3102C24.2038 33.3102 27.033 32.4236 27.7522 32.4069C28.4715 32.3901 28.6154 32.708 28.7592 32.7916C28.9031 32.8753 28.1359 32.708 27.7043 32.7916C27.2727 32.8753 25.7383 33.3938 25.2428 33.4273C24.7473 33.4607 24.2198 33.3604 24.1878 33.3436C24.1559 33.3269 24.2038 33.3102 24.2038 33.3102Z" fill="white"/>
<path d="M20.7673 22.2194L20.9111 26.7528C20.9673 28.5231 21.4053 28.0823 21.4546 28.9776C21.4866 29.5594 21.3587 30.3159 21.3587 30.4664C21.3587 30.617 22.0779 29.6802 21.998 28.9776C21.9181 28.275 21.6378 27.7826 21.4546 27.0037C21.0229 25.1691 20.7111 20.449 20.7673 22.2194Z" fill="white"/>
<path d="M17.0909 11.6807C17.2348 11.5803 17.6664 11.4799 17.6664 11.4799C17.6664 11.4799 18.5934 11.3629 18.5135 11.4799C18.4336 11.597 18.1938 12.0153 17.9541 12.2662C17.7143 12.5171 17.3147 12.1825 17.3147 12.1825C17.3147 12.1825 16.9471 11.7811 17.0909 11.6807Z" fill="white"/>
<path d="M23.2448 16.833C23.2448 16.833 24.3384 16.2563 25.0989 16.1806L25.1229 16.1782C25.4253 16.148 25.6077 16.1298 25.9141 16.1806C26.2183 16.231 26.7133 16.3813 26.6653 16.4315C26.6653 16.4315 26.5863 16.5917 26.5055 16.6657C26.3155 16.8397 26.042 16.8723 25.8661 16.766C25.6903 16.6598 25.4754 16.6 25.2108 16.5653C24.9318 16.5288 24.7702 16.5597 24.4915 16.5988C24.1539 16.6461 23.9832 16.7796 23.6444 16.8162C23.489 16.833 23.2448 16.833 23.2448 16.833Z" fill="white"/>
<path d="M21.4386 19.5931C21.5345 19.4927 24.012 17.0504 24.1559 16.9835C24.2997 16.9166 23.98 16.8664 23.98 16.8664C23.98 16.8664 23.3695 17.0068 23.021 17.201C22.0627 17.7349 21.3427 19.6935 21.4386 19.5931Z" fill="white"/>
<path d="M20.016 14.2066C20.048 14.1732 20.7033 12.4335 20.7033 12.2662C20.7033 12.0989 20.1599 12.2662 20.1599 12.2662C20.1599 12.2662 19.9787 12.6526 19.9201 12.9186C19.8107 13.4155 19.9483 14.2149 19.9681 14.2234C19.9878 14.2319 19.984 14.2401 20.016 14.2066Z" fill="white"/>
<path d="M20.016 15.6787C20.1599 15.8125 20.9751 16.0467 21.0869 15.8125C21.1988 15.5783 21.1829 15.0096 21.6464 14.7419C22.1099 14.4743 22.8364 14.5341 23.5325 14.2066C24.1517 13.9154 24.5049 13.7192 25.003 13.2364C25.1974 13.048 25.3721 12.9769 25.4665 12.7178C25.5855 12.3915 25.4665 12.1825 25.3547 11.8312C25.2428 11.48 24.3157 13.1862 24.0919 13.2866C23.8681 13.387 23.2569 13.6527 22.7013 13.8219C21.9867 14.0396 21.1828 14.0226 20.8312 14.2066C20.4795 14.3906 19.8722 15.5449 20.016 15.6787Z" fill="white"/>
<path d="M20.2398 11.4799C20.3197 11.2792 23.5964 11.1287 24.1559 10.9446C24.7153 10.7606 26.4735 10.0748 26.7453 9.99114C27.017 9.9075 28.2318 10.0915 28.3277 10.2086C28.4236 10.3257 28.7592 11.1788 28.4236 10.9446C28.0879 10.7105 27.6563 10.4763 27.3047 10.493C26.953 10.5097 24.8751 11.229 24.4915 11.3294C24.1079 11.4298 20.1599 11.6807 20.2398 11.4799Z" fill="white"/>
<path d="M27.0809 14.8758C27.3047 14.7921 27.6244 14.7252 27.6883 14.4743C27.7522 14.2234 27.6272 13.6278 27.9121 13.2364C28.1282 12.9395 28.3961 12.9448 28.6793 12.7178C28.7815 12.636 28.8868 12.6252 28.9351 12.5004C29.0126 12.2998 28.8685 12.1024 28.6793 12.0153C28.5536 11.9573 28.4236 11.8312 28.3277 12.0153C28.2318 12.1993 27.7734 12.4449 27.5285 12.8182C27.0828 13.4976 26.8571 14.9594 27.0809 14.8758Z" fill="white"/>
<path d="M27.9121 9.40566C28.1199 9.28856 28.1042 8.7535 28.4236 8.53579C28.6811 8.36021 28.8844 8.3257 29.1908 8.35179C29.8776 8.41026 30.0824 9.06123 30.3896 9.70677C30.7756 10.5179 30.7691 11.7643 30.6134 12.0153C30.4576 12.2662 29.8781 12.5004 30.1339 12.5004C30.3896 12.5004 30.6773 12.584 30.8372 12.5004C30.997 12.4167 31.0875 11.1906 30.9331 10.3759C30.7863 9.60163 30.7051 9.05126 30.1339 8.53579C29.7914 8.22672 29.5468 8.01815 29.0949 8.00049C28.7863 7.98843 28.3277 8.20123 28.3277 8.20123C28.3277 8.20123 27.7043 9.52276 27.9121 9.40566Z" fill="white"/>
<path d="M19.032 55.76C19.032 55.04 18.652 54.68 17.892 54.68H16.68V61.244H17.892C18.652 61.244 19.032 60.876 19.032 60.14V55.76ZM15.828 53.936H17.94C18.58 53.936 19.064 54.1 19.392 54.428C19.72 54.756 19.884 55.196 19.884 55.748V60.164C19.884 60.732 19.724 61.18 19.404 61.508C19.084 61.836 18.604 62 17.964 62H15.828V53.936ZM24.7781 62L24.2861 59.744H22.1261L21.6341 62H20.7821L22.6061 53.936H23.8061L25.6301 62H24.7781ZM22.2821 59H24.1181L23.1941 54.764L22.2821 59ZM29.9318 53.936V54.692H28.3718V62H27.5078V54.692H25.9478V53.936H29.9318ZM34.2352 62L33.7432 59.744H31.5832L31.0912 62H30.2392L32.0632 53.936H33.2632L35.0872 62H34.2352ZM31.7392 59H33.5752L32.6512 54.764L31.7392 59Z" fill="#5F6F66"/>
<path d="M10.01 70.38V70.68C10.01 70.9467 10.0733 71.1433 10.2 71.27C10.3267 71.3967 10.5667 71.46 10.92 71.46C11.2733 71.46 11.6067 71.33 11.92 71.07V69.2L10.78 69.52C10.48 69.6067 10.2767 69.7133 10.17 69.84C10.0633 69.9667 10.01 70.1467 10.01 70.38ZM10.91 66.26C12.0433 66.26 12.61 66.7433 12.61 67.71V72H11.93V71.59C11.59 71.89 11.1833 72.04 10.71 72.04C9.78333 72.04 9.32 71.5833 9.32 70.67V70.35C9.32 69.6567 9.72333 69.1967 10.53 68.97L11.93 68.58V67.71C11.9233 67.4367 11.8467 67.2367 11.7 67.11C11.5533 66.9833 11.2567 66.92 10.81 66.92C10.37 66.92 9.96333 66.9867 9.59 67.12V66.45C9.97 66.3233 10.41 66.26 10.91 66.26ZM13.838 67.7C13.838 66.74 14.398 66.26 15.518 66.26C15.9314 66.26 16.2847 66.3067 16.578 66.4V67.05C16.258 66.9633 15.9114 66.92 15.538 66.92C15.1647 66.92 14.9047 66.9867 14.758 67.12C14.618 67.2467 14.548 67.4467 14.548 67.72V70.6C14.548 70.88 14.618 71.0833 14.758 71.21C14.9047 71.3367 15.1714 71.4 15.558 71.4C15.9447 71.4 16.2914 71.3467 16.598 71.24V71.91C16.238 72.0033 15.878 72.05 15.518 72.05C14.398 72.05 13.838 71.5767 13.838 70.63V67.7ZM19.4792 66.28H19.7292V66.96H19.3892C19.1492 66.96 18.9326 67.0233 18.7392 67.15C18.6792 67.19 18.5492 67.28 18.3492 67.42V72H17.6392V66.31H18.3192V66.74C18.3392 66.7267 18.3892 66.69 18.4692 66.63C18.5559 66.57 18.6059 66.5367 18.6192 66.53C18.6392 66.5167 18.6826 66.49 18.7492 66.45C18.8226 66.41 18.8759 66.3867 18.9092 66.38C18.9492 66.3667 19.0026 66.35 19.0692 66.33C19.1692 66.2967 19.3059 66.28 19.4792 66.28ZM22.9113 67.77C22.9113 67.15 22.6046 66.84 21.9913 66.84C21.3779 66.84 21.0713 67.15 21.0713 67.77V70.54C21.0713 71.1667 21.3779 71.48 21.9913 71.48C22.6046 71.48 22.9113 71.1667 22.9113 70.54V67.77ZM20.3713 67.76C20.3713 67.2867 20.5046 66.91 20.7713 66.63C21.0379 66.35 21.4446 66.21 21.9913 66.21C22.5379 66.21 22.9446 66.35 23.2113 66.63C23.4779 66.91 23.6113 67.2867 23.6113 67.76V70.55C23.6113 71.0233 23.4779 71.4 23.2113 71.68C22.9446 71.96 22.5379 72.1 21.9913 72.1C21.4446 72.1 21.0379 71.96 20.7713 71.68C20.5046 71.4 20.3713 71.0233 20.3713 70.55V67.76ZM27.1951 66.31H27.9051L26.3451 73.49H25.6651L25.9751 72H25.6251L24.3851 66.31H25.1051L25.7051 69.14L26.1451 71.5C26.2784 70.7133 26.4251 69.9267 26.5851 69.14L27.1951 66.31ZM31.212 67.77C31.212 67.15 30.9054 66.84 30.292 66.84C29.6787 66.84 29.372 67.15 29.372 67.77V70.54C29.372 71.1667 29.6787 71.48 30.292 71.48C30.9054 71.48 31.212 71.1667 31.212 70.54V67.77ZM28.672 67.76C28.672 67.2867 28.8054 66.91 29.072 66.63C29.3387 66.35 29.7454 66.21 30.292 66.21C30.8387 66.21 31.2454 66.35 31.512 66.63C31.7787 66.91 31.912 67.2867 31.912 67.76V70.55C31.912 71.0233 31.7787 71.4 31.512 71.68C31.2454 71.96 30.8387 72.1 30.292 72.1C29.7454 72.1 29.3387 71.96 29.072 71.68C28.8054 71.4 28.672 71.0233 28.672 70.55V67.76ZM36.7659 66.57H36.4259C36.2525 66.57 36.1025 66.6133 35.9759 66.7C36.1825 66.9467 36.2859 67.27 36.2859 67.67V68.47C36.2859 68.9233 36.1492 69.28 35.8759 69.54C35.6025 69.7933 35.1892 69.9233 34.6359 69.93C34.2559 69.93 34.0659 70.1067 34.0659 70.46C34.0659 70.62 34.1159 70.7367 34.2159 70.81C34.3159 70.8833 34.4825 70.92 34.7159 70.92H35.3059C36.2192 70.92 36.6759 71.3067 36.6759 72.08V72.21C36.6759 73.0633 36.0725 73.49 34.8659 73.49H34.4559C33.7825 73.49 33.2625 73.3867 32.8959 73.18V72.5C33.3359 72.7467 33.8559 72.87 34.4559 72.87H34.8159C35.6025 72.87 35.9959 72.65 35.9959 72.21V72.11C35.9959 71.9167 35.9459 71.7733 35.8459 71.68C35.7525 71.58 35.5592 71.53 35.2659 71.53H34.6659C34.2659 71.53 33.9592 71.4567 33.7459 71.31C33.5325 71.1633 33.4259 70.95 33.4259 70.67V70.51C33.4259 70.3367 33.4725 70.1933 33.5659 70.08C33.6659 69.9667 33.7892 69.89 33.9359 69.85C33.2759 69.6633 32.9459 69.2033 32.9459 68.47V67.67C32.9459 67.2167 33.0825 66.86 33.3559 66.6C33.6359 66.34 34.0325 66.21 34.5459 66.21C35.0592 66.21 35.4459 66.3 35.7059 66.48C35.8392 66.08 36.1425 65.88 36.6159 65.88H36.7659V66.57ZM35.5759 68.47V67.67C35.5759 67.3833 35.4992 67.17 35.3459 67.03C35.1992 66.89 34.9559 66.82 34.6159 66.82C34.2759 66.82 34.0292 66.89 33.8759 67.03C33.7292 67.17 33.6559 67.3833 33.6559 67.67V68.47C33.6559 68.7567 33.7292 68.97 33.8759 69.11C34.0292 69.25 34.2759 69.32 34.6159 69.32C34.9559 69.32 35.1992 69.25 35.3459 69.11C35.4992 68.97 35.5759 68.7567 35.5759 68.47ZM37.9885 70.38V70.68C37.9885 70.9467 38.0518 71.1433 38.1785 71.27C38.3052 71.3967 38.5452 71.46 38.8985 71.46C39.2518 71.46 39.5852 71.33 39.8985 71.07V69.2L38.7585 69.52C38.4585 69.6067 38.2552 69.7133 38.1485 69.84C38.0418 69.9667 37.9885 70.1467 37.9885 70.38ZM38.8885 66.26C40.0218 66.26 40.5885 66.7433 40.5885 67.71V72H39.9085V71.59C39.5685 71.89 39.1618 72.04 38.6885 72.04C37.7618 72.04 37.2985 71.5833 37.2985 70.67V70.35C37.2985 69.6567 37.7018 69.1967 38.5085 68.97L39.9085 68.58V67.71C39.9018 67.4367 39.8252 67.2367 39.6785 67.11C39.5318 66.9833 39.2352 66.92 38.7885 66.92C38.3485 66.92 37.9418 66.9867 37.5685 67.12V66.45C37.9485 66.3233 38.3885 66.26 38.8885 66.26Z" fill="#5F6F66"/>
<defs>
<filter id="filter0_d_476_205" x="0" y="0" width="52" height="53" filterUnits="userSpaceOnUse" color-interpolation-filters="sRGB">
<feFlood flood-opacity="0" result="BackgroundImageFix"/>
<feColorMatrix in="SourceAlpha" type="matrix" values="0 0 0 0 0 0 0 0 0 0 0 0 0 0 0 0 0 0 127 0" result="hardAlpha"/>
<feOffset dy="4"/>
<feGaussianBlur stdDeviation="2"/>
<feComposite in2="hardAlpha" operator="out"/>
<feColorMatrix type="matrix" values="0 0 0 0 0 0 0 0 0 0 0 0 0 0 0 0 0 0 0.25 0"/>
<feBlend mode="normal" in2="BackgroundImageFix" result="effect1_dropShadow_476_205"/>
<feBlend mode="normal" in="SourceGraphic" in2="effect1_dropShadow_476_205" result="shape"/>
</filter>
</defs>
</svg>
