<svg width="79" height="99" viewBox="0 0 79 99" fill="none" xmlns="http://www.w3.org/2000/svg">
<g filter="url(#filter0_d_475_204)">
<rect x="4" width="71" height="91" rx="10" fill="#EDE8DF"/>
</g>
<g filter="url(#filter1_d_475_204)">
<ellipse cx="40" cy="31.5" rx="22" ry="22.5" fill="#5F6F66"/>
</g>
<path d="M30.7713 27.1043C30.5795 26.8199 33.2807 21.9855 33.2168 21.7178C33.1529 21.4502 29.3967 27.2047 30.084 27.9073C30.5304 28.3636 32.7433 27.7896 34.2398 27.2992C34.2398 27.2992 34.6714 27.0484 34.7979 27.1088C35.3084 26.9272 35.6464 26.7838 35.6464 26.753C35.6464 26.6359 30.9631 27.3887 30.7713 27.1043Z" fill="white"/>
<path d="M34.4476 29.8979C34.4795 29.7306 34.7992 27.4389 34.8312 27.1879C34.8366 27.1458 34.8234 27.1209 34.7979 27.1088C34.6288 27.1689 34.4408 27.2333 34.2398 27.2992C34.5595 27.7232 32.7852 31.8886 32.7373 32.29C32.6893 32.6915 32.7852 33.5948 32.8652 33.9963C32.9451 34.3978 33.2328 32.5242 33.2648 32.3402C33.2967 32.1562 34.4156 30.0652 34.4476 29.8979Z" fill="white"/>
<path d="M33.7603 35.1004C33.7603 34.8829 34.0799 36.0371 34.1439 36.3717C34.2078 36.7063 34.2078 37.2248 34.1439 37.459C34.0799 37.6932 33.2967 41.0221 33.4406 41.34C33.5844 41.6578 33.6484 41.4905 33.7603 41.6411C33.8722 41.7916 34.016 41.9254 34 42.0593C33.984 42.1931 33.6324 42.26 33.5365 42.1931C33.4406 42.1262 32.993 41.1225 33.057 40.8548C33.1209 40.5872 33.7603 37.0576 33.7603 36.6226V35.1004Z" fill="white"/>
<path d="M33.1848 42.0593C33.3127 41.9254 31.2508 42.628 31.2508 42.628C31.2508 42.628 30.9424 42.7245 30.8672 42.8957C30.8072 43.0322 30.7873 43.2135 30.8672 43.2804C30.9471 43.3473 37.9321 43.3808 38.2038 43.4477C38.4755 43.5146 42.1998 43.8826 42.4715 43.8994C42.7433 43.9161 44.8372 43.8325 45.3646 43.799C45.8921 43.7655 45.3007 43.5815 43.99 43.2804C42.6793 42.9793 32.05 43.1633 31.9061 43.1131C31.7623 43.063 31.5065 43.0128 31.6664 42.8957C31.8262 42.7786 33.057 42.1931 33.1848 42.0593Z" fill="white"/>
<path d="M34.4156 42.7284C34.4795 42.6615 34.7832 42.5346 35.039 42.4942C35.2365 42.463 35.7263 42.3604 35.5505 42.4942C35.3746 42.628 35.3267 42.7786 35.1828 42.7786C35.039 42.7786 34.3517 42.7953 34.4156 42.7284Z" fill="white"/>
<path d="M37.9481 40.3363C38.1878 40.1021 40.8092 39.6337 40.6973 39.801C40.5854 39.9683 39.7702 40.4868 39.4346 40.3363C39.0989 40.1857 37.7083 40.5705 37.9481 40.3363Z" fill="white"/>
<path d="M41.4805 39.617C41.7043 39.6504 43.4625 39.985 43.99 40.2694C44.5175 40.5537 44.5654 41.5072 44.7412 41.7916C44.9171 42.076 43.7822 43.4142 44.1978 41.8418C44.6134 40.2694 41.2567 39.5835 41.4805 39.617Z" fill="white"/>
<path d="M45.4925 42.9291C45.4126 43.1131 45.6363 41.6243 45.7642 41.4403C45.8921 41.2563 47.2507 41.4738 47.1229 41.4905C46.995 41.5072 46.2437 41.5742 46.1958 41.6243C46.1478 41.6745 45.5724 42.7451 45.4925 42.9291Z" fill="white"/>
<path d="M47.2028 41.5574C47.3147 41.4905 49.92 41.8753 49.984 42.5611C50.0479 43.247 49.9041 44.0165 49.8401 43.9997C49.7762 43.983 49.5684 43.8492 49.5844 43.6819C49.6004 43.5146 49.8561 43.3641 49.7922 42.8957C49.7282 42.4273 47.0909 41.6243 47.2028 41.5574Z" fill="white"/>
<path d="M38.2038 42.3102C38.2038 42.3102 41.033 41.4236 41.7522 41.4069C42.4715 41.3901 42.6154 41.708 42.7592 41.7916C42.9031 41.8753 42.1359 41.708 41.7043 41.7916C41.2727 41.8753 39.7383 42.3938 39.2428 42.4273C38.7473 42.4607 38.2198 42.3604 38.1878 42.3436C38.1559 42.3269 38.2038 42.3102 38.2038 42.3102Z" fill="white"/>
<path d="M34.7673 31.2194L34.9111 35.7528C34.9673 37.5231 35.4053 37.0823 35.4546 37.9776C35.4866 38.5594 35.3587 39.3159 35.3587 39.4664C35.3587 39.617 36.0779 38.6802 35.998 37.9776C35.9181 37.275 35.6378 36.7826 35.4546 36.0037C35.0229 34.1691 34.7111 29.449 34.7673 31.2194Z" fill="white"/>
<path d="M31.0909 20.6807C31.2348 20.5803 31.6664 20.4799 31.6664 20.4799C31.6664 20.4799 32.5934 20.3629 32.5135 20.4799C32.4336 20.597 32.1938 21.0153 31.9541 21.2662C31.7143 21.5171 31.3147 21.1825 31.3147 21.1825C31.3147 21.1825 30.9471 20.7811 31.0909 20.6807Z" fill="white"/>
<path d="M37.2448 25.833C37.2448 25.833 38.3384 25.2563 39.0989 25.1806L39.1229 25.1782C39.4253 25.148 39.6077 25.1298 39.9141 25.1806C40.2183 25.231 40.7133 25.3813 40.6653 25.4315C40.6653 25.4315 40.5863 25.5917 40.5055 25.6657C40.3155 25.8397 40.042 25.8723 39.8661 25.766C39.6903 25.6598 39.4754 25.6 39.2108 25.5653C38.9318 25.5288 38.7702 25.5597 38.4915 25.5988C38.1539 25.6461 37.9832 25.7796 37.6444 25.8162C37.489 25.833 37.2448 25.833 37.2448 25.833Z" fill="white"/>
<path d="M35.4386 28.5931C35.5345 28.4927 38.012 26.0504 38.1559 25.9835C38.2997 25.9166 37.98 25.8664 37.98 25.8664C37.98 25.8664 37.3695 26.0068 37.021 26.201C36.0627 26.7349 35.3427 28.6935 35.4386 28.5931Z" fill="white"/>
<path d="M34.016 23.2066C34.048 23.1732 34.7033 21.4335 34.7033 21.2662C34.7033 21.0989 34.1599 21.2662 34.1599 21.2662C34.1599 21.2662 33.9787 21.6526 33.9201 21.9186C33.8107 22.4155 33.9483 23.2149 33.9681 23.2234C33.9878 23.2319 33.984 23.2401 34.016 23.2066Z" fill="white"/>
<path d="M34.016 24.6787C34.1599 24.8125 34.9751 25.0467 35.0869 24.8125C35.1988 24.5783 35.1829 24.0096 35.6464 23.7419C36.1099 23.4743 36.8364 23.5341 37.5325 23.2066C38.1517 22.9154 38.5049 22.7192 39.003 22.2364C39.1974 22.048 39.3721 21.9769 39.4665 21.7178C39.5855 21.3915 39.4665 21.1825 39.3547 20.8312C39.2428 20.48 38.3157 22.1862 38.0919 22.2866C37.8681 22.387 37.2569 22.6527 36.7013 22.8219C35.9867 23.0396 35.1828 23.0226 34.8312 23.2066C34.4795 23.3906 33.8722 24.5449 34.016 24.6787Z" fill="white"/>
<path d="M34.2398 20.4799C34.3197 20.2792 37.5964 20.1287 38.1559 19.9446C38.7153 19.7606 40.4735 19.0748 40.7453 18.9911C41.017 18.9075 42.2318 19.0915 42.3277 19.2086C42.4236 19.3257 42.7592 20.1788 42.4236 19.9446C42.0879 19.7105 41.6563 19.4763 41.3047 19.493C40.953 19.5097 38.8751 20.229 38.4915 20.3294C38.1079 20.4298 34.1599 20.6807 34.2398 20.4799Z" fill="white"/>
<path d="M41.0809 23.8758C41.3047 23.7921 41.6244 23.7252 41.6883 23.4743C41.7522 23.2234 41.6272 22.6278 41.9121 22.2364C42.1282 21.9395 42.3961 21.9448 42.6793 21.7178C42.7815 21.636 42.8868 21.6252 42.9351 21.5004C43.0126 21.2998 42.8685 21.1024 42.6793 21.0153C42.5536 20.9573 42.4236 20.8312 42.3277 21.0153C42.2318 21.1993 41.7734 21.4449 41.5285 21.8182C41.0828 22.4976 40.8571 23.9594 41.0809 23.8758Z" fill="white"/>
<path d="M41.9121 18.4057C42.1199 18.2886 42.1042 17.7535 42.4236 17.5358C42.6811 17.3602 42.8844 17.3257 43.1908 17.3518C43.8776 17.4103 44.0824 18.0612 44.3896 18.7068C44.7756 19.5179 44.7691 20.7643 44.6134 21.0153C44.4576 21.2662 43.8781 21.5004 44.1339 21.5004C44.3896 21.5004 44.6773 21.584 44.8372 21.5004C44.997 21.4167 45.0875 20.1906 44.9331 19.3759C44.7863 18.6016 44.7051 18.0513 44.1339 17.5358C43.7914 17.2267 43.5468 17.0182 43.0949 17.0005C42.7863 16.9884 42.3277 17.2012 42.3277 17.2012C42.3277 17.2012 41.7043 18.5228 41.9121 18.4057Z" fill="white"/>
<path d="M33.032 64.76C33.032 64.04 32.652 63.68 31.892 63.68H30.68V70.244H31.892C32.652 70.244 33.032 69.876 33.032 69.14V64.76ZM29.828 62.936H31.94C32.58 62.936 33.064 63.1 33.392 63.428C33.72 63.756 33.884 64.196 33.884 64.748V69.164C33.884 69.732 33.724 70.18 33.404 70.508C33.084 70.836 32.604 71 31.964 71H29.828V62.936ZM38.7781 71L38.2861 68.744H36.1261L35.6341 71H34.7821L36.6061 62.936H37.8061L39.6301 71H38.7781ZM36.2821 68H38.1181L37.1941 63.764L36.2821 68ZM43.9318 62.936V63.692H42.3718V71H41.5078V63.692H39.9478V62.936H43.9318ZM48.2352 71L47.7432 68.744H45.5832L45.0912 71H44.2392L46.0632 62.936H47.2632L49.0872 71H48.2352ZM45.7392 68H47.5752L46.6512 63.764L45.7392 68Z" fill="#5F6F66"/>
<path d="M24.01 79.38V79.68C24.01 79.9467 24.0733 80.1433 24.2 80.27C24.3267 80.3967 24.5667 80.46 24.92 80.46C25.2733 80.46 25.6067 80.33 25.92 80.07V78.2L24.78 78.52C24.48 78.6067 24.2767 78.7133 24.17 78.84C24.0633 78.9667 24.01 79.1467 24.01 79.38ZM24.91 75.26C26.0433 75.26 26.61 75.7433 26.61 76.71V81H25.93V80.59C25.59 80.89 25.1833 81.04 24.71 81.04C23.7833 81.04 23.32 80.5833 23.32 79.67V79.35C23.32 78.6567 23.7233 78.1967 24.53 77.97L25.93 77.58V76.71C25.9233 76.4367 25.8467 76.2367 25.7 76.11C25.5533 75.9833 25.2567 75.92 24.81 75.92C24.37 75.92 23.9633 75.9867 23.59 76.12V75.45C23.97 75.3233 24.41 75.26 24.91 75.26ZM27.838 76.7C27.838 75.74 28.398 75.26 29.518 75.26C29.9314 75.26 30.2847 75.3067 30.578 75.4V76.05C30.258 75.9633 29.9114 75.92 29.538 75.92C29.1647 75.92 28.9047 75.9867 28.758 76.12C28.618 76.2467 28.548 76.4467 28.548 76.72V79.6C28.548 79.88 28.618 80.0833 28.758 80.21C28.9047 80.3367 29.1714 80.4 29.558 80.4C29.9447 80.4 30.2914 80.3467 30.598 80.24V80.91C30.238 81.0033 29.878 81.05 29.518 81.05C28.398 81.05 27.838 80.5767 27.838 79.63V76.7ZM33.4792 75.28H33.7292V75.96H33.3892C33.1492 75.96 32.9326 76.0233 32.7392 76.15C32.6792 76.19 32.5492 76.28 32.3492 76.42V81H31.6392V75.31H32.3192V75.74C32.3392 75.7267 32.3892 75.69 32.4692 75.63C32.5559 75.57 32.6059 75.5367 32.6192 75.53C32.6392 75.5167 32.6826 75.49 32.7492 75.45C32.8226 75.41 32.8759 75.3867 32.9092 75.38C32.9492 75.3667 33.0026 75.35 33.0692 75.33C33.1692 75.2967 33.3059 75.28 33.4792 75.28ZM36.9113 76.77C36.9113 76.15 36.6046 75.84 35.9913 75.84C35.3779 75.84 35.0713 76.15 35.0713 76.77V79.54C35.0713 80.1667 35.3779 80.48 35.9913 80.48C36.6046 80.48 36.9113 80.1667 36.9113 79.54V76.77ZM34.3713 76.76C34.3713 76.2867 34.5046 75.91 34.7713 75.63C35.0379 75.35 35.4446 75.21 35.9913 75.21C36.5379 75.21 36.9446 75.35 37.2113 75.63C37.4779 75.91 37.6113 76.2867 37.6113 76.76V79.55C37.6113 80.0233 37.4779 80.4 37.2113 80.68C36.9446 80.96 36.5379 81.1 35.9913 81.1C35.4446 81.1 35.0379 80.96 34.7713 80.68C34.5046 80.4 34.3713 80.0233 34.3713 79.55V76.76ZM41.1951 75.31H41.9051L40.3451 82.49H39.6651L39.9751 81H39.6251L38.3851 75.31H39.1051L39.7051 78.14L40.1451 80.5C40.2784 79.7133 40.4251 78.9267 40.5851 78.14L41.1951 75.31ZM45.212 76.77C45.212 76.15 44.9054 75.84 44.292 75.84C43.6787 75.84 43.372 76.15 43.372 76.77V79.54C43.372 80.1667 43.6787 80.48 44.292 80.48C44.9054 80.48 45.212 80.1667 45.212 79.54V76.77ZM42.672 76.76C42.672 76.2867 42.8054 75.91 43.072 75.63C43.3387 75.35 43.7454 75.21 44.292 75.21C44.8387 75.21 45.2454 75.35 45.512 75.63C45.7787 75.91 45.912 76.2867 45.912 76.76V79.55C45.912 80.0233 45.7787 80.4 45.512 80.68C45.2454 80.96 44.8387 81.1 44.292 81.1C43.7454 81.1 43.3387 80.96 43.072 80.68C42.8054 80.4 42.672 80.0233 42.672 79.55V76.76ZM50.7659 75.57H50.4259C50.2525 75.57 50.1025 75.6133 49.9759 75.7C50.1825 75.9467 50.2859 76.27 50.2859 76.67V77.47C50.2859 77.9233 50.1492 78.28 49.8759 78.54C49.6025 78.7933 49.1892 78.9233 48.6359 78.93C48.2559 78.93 48.0659 79.1067 48.0659 79.46C48.0659 79.62 48.1159 79.7367 48.2159 79.81C48.3159 79.8833 48.4825 79.92 48.7159 79.92H49.3059C50.2192 79.92 50.6759 80.3067 50.6759 81.08V81.21C50.6759 82.0633 50.0725 82.49 48.8659 82.49H48.4559C47.7825 82.49 47.2625 82.3867 46.8959 82.18V81.5C47.3359 81.7467 47.8559 81.87 48.4559 81.87H48.8159C49.6025 81.87 49.9959 81.65 49.9959 81.21V81.11C49.9959 80.9167 49.9459 80.7733 49.8459 80.68C49.7525 80.58 49.5592 80.53 49.2659 80.53H48.6659C48.2659 80.53 47.9592 80.4567 47.7459 80.31C47.5325 80.1633 47.4259 79.95 47.4259 79.67V79.51C47.4259 79.3367 47.4725 79.1933 47.5659 79.08C47.6659 78.9667 47.7892 78.89 47.9359 78.85C47.2759 78.6633 46.9459 78.2033 46.9459 77.47V76.67C46.9459 76.2167 47.0825 75.86 47.3559 75.6C47.6359 75.34 48.0325 75.21 48.5459 75.21C49.0592 75.21 49.4459 75.3 49.7059 75.48C49.8392 75.08 50.1425 74.88 50.6159 74.88H50.7659V75.57ZM49.5759 77.47V76.67C49.5759 76.3833 49.4992 76.17 49.3459 76.03C49.1992 75.89 48.9559 75.82 48.6159 75.82C48.2759 75.82 48.0292 75.89 47.8759 76.03C47.7292 76.17 47.6559 76.3833 47.6559 76.67V77.47C47.6559 77.7567 47.7292 77.97 47.8759 78.11C48.0292 78.25 48.2759 78.32 48.6159 78.32C48.9559 78.32 49.1992 78.25 49.3459 78.11C49.4992 77.97 49.5759 77.7567 49.5759 77.47ZM51.9885 79.38V79.68C51.9885 79.9467 52.0518 80.1433 52.1785 80.27C52.3052 80.3967 52.5452 80.46 52.8985 80.46C53.2518 80.46 53.5852 80.33 53.8985 80.07V78.2L52.7585 78.52C52.4585 78.6067 52.2552 78.7133 52.1485 78.84C52.0418 78.9667 51.9885 79.1467 51.9885 79.38ZM52.8885 75.26C54.0218 75.26 54.5885 75.7433 54.5885 76.71V81H53.9085V80.59C53.5685 80.89 53.1618 81.04 52.6885 81.04C51.7618 81.04 51.2985 80.5833 51.2985 79.67V79.35C51.2985 78.6567 51.7018 78.1967 52.5085 77.97L53.9085 77.58V76.71C53.9018 76.4367 53.8252 76.2367 53.6785 76.11C53.5318 75.9833 53.2352 75.92 52.7885 75.92C52.3485 75.92 51.9418 75.9867 51.5685 76.12V75.45C51.9485 75.3233 52.3885 75.26 52.8885 75.26Z" fill="#5F6F66"/>
<defs>
<filter id="filter0_d_475_204" x="0" y="0" width="79" height="99" filterUnits="userSpaceOnUse" color-interpolation-filters="sRGB">
<feFlood flood-opacity="0" result="BackgroundImageFix"/>
<feColorMatrix in="SourceAlpha" type="matrix" values="0 0 0 0 0 0 0 0 0 0 0 0 0 0 0 0 0 0 127 0" result="hardAlpha"/>
<feOffset dy="4"/>
<feGaussianBlur stdDeviation="2"/>
<feComposite in2="hardAlpha" operator="out"/>
<feColorMatrix type="matrix" values="0 0 0 0 0 0 0 0 0 0 0 0 0 0 0 0 0 0 0.25 0"/>
<feBlend mode="normal" in2="BackgroundImageFix" result="effect1_dropShadow_475_204"/>
<feBlend mode="normal" in="SourceGraphic" in2="effect1_dropShadow_475_204" result="shape"/>
</filter>
<filter id="filter1_d_475_204" x="14" y="9" width="52" height="53" filterUnits="userSpaceOnUse" color-interpolation-filters="sRGB">
<feFlood flood-opacity="0" result="BackgroundImageFix"/>
<feColorMatrix in="SourceAlpha" type="matrix" values="0 0 0 0 0 0 0 0 0 0 0 0 0 0 0 0 0 0 127 0" result="hardAlpha"/>
<feOffset dy="4"/>
<feGaussianBlur stdDeviation="2"/>
<feComposite in2="hardAlpha" operator="out"/>
<feColorMatrix type="matrix" values="0 0 0 0 0 0 0 0 0 0 0 0 0 0 0 0 0 0 0.25 0"/>
<feBlend mode="normal" in2="BackgroundImageFix" result="effect1_dropShadow_475_204"/>
<feBlend mode="normal" in="SourceGraphic" in2="effect1_dropShadow_475_204" result="shape"/>
</filter>
</defs>
</svg>
