<svg width="79" height="99" viewBox="0 0 79 99" fill="none" xmlns="http://www.w3.org/2000/svg">
<g filter="url(#filter0_d_239_10)">
<rect x="4" width="71" height="91" rx="10" fill="#EDE8DF"/>
</g>
<path d="M20.024 73.32C20.024 72.78 19.739 72.51 19.169 72.51H18.26V77.433H19.169C19.739 77.433 20.024 77.157 20.024 76.605V73.32ZM17.621 71.952H19.205C19.685 71.952 20.048 72.075 20.294 72.321C20.54 72.567 20.663 72.897 20.663 73.311V76.623C20.663 77.049 20.543 77.385 20.303 77.631C20.063 77.877 19.703 78 19.223 78H17.621V71.952ZM24.3336 78L23.9646 76.308H22.3446L21.9756 78H21.3366L22.7046 71.952H23.6046L24.9726 78H24.3336ZM22.4616 75.75H23.8386L23.1456 72.573L22.4616 75.75ZM28.1989 71.952V72.519H27.0289V78H26.3809V72.519H25.2109V71.952H28.1989ZM31.4264 78L31.0574 76.308H29.4374L29.0684 78H28.4294L29.7974 71.952H30.6974L32.0654 78H31.4264ZM29.5544 75.75H30.9314L30.2384 72.573L29.5544 75.75Z" fill="#36463E"/>
<path d="M35.808 76.704V76.944C35.808 77.1573 35.8587 77.3147 35.96 77.416C36.0613 77.5173 36.2533 77.568 36.536 77.568C36.8187 77.568 37.0853 77.464 37.336 77.256V75.76L36.424 76.016C36.184 76.0853 36.0213 76.1707 35.936 76.272C35.8507 76.3733 35.808 76.5173 35.808 76.704ZM36.528 73.408C37.4347 73.408 37.888 73.7947 37.888 74.568V78H37.344V77.672C37.072 77.912 36.7467 78.032 36.368 78.032C35.6267 78.032 35.256 77.6667 35.256 76.936V76.68C35.256 76.1253 35.5787 75.7573 36.224 75.576L37.344 75.264V74.568C37.3387 74.3493 37.2773 74.1893 37.16 74.088C37.0427 73.9867 36.8053 73.936 36.448 73.936C36.096 73.936 35.7707 73.9893 35.472 74.096V73.56C35.776 73.4587 36.128 73.408 36.528 73.408ZM38.8704 74.56C38.8704 73.792 39.3184 73.408 40.2144 73.408C40.5451 73.408 40.8278 73.4453 41.0624 73.52V74.04C40.8064 73.9707 40.5291 73.936 40.2304 73.936C39.9318 73.936 39.7238 73.9893 39.6064 74.096C39.4944 74.1973 39.4384 74.3573 39.4384 74.576V76.88C39.4384 77.104 39.4944 77.2667 39.6064 77.368C39.7238 77.4693 39.9371 77.52 40.2464 77.52C40.5558 77.52 40.8331 77.4773 41.0784 77.392V77.928C40.7904 78.0027 40.5024 78.04 40.2144 78.04C39.3184 78.04 38.8704 77.6613 38.8704 76.904V74.56ZM43.3834 73.424H43.5834V73.968H43.3114C43.1194 73.968 42.946 74.0187 42.7914 74.12C42.7434 74.152 42.6394 74.224 42.4794 74.336V78H41.9114V73.448H42.4554V73.792C42.4714 73.7813 42.5114 73.752 42.5754 73.704C42.6447 73.656 42.6847 73.6293 42.6954 73.624C42.7114 73.6133 42.746 73.592 42.7994 73.56C42.858 73.528 42.9007 73.5093 42.9274 73.504C42.9594 73.4933 43.002 73.48 43.0554 73.464C43.1354 73.4373 43.2447 73.424 43.3834 73.424ZM46.129 74.616C46.129 74.12 45.8837 73.872 45.393 73.872C44.9023 73.872 44.657 74.12 44.657 74.616V76.832C44.657 77.3333 44.9023 77.584 45.393 77.584C45.8837 77.584 46.129 77.3333 46.129 76.832V74.616ZM44.097 74.608C44.097 74.2293 44.2037 73.928 44.417 73.704C44.6303 73.48 44.9557 73.368 45.393 73.368C45.8303 73.368 46.1557 73.48 46.369 73.704C46.5823 73.928 46.689 74.2293 46.689 74.608V76.84C46.689 77.2187 46.5823 77.52 46.369 77.744C46.1557 77.968 45.8303 78.08 45.393 78.08C44.9557 78.08 44.6303 77.968 44.417 77.744C44.2037 77.52 44.097 77.2187 44.097 76.84V74.608ZM49.5561 73.448H50.1241L48.8761 79.192H48.3321L48.5801 78H48.3001L47.3081 73.448H47.8841L48.3641 75.712L48.7161 77.6C48.8227 76.9707 48.9401 76.3413 49.0681 75.712L49.5561 73.448ZM52.7696 74.616C52.7696 74.12 52.5243 73.872 52.0336 73.872C51.543 73.872 51.2976 74.12 51.2976 74.616V76.832C51.2976 77.3333 51.543 77.584 52.0336 77.584C52.5243 77.584 52.7696 77.3333 52.7696 76.832V74.616ZM50.7376 74.608C50.7376 74.2293 50.8443 73.928 51.0576 73.704C51.271 73.48 51.5963 73.368 52.0336 73.368C52.471 73.368 52.7963 73.48 53.0096 73.704C53.223 73.928 53.3296 74.2293 53.3296 74.608V76.84C53.3296 77.2187 53.223 77.52 53.0096 77.744C52.7963 77.968 52.471 78.08 52.0336 78.08C51.5963 78.08 51.271 77.968 51.0576 77.744C50.8443 77.52 50.7376 77.2187 50.7376 76.84V74.608ZM57.2127 73.656H56.9407C56.802 73.656 56.682 73.6907 56.5807 73.76C56.746 73.9573 56.8287 74.216 56.8287 74.536V75.176C56.8287 75.5387 56.7194 75.824 56.5007 76.032C56.282 76.2347 55.9514 76.3387 55.5087 76.344C55.2047 76.344 55.0527 76.4853 55.0527 76.768C55.0527 76.896 55.0927 76.9893 55.1727 77.048C55.2527 77.1067 55.386 77.136 55.5727 77.136H56.0447C56.7754 77.136 57.1407 77.4453 57.1407 78.064V78.168C57.1407 78.8507 56.658 79.192 55.6927 79.192H55.3647C54.826 79.192 54.41 79.1093 54.1167 78.944V78.4C54.4687 78.5973 54.8847 78.696 55.3647 78.696H55.6527C56.282 78.696 56.5967 78.52 56.5967 78.168V78.088C56.5967 77.9333 56.5567 77.8187 56.4767 77.744C56.402 77.664 56.2474 77.624 56.0127 77.624H55.5327C55.2127 77.624 54.9674 77.5653 54.7967 77.448C54.626 77.3307 54.5407 77.16 54.5407 76.936V76.808C54.5407 76.6693 54.578 76.5547 54.6527 76.464C54.7327 76.3733 54.8314 76.312 54.9487 76.28C54.4207 76.1307 54.1567 75.7627 54.1567 75.176V74.536C54.1567 74.1733 54.266 73.888 54.4847 73.68C54.7087 73.472 55.026 73.368 55.4367 73.368C55.8474 73.368 56.1567 73.44 56.3647 73.584C56.4714 73.264 56.714 73.104 57.0927 73.104H57.2127V73.656ZM56.2607 75.176V74.536C56.2607 74.3067 56.1994 74.136 56.0767 74.024C55.9594 73.912 55.7647 73.856 55.4927 73.856C55.2207 73.856 55.0234 73.912 54.9007 74.024C54.7834 74.136 54.7247 74.3067 54.7247 74.536V75.176C54.7247 75.4053 54.7834 75.576 54.9007 75.688C55.0234 75.8 55.2207 75.856 55.4927 75.856C55.7647 75.856 55.9594 75.8 56.0767 75.688C56.1994 75.576 56.2607 75.4053 56.2607 75.176ZM58.1908 76.704V76.944C58.1908 77.1573 58.2415 77.3147 58.3428 77.416C58.4441 77.5173 58.6361 77.568 58.9188 77.568C59.2015 77.568 59.4681 77.464 59.7188 77.256V75.76L58.8068 76.016C58.5668 76.0853 58.4041 76.1707 58.3188 76.272C58.2335 76.3733 58.1908 76.5173 58.1908 76.704ZM58.9108 73.408C59.8175 73.408 60.2708 73.7947 60.2708 74.568V78H59.7268V77.672C59.4548 77.912 59.1295 78.032 58.7508 78.032C58.0095 78.032 57.6388 77.6667 57.6388 76.936V76.68C57.6388 76.1253 57.9615 75.7573 58.6068 75.576L59.7268 75.264V74.568C59.7215 74.3493 59.6601 74.1893 59.5428 74.088C59.4255 73.9867 59.1881 73.936 58.8308 73.936C58.4788 73.936 58.1535 73.9893 57.8548 74.096V73.56C58.1588 73.4587 58.5108 73.408 58.9108 73.408Z" fill="#36463E"/>
<path d="M23.3497 31.8405C23.0141 31.3665 27.7413 23.3091 27.6294 22.8631C27.5176 22.417 20.9441 32.0078 22.1469 33.1787C22.9281 33.9393 26.8008 32.9827 29.4196 32.1653C29.4196 32.1653 30.1749 31.7474 30.3963 31.8479C31.2897 31.5453 31.8812 31.3064 31.8812 31.255C31.8812 31.0598 23.6854 32.3145 23.3497 31.8405Z" fill="#36463E"/>
<path d="M29.7833 36.4965C29.8392 36.2177 30.3986 32.3981 30.4546 31.9799C30.464 31.9097 30.441 31.8682 30.3963 31.8479C30.1004 31.9482 29.7713 32.0555 29.4196 32.1653C29.9791 32.8721 26.8742 39.8143 26.7903 40.4834C26.7064 41.1525 26.8742 42.658 27.014 43.3272C27.1539 43.9963 27.6574 40.8737 27.7133 40.567C27.7693 40.2603 29.7273 36.7753 29.7833 36.4965Z" fill="#36463E"/>
<path d="M28.5805 45.1673C28.5805 44.8048 29.1399 46.7286 29.2518 47.2862C29.3637 47.8438 29.3637 48.708 29.2518 49.0984C29.1399 49.4887 27.7693 55.0369 28.021 55.5666C28.2728 56.0963 28.3847 55.8175 28.5805 56.0684C28.7763 56.3194 29.028 56.5424 29.0001 56.7654C28.9721 56.9885 28.3567 57.1 28.1889 56.9885C28.021 56.877 27.2378 55.2042 27.3497 54.7581C27.4616 54.312 28.5805 48.4292 28.5805 47.7044V45.1673Z" fill="#36463E"/>
<path d="M27.5735 56.7654C27.7973 56.5424 24.1889 57.7134 24.1889 57.7134C24.1889 57.7134 23.6492 57.8741 23.5176 58.1595C23.4126 58.387 23.3777 58.6892 23.5176 58.8007C23.6574 58.9122 35.8811 58.968 36.3567 59.0795C36.8322 59.191 43.3496 59.8044 43.8252 59.8323C44.3007 59.8602 47.965 59.7208 48.8881 59.665C49.8112 59.6092 48.7762 59.3025 46.4825 58.8007C44.1888 58.2989 25.5875 58.6055 25.3357 58.5219C25.084 58.4383 24.6364 58.3546 24.9162 58.1595C25.1959 57.9643 27.3497 56.9885 27.5735 56.7654Z" fill="#36463E"/>
<path d="M29.7273 57.8807C29.8392 57.7691 30.3707 57.5577 30.8182 57.4903C31.1639 57.4383 32.021 57.2673 31.7133 57.4903C31.4056 57.7134 31.3217 57.9643 31.07 57.9643C30.8182 57.9643 29.6154 57.9922 29.7273 57.8807Z" fill="#36463E"/>
<path d="M35.9091 53.8938C36.3287 53.5035 40.9161 52.7228 40.7203 53.0016C40.5245 53.2804 39.0979 54.1447 38.5105 53.8938C37.9231 53.6429 35.4895 54.2841 35.9091 53.8938Z" fill="#36463E"/>
<path d="M42.0909 52.6949C42.4825 52.7507 45.5594 53.3083 46.4825 53.7823C47.4056 54.2562 47.4895 55.8454 47.7972 56.3194C48.1049 56.7933 46.1189 59.0237 46.8461 56.403C47.5734 53.7823 41.6993 52.6392 42.0909 52.6949Z" fill="#36463E"/>
<path d="M49.1119 58.2152C48.972 58.5219 49.3636 56.0406 49.5874 55.7339C49.8112 55.4272 52.1888 55.7896 51.965 55.8175C51.7412 55.8454 50.4265 55.9569 50.3426 56.0406C50.2587 56.1242 49.2517 57.9085 49.1119 58.2152Z" fill="#36463E"/>
<path d="M52.1049 55.929C52.3007 55.8175 56.8601 56.4588 56.972 57.6019C57.0839 58.7449 56.8321 60.0274 56.7202 59.9996C56.6083 59.9717 56.2447 59.7486 56.2727 59.4698C56.3006 59.191 56.7482 58.9401 56.6363 58.1595C56.5244 57.3788 51.9091 56.0406 52.1049 55.929Z" fill="#36463E"/>
<path d="M36.3567 57.1837C36.3567 57.1837 41.3077 55.706 42.5664 55.6781C43.8252 55.6502 44.0769 56.18 44.3287 56.3194C44.5804 56.4588 43.2378 56.18 42.4825 56.3194C41.7273 56.4588 39.042 57.3231 38.1748 57.3788C37.3077 57.4346 36.3846 57.2673 36.3287 57.2394C36.2728 57.2115 36.3567 57.1837 36.3567 57.1837Z" fill="#36463E"/>
<path d="M30.3427 38.699L30.5945 46.2546C30.6928 49.2052 31.4593 48.4705 31.5455 49.9627C31.6015 50.9323 31.3777 52.1931 31.3777 52.444C31.3777 52.6949 32.6364 51.1336 32.4965 49.9627C32.3567 48.7917 31.8662 47.9711 31.5455 46.6728C30.7901 43.6152 30.2444 35.7484 30.3427 38.699Z" fill="#36463E"/>
<path d="M23.9092 21.1345C24.1609 20.9672 24.9162 20.7999 24.9162 20.7999C24.9162 20.7999 26.5385 20.6048 26.3987 20.7999C26.2588 20.9951 25.8392 21.6921 25.4196 22.1103C25.0001 22.5285 24.3008 21.9709 24.3008 21.9709C24.3008 21.9709 23.6574 21.3018 23.9092 21.1345Z" fill="#36463E"/>
<path d="M34.6784 29.7216C34.6784 29.7216 36.5923 28.7605 37.9231 28.6343L37.9651 28.6303C38.4943 28.58 38.8134 28.5496 39.3497 28.6343C39.882 28.7183 40.7483 28.9688 40.6643 29.0525C40.6643 29.0525 40.526 29.3194 40.3846 29.4428C40.0521 29.7328 39.5734 29.7871 39.2657 29.6101C38.9581 29.433 38.5819 29.3333 38.1189 29.2755C37.6307 29.2146 37.3479 29.2662 36.8602 29.3313C36.2693 29.4101 35.9706 29.6327 35.3776 29.6937C35.1058 29.7217 34.6784 29.7216 34.6784 29.7216Z" fill="#36463E"/>
<path d="M31.5175 34.3218C31.6854 34.1546 36.021 30.084 36.2728 29.9725C36.5245 29.861 35.9651 29.7774 35.9651 29.7774C35.9651 29.7774 34.8966 30.0114 34.2867 30.335C32.6097 31.2248 31.3497 34.4891 31.5175 34.3218Z" fill="#36463E"/>
<path d="M29.028 25.3444C29.084 25.2886 30.2308 22.3891 30.2308 22.1103C30.2308 21.8315 29.2798 22.1103 29.2798 22.1103C29.2798 22.1103 28.9627 22.7543 28.8602 23.1976C28.6687 24.0258 28.9095 25.3581 28.9441 25.3723C28.9787 25.3865 28.9721 25.4002 29.028 25.3444Z" fill="#36463E"/>
<path d="M29.028 27.7979C29.2798 28.0209 30.7063 28.4112 30.9021 28.0209C31.0979 27.6306 31.07 26.6826 31.8812 26.2366C32.6923 25.7905 33.9637 25.8901 35.1818 25.3444C36.2654 24.8589 36.8836 24.5319 37.7553 23.7273C38.0955 23.4133 38.4011 23.2949 38.5664 22.8631C38.7747 22.3192 38.5664 21.9709 38.3706 21.3854C38.1748 20.7999 36.5525 23.6437 36.1609 23.811C35.7693 23.9783 34.6996 24.4211 33.7273 24.7032C32.4767 25.0659 31.07 25.0377 30.4546 25.3444C29.8392 25.6511 28.7763 27.5748 29.028 27.7979Z" fill="#36463E"/>
<path d="M29.4196 20.7999C29.5595 20.4654 35.2937 20.2144 36.2728 19.9077C37.2518 19.6011 40.3287 18.458 40.8042 18.3186C41.2797 18.1792 43.4056 18.4859 43.5734 18.681C43.7413 18.8762 44.3287 20.2981 43.7413 19.9077C43.1538 19.5174 42.3986 19.1271 41.7832 19.155C41.1678 19.1829 37.5315 20.3817 36.8602 20.549C36.1888 20.7163 29.2798 21.1345 29.4196 20.7999Z" fill="#36463E"/>
<path d="M41.3916 26.4596C41.7832 26.3202 42.3427 26.2087 42.4545 25.7905C42.5664 25.3723 42.3476 24.3797 42.8462 23.7273C43.2244 23.2324 43.6932 23.2413 44.1888 22.8631C44.3676 22.7266 44.5519 22.7087 44.6364 22.5006C44.772 22.1663 44.5199 21.8374 44.1888 21.6921C43.9689 21.5956 43.7413 21.3854 43.5734 21.6921C43.4056 21.9988 42.6034 22.4082 42.1748 23.0303C41.3948 24.1626 41 26.599 41.3916 26.4596Z" fill="#36463E"/>
<path d="M42.8462 17.3428C43.2098 17.1476 43.1824 16.2558 43.7413 15.893C44.192 15.6003 44.5477 15.5428 45.0839 15.5863C46.2858 15.6838 46.6442 16.7687 47.1818 17.8446C47.8573 19.1965 47.846 21.2739 47.5734 21.6921C47.3008 22.1103 46.2867 22.5006 46.7342 22.5006C47.1818 22.5006 47.6853 22.64 47.965 22.5006C48.2447 22.3612 48.4031 20.3177 48.1328 18.9598C47.876 17.6694 47.7339 16.7521 46.7342 15.893C46.1349 15.3779 45.7069 15.0303 44.9161 15.0008C44.376 14.9807 43.5734 15.3354 43.5734 15.3354C43.5734 15.3354 42.4825 17.5379 42.8462 17.3428Z" fill="#36463E"/>
<defs>
<filter id="filter0_d_239_10" x="0" y="0" width="79" height="99" filterUnits="userSpaceOnUse" color-interpolation-filters="sRGB">
<feFlood flood-opacity="0" result="BackgroundImageFix"/>
<feColorMatrix in="SourceAlpha" type="matrix" values="0 0 0 0 0 0 0 0 0 0 0 0 0 0 0 0 0 0 127 0" result="hardAlpha"/>
<feOffset dy="4"/>
<feGaussianBlur stdDeviation="2"/>
<feComposite in2="hardAlpha" operator="out"/>
<feColorMatrix type="matrix" values="0 0 0 0 0 0 0 0 0 0 0 0 0 0 0 0 0 0 0.25 0"/>
<feBlend mode="normal" in2="BackgroundImageFix" result="effect1_dropShadow_239_10"/>
<feBlend mode="normal" in="SourceGraphic" in2="effect1_dropShadow_239_10" result="shape"/>
</filter>
</defs>
</svg>
