<?xml version="1.0" encoding="UTF-8" standalone="no"?>
<svg
   width="79"
   height="99"
   viewBox="0 0 79 99"
   fill="none"
   version="1.1"
   id="svg23"
   sodipodi:docname="cartaVacia.svg"
   inkscape:version="1.4.2 (f4327f4, 2025-05-13)"
   xmlns:inkscape="http://www.inkscape.org/namespaces/inkscape"
   xmlns:sodipodi="http://sodipodi.sourceforge.net/DTD/sodipodi-0.dtd"
   xmlns="http://www.w3.org/2000/svg"
   xmlns:svg="http://www.w3.org/2000/svg">
  <sodipodi:namedview
     id="namedview23"
     pagecolor="#ffffff"
     bordercolor="#000000"
     borderopacity="0.25"
     inkscape:showpageshadow="2"
     inkscape:pageopacity="0.0"
     inkscape:pagecheckerboard="0"
     inkscape:deskcolor="#d1d1d1"
     inkscape:zoom="2.8819958"
     inkscape:cx="44.587157"
     inkscape:cy="67.140972"
     inkscape:window-width="1920"
     inkscape:window-height="1009"
     inkscape:window-x="-8"
     inkscape:window-y="-8"
     inkscape:window-maximized="1"
     inkscape:current-layer="svg23" />
  <g
     filter="url(#filter0_d_239_10)"
     id="g1"
     transform="matrix(1.3250209,0,0,1.1962725,-13.185306,-4.8577447)">
    <rect
       x="4"
       width="71"
       height="91"
       rx="10"
       fill="#ede8df"
       id="rect1"
       y="0" />
  </g>
  <path
     d="m 13.346911,82.852955 c 0,-0.645987 -0.377631,-0.968981 -1.132893,-0.968981 h -1.204444 v 5.88925 h 1.204444 c 0.755262,0 1.132893,-0.330171 1.132893,-0.990514 z m -3.184025,-1.636501 h 2.098833 c 0.63601,0 1.116993,0.147142 1.442948,0.441425 0.325955,0.294283 0.488933,0.689053 0.488933,1.18431 v 3.962054 c 0,0.509612 -0.159003,0.91156 -0.477008,1.205843 -0.318005,0.294283 -0.795012,0.441425 -1.431023,0.441425 h -2.122683 z m 8.894336,7.235057 -0.488933,-2.024094 h -2.146534 l -0.488933,2.024094 h -0.846688 l 1.812628,-7.235057 h 1.192519 l 1.812629,7.235057 z m -2.48044,-2.691614 h 1.824554 L 17.483097,81.95934 Z m 7.602043,-4.543443 v 0.678287 h -1.550274 v 6.55677 h -0.858614 v -6.55677 h -1.550275 v -0.678287 z m 4.276505,7.235057 -0.488932,-2.024094 h -2.146534 l -0.488933,2.024094 h -0.846688 l 1.812628,-7.235057 h 1.192519 l 1.812629,7.235057 z m -2.480439,-2.691614 h 1.824554 l -0.91824,-3.800557 z"
     fill="#36463e"
     id="path1"
     style="stroke-width:1.259" />
  <path
     d="m 34.261042,86.901141 v 0.287106 c 0,0.255165 0.06718,0.443458 0.201403,0.56464 0.134225,0.121183 0.388629,0.181834 0.763212,0.181834 0.374583,0 0.727834,-0.124412 1.060017,-0.373237 V 85.77186 l -1.208419,0.306246 c -0.318005,0.0829 -0.533586,0.185063 -0.64661,0.306246 -0.113025,0.121182 -0.169603,0.293445 -0.169603,0.516789 z m 0.954015,-3.942914 c 1.201396,0 1.802028,0.462599 1.802028,1.387676 v 4.105608 h -0.720811 v -0.392378 c -0.360406,0.287106 -0.791435,0.430658 -1.29322,0.430658 -0.982238,0 -1.473424,-0.436998 -1.473424,-1.311114 v -0.306246 c 0,-0.663573 0.427585,-1.103801 1.282621,-1.320685 l 1.484023,-0.373237 v -0.832606 c -0.007,-0.261624 -0.08838,-0.453028 -0.243804,-0.574211 -0.155425,-0.121182 -0.469985,-0.181833 -0.943415,-0.181833 -0.466407,0 -0.897436,0.06376 -1.29322,0.191404 v -0.641202 c 0.402806,-0.121183 0.869214,-0.181834 1.399222,-0.181834 z m 3.103729,1.378106 c 0,-0.918737 0.593609,-1.378106 1.780828,-1.378106 0.438184,0 0.812768,0.04462 1.123618,0.133983 v 0.622061 c -0.339206,-0.0829 -0.706634,-0.124412 -1.102418,-0.124412 -0.395651,0 -0.671255,0.06376 -0.826813,0.191404 -0.148402,0.121182 -0.222603,0.312586 -0.222603,0.57421 v 2.756212 c 0,0.267965 0.0742,0.462599 0.222603,0.583781 0.155558,0.121183 0.438185,0.181834 0.848014,0.181834 0.409961,0 0.777389,-0.05108 1.102417,-0.153123 v 0.641202 c -0.381606,0.08936 -0.763212,0.133982 -1.144818,0.133982 -1.187219,0 -1.780828,-0.453028 -1.780828,-1.358965 z m 5.979819,-1.358965 h 0.265004 v 0.650772 h -0.360405 c -0.254404,0 -0.484163,0.06065 -0.689011,0.181833 -0.0636,0.03828 -0.201403,0.124413 -0.413407,0.258395 v 4.383143 h -0.752612 v -5.445433 h 0.720812 v 0.411518 c 0.0212,-0.0128 0.0742,-0.04785 0.159002,-0.105272 0.09182,-0.05742 0.144825,-0.08936 0.159003,-0.0957 0.0212,-0.0128 0.06705,-0.03828 0.137802,-0.07656 0.07765,-0.03828 0.134225,-0.06065 0.169603,-0.06699 0.0424,-0.0128 0.09885,-0.02871 0.169602,-0.04785 0.106002,-0.03194 0.250827,-0.04785 0.434607,-0.04785 z m 3.637978,1.425956 c 0,-0.593351 -0.325028,-0.890026 -0.975216,-0.890026 -0.650188,0 -0.975215,0.296675 -0.975215,0.890026 v 2.65094 c 0,0.599692 0.325027,0.899597 0.975215,0.899597 0.650188,0 0.975216,-0.299905 0.975216,-0.899597 z m -2.692443,-0.0096 c 0,-0.453028 0.14138,-0.813465 0.424007,-1.08143 0.282627,-0.267965 0.713788,-0.401948 1.29322,-0.401948 0.579432,0 1.010594,0.133983 1.293221,0.401948 0.282626,0.267965 0.424006,0.628402 0.424006,1.08143 v 2.67008 c 0,0.453029 -0.14138,0.813466 -0.424006,1.081431 -0.282627,0.267965 -0.713789,0.401947 -1.293221,0.401947 -0.579432,0 -1.010593,-0.133982 -1.29322,-0.401947 C 45.38552,87.87727 45.24414,87.516833 45.24414,87.063804 Z m 7.233422,-1.387676 h 0.752611 l -1.653626,6.871389 h -0.720811 l 0.328605,-1.425956 h -0.371006 l -1.31442,-5.445433 h 0.763212 l 0.63601,2.708361 0.466407,2.258563 c 0.141247,-0.752815 0.296805,-1.505749 0.466407,-2.258563 z m 4.257954,1.397246 c 0,-0.593351 -0.325027,-0.890026 -0.975215,-0.890026 -0.650055,0 -0.975215,0.296675 -0.975215,0.890026 v 2.65094 c 0,0.599692 0.32516,0.899597 0.975215,0.899597 0.650188,0 0.975215,-0.299905 0.975215,-0.899597 z m -2.692442,-0.0096 c 0,-0.453028 0.14138,-0.813465 0.424006,-1.08143 0.28276,-0.267965 0.713789,-0.401948 1.293221,-0.401948 0.579564,0 1.010593,0.133983 1.29322,0.401948 0.28276,0.267965 0.424007,0.628402 0.424007,1.08143 v 2.67008 c 0,0.453029 -0.141247,0.813466 -0.424007,1.081431 -0.282627,0.267965 -0.713656,0.401947 -1.29322,0.401947 -0.579432,0 -1.010461,-0.133982 -1.293221,-0.401947 -0.282626,-0.267905 -0.424006,-0.628342 -0.424006,-1.081371 z m 8.579643,-1.138851 h -0.360406 c -0.18378,0 -0.342783,0.04151 -0.477008,0.124412 0.219026,0.236025 0.328606,0.5455 0.328606,0.928308 v 0.765614 c 0,0.433888 -0.144825,0.775185 -0.434607,1.024009 -0.289782,0.242485 -0.727834,0.366897 -1.314421,0.373237 -0.402806,0 -0.60421,0.169034 -0.60421,0.50722 0,0.153123 0.053,0.264735 0.159003,0.334956 0.106002,0.07022 0.282627,0.105272 0.530008,0.105272 h 0.62541 c 0.968193,0 1.452223,0.370007 1.452223,1.110141 v 0.124412 c 0,0.816696 -0.639587,1.224983 -1.91863,1.224983 h -0.434607 c -0.713789,0 -1.264997,-0.09893 -1.653626,-0.296675 V 88.92996 c 0.466407,0.236024 1.017616,0.354096 1.653626,0.354096 h 0.381606 c 0.833836,0 1.25082,-0.210544 1.25082,-0.631632 v -0.0957 c 0,-0.185064 -0.053,-0.322157 -0.159003,-0.411518 -0.09898,-0.0957 -0.303827,-0.143553 -0.614809,-0.143553 h -0.636011 c -0.424006,0 -0.749034,-0.07022 -0.975215,-0.210544 -0.226181,-0.140323 -0.339205,-0.344526 -0.339205,-0.612491 v -0.153123 c 0,-0.165923 0.04942,-0.303016 0.148402,-0.411518 0.106002,-0.108502 0.236781,-0.181833 0.392206,-0.220114 -0.699611,-0.178604 -1.049416,-0.618832 -1.049416,-1.320685 v -0.765614 c 0,-0.433888 0.144825,-0.775185 0.434607,-1.02401 0.296804,-0.248824 0.717233,-0.373237 1.261419,-0.373237 0.544187,0 0.954016,0.08613 1.22962,0.258395 0.14138,-0.382807 0.46283,-0.574211 0.964615,-0.574211 h 0.159003 z m -1.26142,1.818334 v -0.765614 c 0,-0.274306 -0.08122,-0.478509 -0.243804,-0.612492 -0.155425,-0.133982 -0.413407,-0.200974 -0.773812,-0.200974 -0.360406,0 -0.621833,0.06699 -0.784413,0.200974 -0.155425,0.133983 -0.233203,0.338186 -0.233203,0.612492 v 0.765614 c 0,0.274305 0.07778,0.478509 0.233203,0.612492 0.16258,0.133982 0.424007,0.200973 0.784413,0.200973 0.360405,0 0.618387,-0.06699 0.773812,-0.200973 0.16258,-0.133983 0.243804,-0.338187 0.243804,-0.612492 z m 2.557423,1.827904 v 0.287106 c 0,0.255165 0.06718,0.443458 0.201403,0.56464 0.134224,0.121183 0.388628,0.181834 0.763212,0.181834 0.374583,0 0.727834,-0.124412 1.060016,-0.373237 V 85.7718 l -1.208419,0.306246 c -0.318005,0.0829 -0.533586,0.185063 -0.64661,0.306246 -0.113024,0.121182 -0.169602,0.293445 -0.169602,0.516789 z m 0.954015,-3.942914 c 1.201396,0 1.802028,0.462599 1.802028,1.387676 v 4.105608 h -0.720811 v -0.392378 c -0.360406,0.287106 -0.791435,0.430658 -1.293221,0.430658 -0.982238,0 -1.473423,-0.436998 -1.473423,-1.311114 v -0.306246 c 0,-0.663573 0.427584,-1.103801 1.28262,-1.320685 l 1.484024,-0.373237 v -0.832606 c -0.007,-0.261624 -0.08838,-0.453028 -0.243804,-0.574211 -0.155425,-0.121182 -0.469985,-0.181833 -0.943415,-0.181833 -0.466407,0 -0.897437,0.06376 -1.29322,0.191404 v -0.641202 c 0.402806,-0.121183 0.869213,-0.181834 1.399222,-0.181834 z"
     fill="#36463e"
     id="path2"
     style="stroke-width:1.259" />
  <path
     d="m 17.753534,33.232169 c -0.444677,-0.567033 5.818962,-10.205879 5.670692,-10.739416 -0.148137,-0.533657 -8.858163,10.939553 -7.264428,12.340268 1.035107,0.909885 6.166515,-0.234469 9.63648,-1.212302 0,0 1.000789,-0.499923 1.294148,-0.379697 1.183774,-0.361992 1.967524,-0.647782 1.967524,-0.70927 0,-0.233512 -10.859607,1.267451 -11.304416,0.700417 z"
     fill="#36463e"
     id="path3"
     style="stroke-width:1.259" />
  <path
     d="m 26.278188,38.802014 c 0.07407,-0.33352 0.815286,-4.902803 0.889487,-5.403084 0.01246,-0.08398 -0.01802,-0.133624 -0.07725,-0.157908 -0.392073,0.119986 -0.828138,0.248346 -1.294148,0.379697 0.74135,0.845525 -3.372708,9.150288 -3.483878,9.950714 -0.111169,0.800426 0.11117,2.601414 0.296408,3.40196 0.185371,0.800426 0.852519,-2.935055 0.926587,-3.301951 0.0742,-0.366897 2.668592,-4.535907 2.742794,-4.869428 z"
     fill="#36463e"
     id="path4"
     style="stroke-width:1.259" />
  <path
     d="m 24.684453,49.174654 c 0,-0.433649 0.741217,1.86774 0.889487,2.534782 0.14827,0.667041 0.14827,1.70086 0,2.167885 -0.14827,0.466905 -1.964344,7.104064 -1.630836,7.73773 0.33364,0.633665 0.48191,0.300145 0.741349,0.600289 0.259439,0.300265 0.592947,0.567033 0.555979,0.833802 -0.0371,0.266889 -0.852518,0.400273 -1.074857,0.266889 -0.222471,-0.133385 -1.260227,-2.134509 -1.111957,-2.668167 0.148269,-0.533657 1.630835,-7.571089 1.630835,-8.438147 z"
     fill="#36463e"
     id="path5"
     style="stroke-width:1.259" />
  <path
     d="m 23.350157,63.049142 c 0.29654,-0.266769 -4.484666,1.134067 -4.484666,1.134067 0,0 -0.715114,0.192241 -0.889486,0.533657 -0.139128,0.272152 -0.185371,0.633665 0,0.76705 0.185238,0.133384 16.381896,0.200136 17.012076,0.33352 0.630047,0.133385 9.265738,0.867178 9.895918,0.900554 0.630048,0.03338 5.485322,-0.133384 6.708449,-0.200136 1.223126,-0.06675 -0.14827,-0.433649 -3.187471,-1.033938 -3.0392,-0.60029 -27.686312,-0.233513 -28.019952,-0.333521 -0.333508,-0.100008 -0.926587,-0.200136 -0.555846,-0.433529 0.370608,-0.233513 3.224439,-1.400835 3.520978,-1.667724 z"
     fill="#36463e"
     id="path6"
     style="stroke-width:1.259" />
  <path
     d="m 26.203987,64.383345 c 0.14827,-0.133504 0.852519,-0.386396 1.445466,-0.467025 0.458059,-0.06221 1.593735,-0.266769 1.186026,0 -0.407709,0.266889 -0.518878,0.567033 -0.852386,0.567033 -0.33364,0 -1.927376,0.03338 -1.779106,-0.100008 z"
     fill="#36463e"
     id="path7"
     style="stroke-width:1.259" />
  <path
     d="m 34.395001,59.613926 c 0.555979,-0.466905 6.63438,-1.400835 6.374941,-1.067314 -0.259439,0.333521 -2.149714,1.367459 -2.928031,1.067314 -0.778317,-0.300145 -4.002888,0.466905 -3.44691,0 z"
     fill="#36463e"
     id="path8"
     style="stroke-width:1.259" />
  <path
     d="m 42.586016,58.179715 c 0.518878,0.06675 4.595835,0.733794 5.818961,1.300827 1.223127,0.566913 1.334296,2.46803 1.742005,3.035063 0.407709,0.566913 -2.223782,3.235079 -1.260227,0.100008 0.963688,-3.135071 -6.819618,-4.50253 -6.300739,-4.435898 z"
     fill="#36463e"
     id="path9"
     style="stroke-width:1.259" />
  <path
     d="m 51.888987,64.783498 c -0.18537,0.366897 0.333508,-2.601414 0.630048,-2.968311 0.296539,-0.366897 3.446909,0.06663 3.150369,0.100009 -0.296539,0.03338 -2.038544,0.16676 -2.149713,0.266888 -0.11117,0.100008 -1.445466,2.234517 -1.630704,2.601414 z"
     fill="#36463e"
     id="path10"
     style="stroke-width:1.259" />
  <path
     d="m 55.854775,62.04858 c 0.259439,-0.133384 6.300739,0.633785 6.449009,2.001244 0.14827,1.36734 -0.18537,2.901559 -0.33364,2.868303 -0.14827,-0.03338 -0.630048,-0.300265 -0.592947,-0.633785 0.03697,-0.333521 0.630047,-0.633666 0.481778,-1.567476 -0.14827,-0.93393 -6.263639,-2.534782 -6.0042,-2.668286 z"
     fill="#36463e"
     id="path11"
     style="stroke-width:1.259" />
  <path
     d="m 34.988081,63.549543 c 0,0 6.560178,-1.767732 8.227982,-1.801108 1.667936,-0.03338 2.001444,0.600409 2.335084,0.76717 0.333508,0.16676 -1.445465,-0.166761 -2.446253,0 -1.000656,0.16676 -4.558735,1.200698 -5.707793,1.267331 -1.148925,0.06675 -2.372052,-0.133385 -2.446121,-0.166761 -0.07407,-0.03338 0.0371,-0.06663 0.0371,-0.06663 z"
     fill="#36463e"
     id="path12"
     style="stroke-width:1.259" />
  <path
     d="m 27.019405,41.436804 0.33364,9.038557 c 0.13025,3.529722 1.145878,2.65082 1.260095,4.435898 0.0742,1.159906 -0.222338,2.668166 -0.222338,2.968311 0,0.300145 1.667804,-1.567595 1.482433,-2.968311 -0.185238,-1.400835 -0.835161,-2.382496 -1.260095,-3.935617 -1.00092,-3.657723 -1.723984,-13.068559 -1.593735,-9.538838 z"
     fill="#36463e"
     id="path13"
     style="stroke-width:1.259" />
  <path
     d="m 18.494883,20.424876 c 0.333508,-0.200136 1.334296,-0.400273 1.334296,-0.400273 0,0 2.149581,-0.233392 1.964343,0 -0.18537,0.233513 -0.741349,1.067315 -1.297328,1.567596 -0.555846,0.500281 -1.482433,-0.16676 -1.482433,-0.16676 0,0 -0.852518,-0.800426 -0.518878,-1.000563 z"
     fill="#36463e"
     id="path14"
     style="stroke-width:1.259" />
  <path
     d="m 32.764298,30.697388 c 0,0 2.535958,-1.149738 4.299296,-1.300707 l 0.05565,-0.0048 c 0.701201,-0.06017 1.124016,-0.09654 1.834624,0.0048 0.705309,0.100486 1.853175,0.400153 1.741873,0.500281 0,0 -0.183251,0.319285 -0.370609,0.466905 -0.440569,0.346919 -1.074856,0.411876 -1.482565,0.200136 -0.407577,-0.21186 -0.90605,-0.331128 -1.519534,-0.400273 -0.646876,-0.07285 -1.021591,-0.01112 -1.667804,0.06675 -0.782955,0.09427 -1.178739,0.360557 -1.964476,0.43353 -0.360141,0.0335 -0.926455,0.03338 -0.926455,0.03338 z"
     fill="#36463e"
     id="path15"
     style="stroke-width:1.259" />
  <path
     d="m 28.57604,36.20048 c 0.222471,-0.200016 5.967231,-5.069563 6.300872,-5.202948 0.333507,-0.133384 -0.407709,-0.233392 -0.407709,-0.233392 0,0 -1.415785,0.279927 -2.223915,0.667041 -2.22206,1.064443 -3.891587,4.969436 -3.669248,4.769299 z"
     fill="#36463e"
     id="path16"
     style="stroke-width:1.259" />
  <path
     d="m 25.2774,25.461064 c 0.0742,-0.06675 1.593735,-3.535344 1.593735,-3.868865 0,-0.333521 -1.260095,0 -1.260095,0 0,0 -0.420164,0.770399 -0.555978,1.300707 -0.253742,0.990753 0.06532,2.584547 0.111169,2.601534 0.04585,0.01699 0.0371,0.03338 0.111169,-0.03338 z"
     fill="#36463e"
     id="path17"
     style="stroke-width:1.259" />
  <path
     d="m 25.2774,28.396118 c 0.33364,0.266769 2.223783,0.733674 2.483222,0.266769 0.259439,-0.466905 0.222471,-1.600972 1.297328,-2.134509 1.074724,-0.533657 2.759356,-0.414509 4.373364,-1.067314 1.435792,-0.580791 2.25492,-0.971972 3.409941,-1.934493 0.450772,-0.375629 0.855699,-0.517268 1.074724,-1.033818 0.276002,-0.650653 0,-1.067314 -0.259439,-1.767732 -0.259439,-0.700418 -2.40902,2.701542 -2.927898,2.901678 -0.518878,0.200137 -1.936253,0.729846 -3.224571,1.067315 -1.657071,0.433888 -3.520978,0.400153 -4.336396,0.76705 -0.815418,0.366896 -2.223783,2.668166 -1.890275,2.935054 z"
     fill="#36463e"
     id="path18"
     style="stroke-width:1.259" />
  <path
     d="m 25.796278,20.024603 c 0.185371,-0.400153 7.783306,-0.700417 9.080634,-1.067314 1.297195,-0.366777 5.374152,-1.734236 6.004199,-1.900996 0.630048,-0.166761 3.44691,0.200136 3.669248,0.433529 0.222471,0.233512 1.000788,1.934492 0.222471,1.467467 -0.77845,-0.466905 -1.779105,-0.93381 -2.594523,-0.900434 -0.815418,0.03338 -5.633592,1.467467 -6.523078,1.667604 -0.889619,0.200136 -10.044189,0.700417 -9.858951,0.300144 z"
     fill="#36463e"
     id="path19"
     style="stroke-width:1.259" />
  <path
     d="m 41.659429,26.795147 c 0.518878,-0.166761 1.260227,-0.300145 1.408364,-0.800426 0.14827,-0.500281 -0.141645,-1.687702 0.519011,-2.46815 0.501123,-0.592035 1.122293,-0.581388 1.778973,-1.033818 0.236914,-0.163291 0.481115,-0.184705 0.593079,-0.433649 0.179673,-0.399914 -0.154365,-0.793368 -0.593079,-0.967186 -0.291372,-0.11544 -0.592947,-0.366897 -0.815418,0 -0.222338,0.366897 -1.28527,0.856651 -1.853174,1.600852 -1.033516,1.354539 -1.556635,4.269137 -1.037756,4.102377 z"
     fill="#36463e"
     id="path20"
     style="stroke-width:1.259" />
  <path
     d="m 43.586804,15.88897 c 0.481778,-0.233512 0.445472,-1.300348 1.186026,-1.734356 0.597187,-0.350149 1.068497,-0.418934 1.778973,-0.366896 1.592543,0.116636 2.06743,1.414472 2.779762,2.701542 0.895051,1.61724 0.880078,4.102377 0.518878,4.602658 -0.361201,0.500281 -1.704905,0.967186 -1.111958,0.967186 0.59308,0 1.260228,0.166761 1.630836,0 0.370608,-0.16676 0.580492,-2.611343 0.222338,-4.235762 -0.340265,-1.543669 -0.52855,-2.64101 -1.853174,-3.668728 -0.794085,-0.6162 -1.361194,-1.032024 -2.40902,-1.067314 -0.715644,-0.02405 -1.779106,0.400273 -1.779106,0.400273 0,0 -1.445465,2.63479 -0.963555,2.401397 z"
     fill="#36463e"
     id="path21"
     style="stroke-width:1.259" />
  <defs
     id="defs23">
    <filter
       id="filter0_d_239_10"
       x="0"
       y="0"
       width="79"
       height="99"
       filterUnits="userSpaceOnUse"
       color-interpolation-filters="sRGB">
      <feFlood
         flood-opacity="0"
         result="BackgroundImageFix"
         id="feFlood21" />
      <feColorMatrix
         in="SourceAlpha"
         type="matrix"
         values="0 0 0 0 0 0 0 0 0 0 0 0 0 0 0 0 0 0 127 0"
         result="hardAlpha"
         id="feColorMatrix21" />
      <feOffset
         dy="4"
         id="feOffset21" />
      <feGaussianBlur
         stdDeviation="2"
         id="feGaussianBlur21" />
      <feComposite
         in2="hardAlpha"
         operator="out"
         id="feComposite21" />
      <feColorMatrix
         type="matrix"
         values="0 0 0 0 0 0 0 0 0 0 0 0 0 0 0 0 0 0 0.25 0"
         id="feColorMatrix22" />
      <feBlend
         mode="normal"
         in2="BackgroundImageFix"
         result="effect1_dropShadow_239_10"
         id="feBlend22" />
      <feBlend
         mode="normal"
         in="SourceGraphic"
         in2="effect1_dropShadow_239_10"
         result="shape"
         id="feBlend23" />
    </filter>
  </defs>
</svg>
