<svg width="15" height="15" viewBox="0 0 15 15" fill="none" xmlns="http://www.w3.org/2000/svg">
<path d="M7.4999 9.07502L1.9874 14.5875C1.78115 14.7938 1.51865 14.8969 1.1999 14.8969C0.881152 14.8969 0.618652 14.7938 0.412402 14.5875C0.206152 14.3813 0.103027 14.1188 0.103027 13.8C0.103027 13.4813 0.206152 13.2188 0.412402 13.0125L5.9249 7.50002L0.412402 1.98752C0.206152 1.78127 0.103027 1.51877 0.103027 1.20002C0.103027 0.881274 0.206152 0.618774 0.412402 0.412524C0.618652 0.206274 0.881152 0.103149 1.1999 0.103149C1.51865 0.103149 1.78115 0.206274 1.9874 0.412524L7.4999 5.92503L13.0124 0.412524C13.2187 0.206274 13.4812 0.103149 13.7999 0.103149C14.1187 0.103149 14.3812 0.206274 14.5874 0.412524C14.7937 0.618774 14.8968 0.881274 14.8968 1.20002C14.8968 1.51877 14.7937 1.78127 14.5874 1.98752L9.0749 7.50002L14.5874 13.0125C14.7937 13.2188 14.8968 13.4813 14.8968 13.8C14.8968 14.1188 14.7937 14.3813 14.5874 14.5875C14.3812 14.7938 14.1187 14.8969 13.7999 14.8969C13.4812 14.8969 13.2187 14.7938 13.0124 14.5875L7.4999 9.07502Z" fill="#36463E"/>
</svg>
