<svg width="349" height="70" viewBox="0 0 349 70" fill="none" xmlns="http://www.w3.org/2000/svg">
<g filter="url(#filter0_d_391_83)">
<path d="M334.5 0H14C8.47715 0 4 4.47715 4 10V50.5C4 56.0228 8.47715 60.5 14 60.5H301C306.523 60.5 311 56.0228 311 50.5C311 44.9772 315.477 40.5 321 40.5H334.5C340.023 40.5 344.5 36.0229 344.5 30.5V10C344.5 4.47715 340.023 0 334.5 0Z" fill="#EDE8DF"/>
</g>
<g filter="url(#filter1_d_391_83)">
<path d="M329.9 48.3628C330.126 48.1364 330.433 48.009 330.752 48.0086C331.072 48.0082 331.379 48.1348 331.606 48.3606L337.04 53.7814C337.267 54.0073 337.394 54.3139 337.395 54.6337C337.395 54.9535 337.268 55.2604 337.043 55.4869L331.622 60.9216C331.395 61.1416 331.09 61.2636 330.774 61.2612C330.458 61.2589 330.155 61.1324 329.931 60.9091C329.707 60.6857 329.58 60.3834 329.577 60.0671C329.573 59.7509 329.695 59.4461 329.914 59.2183L333.175 55.8453L321.716 55.86C321.396 55.8604 321.089 55.7337 320.863 55.5078C320.636 55.2819 320.509 54.9753 320.509 54.6554C320.508 54.3355 320.635 54.0285 320.861 53.802C321.087 53.5755 321.393 53.4481 321.713 53.4477L333.172 53.4329L329.902 50.0683C329.676 49.8424 329.548 49.5358 329.548 49.216C329.548 48.8962 329.674 48.5893 329.9 48.3628Z" fill="#36463E"/>
</g>
<path d="M23.584 34C23.408 34 23.272 33.956 23.176 33.868C23.088 33.772 23.044 33.636 23.044 33.46V26.08C23.044 25.904 23.088 25.772 23.176 25.684C23.272 25.588 23.408 25.54 23.584 25.54H28.048C28.184 25.54 28.288 25.576 28.36 25.648C28.432 25.72 28.468 25.82 28.468 25.948C28.468 26.084 28.432 26.188 28.36 26.26C28.288 26.332 28.184 26.368 28.048 26.368H24.004V29.296H27.796C27.932 29.296 28.036 29.332 28.108 29.404C28.18 29.468 28.216 29.568 28.216 29.704C28.216 29.84 28.18 29.944 28.108 30.016C28.036 30.088 27.932 30.124 27.796 30.124H24.004V33.172H28.048C28.184 33.172 28.288 33.208 28.36 33.28C28.432 33.352 28.468 33.452 28.468 33.58C28.468 33.716 28.432 33.82 28.36 33.892C28.288 33.964 28.184 34 28.048 34H23.584ZM31.7823 34.108C31.4223 34.108 31.0583 34.064 30.6903 33.976C30.3303 33.888 29.9943 33.736 29.6823 33.52C29.6023 33.464 29.5463 33.4 29.5143 33.328C29.4823 33.248 29.4703 33.172 29.4783 33.1C29.4943 33.02 29.5263 32.952 29.5743 32.896C29.6303 32.84 29.6943 32.808 29.7663 32.8C29.8463 32.784 29.9343 32.8 30.0303 32.848C30.3423 33.04 30.6423 33.176 30.9303 33.256C31.2263 33.328 31.5183 33.364 31.8063 33.364C32.2623 33.364 32.6063 33.28 32.8383 33.112C33.0703 32.944 33.1863 32.716 33.1863 32.428C33.1863 32.204 33.1103 32.028 32.9583 31.9C32.8063 31.764 32.5663 31.66 32.2383 31.588L31.1463 31.348C30.6423 31.244 30.2663 31.064 30.0183 30.808C29.7783 30.552 29.6583 30.22 29.6583 29.812C29.6583 29.452 29.7503 29.144 29.9343 28.888C30.1263 28.624 30.3943 28.42 30.7383 28.276C31.0823 28.132 31.4823 28.06 31.9383 28.06C32.2903 28.06 32.6223 28.108 32.9343 28.204C33.2543 28.292 33.5423 28.436 33.7983 28.636C33.8783 28.692 33.9303 28.76 33.9543 28.84C33.9863 28.912 33.9903 28.988 33.9663 29.068C33.9503 29.14 33.9143 29.204 33.8583 29.26C33.8023 29.308 33.7343 29.336 33.6543 29.344C33.5743 29.352 33.4903 29.328 33.4023 29.272C33.1623 29.112 32.9183 28.996 32.6703 28.924C32.4223 28.844 32.1783 28.804 31.9383 28.804C31.4903 28.804 31.1503 28.892 30.9183 29.068C30.6863 29.244 30.5703 29.476 30.5703 29.764C30.5703 29.988 30.6423 30.172 30.7863 30.316C30.9303 30.46 31.1543 30.564 31.4583 30.628L32.5503 30.856C33.0703 30.968 33.4583 31.148 33.7143 31.396C33.9783 31.636 34.1103 31.964 34.1103 32.38C34.1103 32.908 33.8983 33.328 33.4743 33.64C33.0503 33.952 32.4863 34.108 31.7823 34.108ZM38.0637 34.108C37.4797 34.108 36.9757 33.98 36.5517 33.724C36.1277 33.468 35.7997 33.112 35.5677 32.656C35.3437 32.192 35.2317 31.656 35.2317 31.048C35.2317 30.584 35.2957 30.168 35.4237 29.8C35.5517 29.432 35.7397 29.12 35.9877 28.864C36.2357 28.6 36.5317 28.4 36.8757 28.264C37.2277 28.128 37.6237 28.06 38.0637 28.06C38.3517 28.06 38.6517 28.104 38.9637 28.192C39.2757 28.28 39.5597 28.432 39.8157 28.648C39.8957 28.704 39.9477 28.772 39.9717 28.852C39.9957 28.932 39.9957 29.012 39.9717 29.092C39.9477 29.164 39.9077 29.228 39.8517 29.284C39.7957 29.332 39.7237 29.36 39.6357 29.368C39.5557 29.376 39.4717 29.348 39.3837 29.284C39.1757 29.124 38.9637 29.012 38.7477 28.948C38.5317 28.884 38.3237 28.852 38.1237 28.852C37.8117 28.852 37.5397 28.904 37.3077 29.008C37.0757 29.104 36.8797 29.244 36.7197 29.428C36.5597 29.612 36.4357 29.84 36.3477 30.112C36.2677 30.384 36.2277 30.7 36.2277 31.06C36.2277 31.756 36.3917 32.308 36.7197 32.716C37.0477 33.116 37.5157 33.316 38.1237 33.316C38.3237 33.316 38.5277 33.284 38.7357 33.22C38.9517 33.156 39.1677 33.044 39.3837 32.884C39.4717 32.82 39.5557 32.792 39.6357 32.8C39.7157 32.808 39.7837 32.84 39.8397 32.896C39.8957 32.944 39.9317 33.008 39.9477 33.088C39.9717 33.168 39.9717 33.248 39.9477 33.328C39.9237 33.4 39.8717 33.464 39.7917 33.52C39.5357 33.728 39.2557 33.88 38.9517 33.976C38.6477 34.064 38.3517 34.108 38.0637 34.108ZM41.6384 34.084C41.4784 34.084 41.3544 34.04 41.2664 33.952C41.1864 33.864 41.1464 33.74 41.1464 33.58V28.576C41.1464 28.416 41.1864 28.296 41.2664 28.216C41.3464 28.128 41.4624 28.084 41.6144 28.084C41.7664 28.084 41.8824 28.128 41.9624 28.216C42.0504 28.296 42.0944 28.416 42.0944 28.576V29.548H41.9744C42.1024 29.076 42.3464 28.712 42.7064 28.456C43.0664 28.2 43.5104 28.064 44.0384 28.048C44.1584 28.04 44.2544 28.068 44.3264 28.132C44.3984 28.188 44.4384 28.288 44.4464 28.432C44.4544 28.568 44.4224 28.676 44.3504 28.756C44.2784 28.836 44.1664 28.884 44.0144 28.9L43.8224 28.924C43.2784 28.972 42.8584 29.148 42.5624 29.452C42.2744 29.748 42.1304 30.156 42.1304 30.676V33.58C42.1304 33.74 42.0864 33.864 41.9984 33.952C41.9184 34.04 41.7984 34.084 41.6384 34.084ZM45.9272 34.06C45.7672 34.06 45.6472 34.016 45.5672 33.928C45.4872 33.832 45.4472 33.7 45.4472 33.532V28.624C45.4472 28.456 45.4872 28.328 45.5672 28.24C45.6472 28.152 45.7672 28.108 45.9272 28.108C46.0792 28.108 46.1992 28.152 46.2872 28.24C46.3752 28.328 46.4192 28.456 46.4192 28.624V33.532C46.4192 33.7 46.3752 33.832 46.2872 33.928C46.2072 34.016 46.0872 34.06 45.9272 34.06ZM45.9272 26.764C45.7272 26.764 45.5712 26.712 45.4592 26.608C45.3472 26.496 45.2912 26.348 45.2912 26.164C45.2912 25.972 45.3472 25.828 45.4592 25.732C45.5712 25.628 45.7272 25.576 45.9272 25.576C46.1352 25.576 46.2912 25.628 46.3952 25.732C46.5072 25.828 46.5632 25.972 46.5632 26.164C46.5632 26.348 46.5072 26.496 46.3952 26.608C46.2912 26.712 46.1352 26.764 45.9272 26.764ZM51.1882 34.108C50.6602 34.108 50.2042 33.972 49.8202 33.7C49.4442 33.428 49.1922 33.064 49.0642 32.608L49.1962 32.476V33.58C49.1962 33.74 49.1522 33.864 49.0642 33.952C48.9842 34.04 48.8682 34.084 48.7162 34.084C48.5562 34.084 48.4362 34.04 48.3562 33.952C48.2762 33.864 48.2362 33.74 48.2362 33.58V25.948C48.2362 25.788 48.2762 25.668 48.3562 25.588C48.4362 25.5 48.5562 25.456 48.7162 25.456C48.8682 25.456 48.9882 25.5 49.0762 25.588C49.1642 25.668 49.2082 25.788 49.2082 25.948V29.524H49.0642C49.2002 29.076 49.4562 28.72 49.8322 28.456C50.2082 28.192 50.6602 28.06 51.1882 28.06C51.7162 28.06 52.1722 28.184 52.5562 28.432C52.9402 28.672 53.2362 29.02 53.4442 29.476C53.6602 29.924 53.7682 30.46 53.7682 31.084C53.7682 31.7 53.6602 32.236 53.4442 32.692C53.2362 33.14 52.9362 33.488 52.5442 33.736C52.1602 33.984 51.7082 34.108 51.1882 34.108ZM50.9842 33.328C51.3522 33.328 51.6682 33.24 51.9322 33.064C52.2042 32.888 52.4122 32.632 52.5562 32.296C52.7082 31.96 52.7842 31.556 52.7842 31.084C52.7842 30.356 52.6202 29.8 52.2922 29.416C51.9722 29.032 51.5362 28.84 50.9842 28.84C50.6242 28.84 50.3082 28.928 50.0362 29.104C49.7642 29.272 49.5522 29.524 49.4002 29.86C49.2562 30.188 49.1842 30.596 49.1842 31.084C49.1842 31.804 49.3482 32.36 49.6762 32.752C50.0042 33.136 50.4402 33.328 50.9842 33.328ZM55.7123 34.06C55.5523 34.06 55.4323 34.016 55.3523 33.928C55.2723 33.832 55.2323 33.7 55.2323 33.532V28.624C55.2323 28.456 55.2723 28.328 55.3523 28.24C55.4323 28.152 55.5523 28.108 55.7123 28.108C55.8643 28.108 55.9843 28.152 56.0723 28.24C56.1603 28.328 56.2043 28.456 56.2043 28.624V33.532C56.2043 33.7 56.1603 33.832 56.0723 33.928C55.9923 34.016 55.8723 34.06 55.7123 34.06ZM55.7123 26.764C55.5123 26.764 55.3563 26.712 55.2443 26.608C55.1323 26.496 55.0763 26.348 55.0763 26.164C55.0763 25.972 55.1323 25.828 55.2443 25.732C55.3563 25.628 55.5123 25.576 55.7123 25.576C55.9203 25.576 56.0763 25.628 56.1803 25.732C56.2923 25.828 56.3483 25.972 56.3483 26.164C56.3483 26.348 56.2923 26.496 56.1803 26.608C56.0763 26.712 55.9203 26.764 55.7123 26.764ZM58.5014 34.084C58.3414 34.084 58.2214 34.04 58.1414 33.952C58.0614 33.864 58.0214 33.74 58.0214 33.58V28.576C58.0214 28.416 58.0614 28.296 58.1414 28.216C58.2214 28.128 58.3374 28.084 58.4894 28.084C58.6414 28.084 58.7574 28.128 58.8374 28.216C58.9254 28.296 58.9694 28.416 58.9694 28.576V29.608L58.8374 29.464C59.0054 29 59.2774 28.652 59.6534 28.42C60.0374 28.18 60.4774 28.06 60.9734 28.06C61.4374 28.06 61.8214 28.144 62.1254 28.312C62.4374 28.48 62.6694 28.736 62.8214 29.08C62.9734 29.416 63.0494 29.844 63.0494 30.364V33.58C63.0494 33.74 63.0054 33.864 62.9174 33.952C62.8374 34.04 62.7214 34.084 62.5694 34.084C62.4094 34.084 62.2854 34.04 62.1974 33.952C62.1174 33.864 62.0774 33.74 62.0774 33.58V30.424C62.0774 29.88 61.9694 29.484 61.7534 29.236C61.5454 28.98 61.2094 28.852 60.7454 28.852C60.2094 28.852 59.7814 29.02 59.4614 29.356C59.1494 29.684 58.9934 30.124 58.9934 30.676V33.58C58.9934 33.916 58.8294 34.084 58.5014 34.084ZM67.2657 34.108C66.6977 34.108 66.2057 33.984 65.7897 33.736C65.3737 33.488 65.0497 33.14 64.8177 32.692C64.5937 32.236 64.4817 31.7 64.4817 31.084C64.4817 30.62 64.5457 30.204 64.6737 29.836C64.8017 29.46 64.9897 29.14 65.2377 28.876C65.4857 28.612 65.7777 28.412 66.1137 28.276C66.4577 28.132 66.8417 28.06 67.2657 28.06C67.8337 28.06 68.3257 28.184 68.7417 28.432C69.1577 28.68 69.4777 29.032 69.7017 29.488C69.9337 29.936 70.0497 30.468 70.0497 31.084C70.0497 31.548 69.9857 31.964 69.8577 32.332C69.7297 32.7 69.5417 33.02 69.2937 33.292C69.0457 33.556 68.7497 33.76 68.4057 33.904C68.0697 34.04 67.6897 34.108 67.2657 34.108ZM67.2657 33.328C67.6257 33.328 67.9417 33.24 68.2137 33.064C68.4857 32.888 68.6937 32.632 68.8377 32.296C68.9897 31.96 69.0657 31.556 69.0657 31.084C69.0657 30.356 68.9017 29.8 68.5737 29.416C68.2537 29.032 67.8177 28.84 67.2657 28.84C66.8977 28.84 66.5777 28.928 66.3057 29.104C66.0417 29.272 65.8337 29.524 65.6817 29.86C65.5377 30.188 65.4657 30.596 65.4657 31.084C65.4657 31.804 65.6297 32.36 65.9577 32.752C66.2857 33.136 66.7217 33.328 67.2657 33.328ZM73.4777 34.108C73.1177 34.108 72.7537 34.064 72.3857 33.976C72.0257 33.888 71.6897 33.736 71.3777 33.52C71.2977 33.464 71.2417 33.4 71.2097 33.328C71.1777 33.248 71.1657 33.172 71.1737 33.1C71.1897 33.02 71.2217 32.952 71.2697 32.896C71.3257 32.84 71.3897 32.808 71.4617 32.8C71.5417 32.784 71.6297 32.8 71.7257 32.848C72.0377 33.04 72.3377 33.176 72.6257 33.256C72.9217 33.328 73.2137 33.364 73.5017 33.364C73.9577 33.364 74.3017 33.28 74.5337 33.112C74.7657 32.944 74.8817 32.716 74.8817 32.428C74.8817 32.204 74.8057 32.028 74.6537 31.9C74.5017 31.764 74.2617 31.66 73.9337 31.588L72.8417 31.348C72.3377 31.244 71.9617 31.064 71.7137 30.808C71.4737 30.552 71.3537 30.22 71.3537 29.812C71.3537 29.452 71.4457 29.144 71.6297 28.888C71.8217 28.624 72.0897 28.42 72.4337 28.276C72.7777 28.132 73.1777 28.06 73.6337 28.06C73.9857 28.06 74.3177 28.108 74.6297 28.204C74.9497 28.292 75.2377 28.436 75.4937 28.636C75.5737 28.692 75.6257 28.76 75.6497 28.84C75.6817 28.912 75.6857 28.988 75.6617 29.068C75.6457 29.14 75.6097 29.204 75.5537 29.26C75.4977 29.308 75.4297 29.336 75.3497 29.344C75.2697 29.352 75.1857 29.328 75.0977 29.272C74.8577 29.112 74.6137 28.996 74.3657 28.924C74.1177 28.844 73.8737 28.804 73.6337 28.804C73.1857 28.804 72.8457 28.892 72.6137 29.068C72.3817 29.244 72.2657 29.476 72.2657 29.764C72.2657 29.988 72.3377 30.172 72.4817 30.316C72.6257 30.46 72.8497 30.564 73.1537 30.628L74.2457 30.856C74.7657 30.968 75.1537 31.148 75.4097 31.396C75.6737 31.636 75.8057 31.964 75.8057 32.38C75.8057 32.908 75.5937 33.328 75.1697 33.64C74.7457 33.952 74.1817 34.108 73.4777 34.108ZM82.2168 34.108C81.8168 34.108 81.4568 34.032 81.1368 33.88C80.8248 33.72 80.5768 33.504 80.3928 33.232C80.2088 32.96 80.1168 32.656 80.1168 32.32C80.1168 31.888 80.2248 31.548 80.4408 31.3C80.6648 31.052 81.0288 30.876 81.5328 30.772C82.0448 30.668 82.7408 30.616 83.6208 30.616H84.1608V31.252H83.6328C82.9848 31.252 82.4728 31.284 82.0968 31.348C81.7288 31.404 81.4688 31.504 81.3168 31.648C81.1728 31.792 81.1008 31.996 81.1008 32.26C81.1008 32.588 81.2128 32.856 81.4368 33.064C81.6688 33.272 81.9808 33.376 82.3728 33.376C82.6928 33.376 82.9728 33.3 83.2128 33.148C83.4608 32.996 83.6528 32.788 83.7888 32.524C83.9328 32.26 84.0048 31.956 84.0048 31.612V30.244C84.0048 29.748 83.9048 29.392 83.7048 29.176C83.5048 28.952 83.1768 28.84 82.7208 28.84C82.4408 28.84 82.1608 28.876 81.8808 28.948C81.6008 29.02 81.3048 29.136 80.9928 29.296C80.8808 29.352 80.7848 29.372 80.7048 29.356C80.6248 29.332 80.5608 29.288 80.5128 29.224C80.4648 29.16 80.4368 29.088 80.4288 29.008C80.4208 28.92 80.4368 28.836 80.4768 28.756C80.5248 28.676 80.5968 28.612 80.6928 28.564C81.0448 28.388 81.3928 28.26 81.7368 28.18C82.0808 28.1 82.4088 28.06 82.7208 28.06C83.2248 28.06 83.6408 28.144 83.9688 28.312C84.2968 28.472 84.5408 28.72 84.7008 29.056C84.8608 29.384 84.9408 29.808 84.9408 30.328V33.58C84.9408 33.74 84.9008 33.864 84.8208 33.952C84.7488 34.04 84.6408 34.084 84.4968 34.084C84.3448 34.084 84.2288 34.04 84.1488 33.952C84.0688 33.864 84.0288 33.74 84.0288 33.58V32.644H84.1368C84.0728 32.948 83.9488 33.208 83.7648 33.424C83.5888 33.64 83.3688 33.808 83.1048 33.928C82.8408 34.048 82.5448 34.108 82.2168 34.108ZM90.3178 34.084C90.1578 34.084 90.0378 34.04 89.9578 33.952C89.8778 33.864 89.8378 33.74 89.8378 33.58V28.576C89.8378 28.416 89.8778 28.296 89.9578 28.216C90.0378 28.128 90.1538 28.084 90.3058 28.084C90.4578 28.084 90.5738 28.128 90.6538 28.216C90.7418 28.296 90.7858 28.416 90.7858 28.576V29.608L90.6538 29.464C90.8218 29 91.0938 28.652 91.4698 28.42C91.8538 28.18 92.2938 28.06 92.7898 28.06C93.2538 28.06 93.6378 28.144 93.9418 28.312C94.2538 28.48 94.4858 28.736 94.6378 29.08C94.7898 29.416 94.8658 29.844 94.8658 30.364V33.58C94.8658 33.74 94.8218 33.864 94.7338 33.952C94.6538 34.04 94.5378 34.084 94.3858 34.084C94.2258 34.084 94.1018 34.04 94.0138 33.952C93.9338 33.864 93.8938 33.74 93.8938 33.58V30.424C93.8938 29.88 93.7858 29.484 93.5698 29.236C93.3618 28.98 93.0258 28.852 92.5618 28.852C92.0258 28.852 91.5978 29.02 91.2778 29.356C90.9658 29.684 90.8098 30.124 90.8098 30.676V33.58C90.8098 33.916 90.6458 34.084 90.3178 34.084ZM98.7221 34.108C98.2501 34.108 97.8581 34.024 97.5461 33.856C97.2421 33.68 97.0101 33.42 96.8501 33.076C96.6981 32.732 96.6221 32.304 96.6221 31.792V28.576C96.6221 28.408 96.6621 28.284 96.7421 28.204C96.8301 28.124 96.9501 28.084 97.1021 28.084C97.2621 28.084 97.3821 28.124 97.4621 28.204C97.5501 28.284 97.5941 28.408 97.5941 28.576V31.78C97.5941 32.292 97.6981 32.676 97.9061 32.932C98.1221 33.18 98.4581 33.304 98.9141 33.304C99.4101 33.304 99.8141 33.136 100.126 32.8C100.438 32.464 100.594 32.024 100.594 31.48V28.576C100.594 28.408 100.634 28.284 100.714 28.204C100.802 28.124 100.926 28.084 101.086 28.084C101.238 28.084 101.354 28.124 101.434 28.204C101.522 28.284 101.566 28.408 101.566 28.576V33.58C101.566 33.916 101.41 34.084 101.098 34.084C100.946 34.084 100.826 34.04 100.738 33.952C100.658 33.864 100.618 33.74 100.618 33.58V32.488L100.774 32.656C100.614 33.128 100.35 33.488 99.9821 33.736C99.6221 33.984 99.2021 34.108 98.7221 34.108ZM106.013 34.108C105.397 34.108 104.865 33.988 104.417 33.748C103.977 33.5 103.633 33.152 103.385 32.704C103.145 32.256 103.025 31.72 103.025 31.096C103.025 30.488 103.145 29.96 103.385 29.512C103.625 29.056 103.953 28.7 104.369 28.444C104.793 28.188 105.281 28.06 105.833 28.06C106.225 28.06 106.577 28.128 106.889 28.264C107.201 28.392 107.465 28.58 107.681 28.828C107.905 29.076 108.073 29.376 108.185 29.728C108.305 30.08 108.365 30.476 108.365 30.916C108.365 31.044 108.329 31.14 108.257 31.204C108.185 31.26 108.081 31.288 107.945 31.288H103.769V30.652H107.717L107.525 30.808C107.525 30.376 107.461 30.012 107.333 29.716C107.205 29.412 107.017 29.18 106.769 29.02C106.529 28.86 106.225 28.78 105.857 28.78C105.449 28.78 105.101 28.876 104.813 29.068C104.533 29.252 104.321 29.512 104.177 29.848C104.033 30.176 103.961 30.56 103.961 31V31.072C103.961 31.808 104.137 32.368 104.489 32.752C104.849 33.136 105.357 33.328 106.013 33.328C106.285 33.328 106.553 33.292 106.817 33.22C107.089 33.148 107.353 33.028 107.609 32.86C107.721 32.788 107.821 32.756 107.909 32.764C108.005 32.764 108.081 32.792 108.137 32.848C108.193 32.896 108.229 32.96 108.245 33.04C108.269 33.112 108.261 33.192 108.221 33.28C108.189 33.368 108.121 33.444 108.017 33.508C107.753 33.7 107.441 33.848 107.081 33.952C106.721 34.056 106.365 34.108 106.013 34.108ZM111.739 34.108C111.379 34.108 111.015 34.064 110.647 33.976C110.287 33.888 109.951 33.736 109.639 33.52C109.559 33.464 109.503 33.4 109.471 33.328C109.439 33.248 109.427 33.172 109.435 33.1C109.451 33.02 109.483 32.952 109.531 32.896C109.587 32.84 109.651 32.808 109.723 32.8C109.803 32.784 109.891 32.8 109.987 32.848C110.299 33.04 110.599 33.176 110.887 33.256C111.183 33.328 111.475 33.364 111.763 33.364C112.219 33.364 112.563 33.28 112.795 33.112C113.027 32.944 113.143 32.716 113.143 32.428C113.143 32.204 113.067 32.028 112.915 31.9C112.763 31.764 112.523 31.66 112.195 31.588L111.103 31.348C110.599 31.244 110.223 31.064 109.975 30.808C109.735 30.552 109.615 30.22 109.615 29.812C109.615 29.452 109.707 29.144 109.891 28.888C110.083 28.624 110.351 28.42 110.695 28.276C111.039 28.132 111.439 28.06 111.895 28.06C112.247 28.06 112.579 28.108 112.891 28.204C113.211 28.292 113.499 28.436 113.755 28.636C113.835 28.692 113.887 28.76 113.911 28.84C113.943 28.912 113.947 28.988 113.923 29.068C113.907 29.14 113.871 29.204 113.815 29.26C113.759 29.308 113.691 29.336 113.611 29.344C113.531 29.352 113.447 29.328 113.359 29.272C113.119 29.112 112.875 28.996 112.627 28.924C112.379 28.844 112.135 28.804 111.895 28.804C111.447 28.804 111.107 28.892 110.875 29.068C110.643 29.244 110.527 29.476 110.527 29.764C110.527 29.988 110.599 30.172 110.743 30.316C110.887 30.46 111.111 30.564 111.415 30.628L112.507 30.856C113.027 30.968 113.415 31.148 113.671 31.396C113.935 31.636 114.067 31.964 114.067 32.38C114.067 32.908 113.855 33.328 113.431 33.64C113.007 33.952 112.443 34.108 111.739 34.108ZM117.83 34.108C117.374 34.108 116.99 34.028 116.678 33.868C116.374 33.7 116.146 33.46 115.994 33.148C115.842 32.828 115.766 32.44 115.766 31.984V28.924H114.962C114.826 28.924 114.722 28.892 114.65 28.828C114.578 28.756 114.542 28.66 114.542 28.54C114.542 28.42 114.578 28.328 114.65 28.264C114.722 28.2 114.826 28.168 114.962 28.168H115.766V26.788C115.766 26.628 115.81 26.508 115.898 26.428C115.986 26.34 116.106 26.296 116.258 26.296C116.41 26.296 116.526 26.34 116.606 26.428C116.694 26.508 116.738 26.628 116.738 26.788V28.168H118.25C118.386 28.168 118.49 28.2 118.562 28.264C118.634 28.328 118.67 28.42 118.67 28.54C118.67 28.66 118.634 28.756 118.562 28.828C118.49 28.892 118.386 28.924 118.25 28.924H116.738V31.888C116.738 32.344 116.834 32.692 117.026 32.932C117.218 33.164 117.53 33.28 117.962 33.28C118.114 33.28 118.242 33.264 118.346 33.232C118.458 33.2 118.55 33.184 118.622 33.184C118.694 33.176 118.754 33.2 118.802 33.256C118.85 33.312 118.874 33.408 118.874 33.544C118.874 33.64 118.854 33.728 118.814 33.808C118.782 33.888 118.722 33.944 118.634 33.976C118.538 34.008 118.41 34.036 118.25 34.06C118.098 34.092 117.958 34.108 117.83 34.108ZM120.177 34.084C120.017 34.084 119.893 34.04 119.805 33.952C119.725 33.864 119.685 33.74 119.685 33.58V28.576C119.685 28.416 119.725 28.296 119.805 28.216C119.885 28.128 120.001 28.084 120.153 28.084C120.305 28.084 120.421 28.128 120.501 28.216C120.589 28.296 120.633 28.416 120.633 28.576V29.548H120.513C120.641 29.076 120.885 28.712 121.245 28.456C121.605 28.2 122.049 28.064 122.577 28.048C122.697 28.04 122.793 28.068 122.865 28.132C122.937 28.188 122.977 28.288 122.985 28.432C122.993 28.568 122.961 28.676 122.889 28.756C122.817 28.836 122.705 28.884 122.553 28.9L122.361 28.924C121.817 28.972 121.397 29.148 121.101 29.452C120.813 29.748 120.669 30.156 120.669 30.676V33.58C120.669 33.74 120.625 33.864 120.537 33.952C120.457 34.04 120.337 34.084 120.177 34.084ZM126.34 34.108C125.772 34.108 125.28 33.984 124.864 33.736C124.448 33.488 124.124 33.14 123.892 32.692C123.668 32.236 123.556 31.7 123.556 31.084C123.556 30.62 123.62 30.204 123.748 29.836C123.876 29.46 124.064 29.14 124.312 28.876C124.56 28.612 124.852 28.412 125.188 28.276C125.532 28.132 125.916 28.06 126.34 28.06C126.908 28.06 127.4 28.184 127.816 28.432C128.232 28.68 128.552 29.032 128.776 29.488C129.008 29.936 129.124 30.468 129.124 31.084C129.124 31.548 129.06 31.964 128.932 32.332C128.804 32.7 128.616 33.02 128.368 33.292C128.12 33.556 127.824 33.76 127.48 33.904C127.144 34.04 126.764 34.108 126.34 34.108ZM126.34 33.328C126.7 33.328 127.016 33.24 127.288 33.064C127.56 32.888 127.768 32.632 127.912 32.296C128.064 31.96 128.14 31.556 128.14 31.084C128.14 30.356 127.976 29.8 127.648 29.416C127.328 29.032 126.892 28.84 126.34 28.84C125.972 28.84 125.652 28.928 125.38 29.104C125.116 29.272 124.908 29.524 124.756 29.86C124.612 30.188 124.54 30.596 124.54 31.084C124.54 31.804 124.704 32.36 125.032 32.752C125.36 33.136 125.796 33.328 126.34 33.328ZM136.306 34.108C135.69 34.108 135.158 33.988 134.71 33.748C134.27 33.5 133.926 33.152 133.678 32.704C133.438 32.256 133.318 31.72 133.318 31.096C133.318 30.488 133.438 29.96 133.678 29.512C133.918 29.056 134.246 28.7 134.662 28.444C135.086 28.188 135.574 28.06 136.126 28.06C136.518 28.06 136.87 28.128 137.182 28.264C137.494 28.392 137.758 28.58 137.974 28.828C138.198 29.076 138.366 29.376 138.478 29.728C138.598 30.08 138.658 30.476 138.658 30.916C138.658 31.044 138.622 31.14 138.55 31.204C138.478 31.26 138.374 31.288 138.238 31.288H134.062V30.652H138.01L137.818 30.808C137.818 30.376 137.754 30.012 137.626 29.716C137.498 29.412 137.31 29.18 137.062 29.02C136.822 28.86 136.518 28.78 136.15 28.78C135.742 28.78 135.394 28.876 135.106 29.068C134.826 29.252 134.614 29.512 134.47 29.848C134.326 30.176 134.254 30.56 134.254 31V31.072C134.254 31.808 134.43 32.368 134.782 32.752C135.142 33.136 135.65 33.328 136.306 33.328C136.578 33.328 136.846 33.292 137.11 33.22C137.382 33.148 137.646 33.028 137.902 32.86C138.014 32.788 138.114 32.756 138.202 32.764C138.298 32.764 138.374 32.792 138.43 32.848C138.486 32.896 138.522 32.96 138.538 33.04C138.562 33.112 138.554 33.192 138.514 33.28C138.482 33.368 138.414 33.444 138.31 33.508C138.046 33.7 137.734 33.848 137.374 33.952C137.014 34.056 136.658 34.108 136.306 34.108ZM140.568 34.084C140.408 34.084 140.288 34.04 140.208 33.952C140.128 33.864 140.088 33.74 140.088 33.58V28.576C140.088 28.416 140.128 28.296 140.208 28.216C140.288 28.128 140.404 28.084 140.556 28.084C140.708 28.084 140.824 28.128 140.904 28.216C140.992 28.296 141.036 28.416 141.036 28.576V29.632L140.904 29.464C141.056 29.016 141.3 28.672 141.636 28.432C141.98 28.184 142.388 28.06 142.86 28.06C143.356 28.06 143.756 28.18 144.06 28.42C144.372 28.652 144.58 29.016 144.684 29.512H144.504C144.648 29.064 144.904 28.712 145.272 28.456C145.648 28.192 146.084 28.06 146.58 28.06C147.02 28.06 147.38 28.144 147.66 28.312C147.948 28.48 148.164 28.736 148.308 29.08C148.452 29.416 148.524 29.844 148.524 30.364V33.58C148.524 33.74 148.48 33.864 148.392 33.952C148.312 34.04 148.192 34.084 148.032 34.084C147.88 34.084 147.76 34.04 147.672 33.952C147.592 33.864 147.552 33.74 147.552 33.58V30.412C147.552 29.876 147.46 29.484 147.276 29.236C147.092 28.98 146.78 28.852 146.34 28.852C145.86 28.852 145.48 29.02 145.2 29.356C144.928 29.684 144.792 30.132 144.792 30.7V33.58C144.792 33.74 144.748 33.864 144.66 33.952C144.58 34.04 144.46 34.084 144.3 34.084C144.148 34.084 144.028 34.04 143.94 33.952C143.86 33.864 143.82 33.74 143.82 33.58V30.412C143.82 29.876 143.724 29.484 143.532 29.236C143.348 28.98 143.04 28.852 142.608 28.852C142.128 28.852 141.748 29.02 141.468 29.356C141.196 29.684 141.06 30.132 141.06 30.7V33.58C141.06 33.916 140.896 34.084 140.568 34.084ZM152.178 34.108C151.778 34.108 151.418 34.032 151.098 33.88C150.786 33.72 150.538 33.504 150.354 33.232C150.17 32.96 150.078 32.656 150.078 32.32C150.078 31.888 150.186 31.548 150.402 31.3C150.626 31.052 150.99 30.876 151.494 30.772C152.006 30.668 152.702 30.616 153.582 30.616H154.122V31.252H153.594C152.946 31.252 152.434 31.284 152.058 31.348C151.69 31.404 151.43 31.504 151.278 31.648C151.134 31.792 151.062 31.996 151.062 32.26C151.062 32.588 151.174 32.856 151.398 33.064C151.63 33.272 151.942 33.376 152.334 33.376C152.654 33.376 152.934 33.3 153.174 33.148C153.422 32.996 153.614 32.788 153.75 32.524C153.894 32.26 153.966 31.956 153.966 31.612V30.244C153.966 29.748 153.866 29.392 153.666 29.176C153.466 28.952 153.138 28.84 152.682 28.84C152.402 28.84 152.122 28.876 151.842 28.948C151.562 29.02 151.266 29.136 150.954 29.296C150.842 29.352 150.746 29.372 150.666 29.356C150.586 29.332 150.522 29.288 150.474 29.224C150.426 29.16 150.398 29.088 150.39 29.008C150.382 28.92 150.398 28.836 150.438 28.756C150.486 28.676 150.558 28.612 150.654 28.564C151.006 28.388 151.354 28.26 151.698 28.18C152.042 28.1 152.37 28.06 152.682 28.06C153.186 28.06 153.602 28.144 153.93 28.312C154.258 28.472 154.502 28.72 154.662 29.056C154.822 29.384 154.902 29.808 154.902 30.328V33.58C154.902 33.74 154.862 33.864 154.782 33.952C154.71 34.04 154.602 34.084 154.458 34.084C154.306 34.084 154.19 34.04 154.11 33.952C154.03 33.864 153.99 33.74 153.99 33.58V32.644H154.098C154.034 32.948 153.91 33.208 153.726 33.424C153.55 33.64 153.33 33.808 153.066 33.928C152.802 34.048 152.506 34.108 152.178 34.108ZM157.185 34.06C157.025 34.06 156.905 34.016 156.825 33.928C156.745 33.832 156.705 33.7 156.705 33.532V28.624C156.705 28.456 156.745 28.328 156.825 28.24C156.905 28.152 157.025 28.108 157.185 28.108C157.337 28.108 157.457 28.152 157.545 28.24C157.633 28.328 157.677 28.456 157.677 28.624V33.532C157.677 33.7 157.633 33.832 157.545 33.928C157.465 34.016 157.345 34.06 157.185 34.06ZM157.185 26.764C156.985 26.764 156.829 26.712 156.717 26.608C156.605 26.496 156.549 26.348 156.549 26.164C156.549 25.972 156.605 25.828 156.717 25.732C156.829 25.628 156.985 25.576 157.185 25.576C157.393 25.576 157.549 25.628 157.653 25.732C157.765 25.828 157.821 25.972 157.821 26.164C157.821 26.348 157.765 26.496 157.653 26.608C157.549 26.712 157.393 26.764 157.185 26.764ZM161.27 34.108C160.694 34.108 160.254 33.932 159.95 33.58C159.646 33.228 159.494 32.724 159.494 32.068V25.948C159.494 25.788 159.534 25.668 159.614 25.588C159.694 25.5 159.814 25.456 159.974 25.456C160.126 25.456 160.246 25.5 160.334 25.588C160.422 25.668 160.466 25.788 160.466 25.948V31.996C160.466 32.428 160.55 32.752 160.718 32.968C160.894 33.176 161.15 33.28 161.486 33.28C161.558 33.28 161.622 33.276 161.678 33.268C161.734 33.26 161.79 33.256 161.846 33.256C161.934 33.248 161.994 33.268 162.026 33.316C162.066 33.364 162.086 33.46 162.086 33.604C162.086 33.748 162.054 33.856 161.99 33.928C161.926 34 161.822 34.048 161.678 34.072C161.614 34.08 161.546 34.088 161.474 34.096C161.402 34.104 161.334 34.108 161.27 34.108Z" fill="#36463E"/>
<defs>
<filter id="filter0_d_391_83" x="0" y="0" width="348.5" height="68.5" filterUnits="userSpaceOnUse" color-interpolation-filters="sRGB">
<feFlood flood-opacity="0" result="BackgroundImageFix"/>
<feColorMatrix in="SourceAlpha" type="matrix" values="0 0 0 0 0 0 0 0 0 0 0 0 0 0 0 0 0 0 127 0" result="hardAlpha"/>
<feOffset dy="4"/>
<feGaussianBlur stdDeviation="2"/>
<feComposite in2="hardAlpha" operator="out"/>
<feColorMatrix type="matrix" values="0 0 0 0 0 0 0 0 0 0 0 0 0 0 0 0 0 0 0.25 0"/>
<feBlend mode="normal" in2="BackgroundImageFix" result="effect1_dropShadow_391_83"/>
<feBlend mode="normal" in="SourceGraphic" in2="effect1_dropShadow_391_83" result="shape"/>
</filter>
<filter id="filter1_d_391_83" x="316.508" y="48.0085" width="24.8862" height="21.2527" filterUnits="userSpaceOnUse" color-interpolation-filters="sRGB">
<feFlood flood-opacity="0" result="BackgroundImageFix"/>
<feColorMatrix in="SourceAlpha" type="matrix" values="0 0 0 0 0 0 0 0 0 0 0 0 0 0 0 0 0 0 127 0" result="hardAlpha"/>
<feOffset dy="4"/>
<feGaussianBlur stdDeviation="2"/>
<feComposite in2="hardAlpha" operator="out"/>
<feColorMatrix type="matrix" values="0 0 0 0 0 0 0 0 0 0 0 0 0 0 0 0 0 0 0.25 0"/>
<feBlend mode="normal" in2="BackgroundImageFix" result="effect1_dropShadow_391_83"/>
<feBlend mode="normal" in="SourceGraphic" in2="effect1_dropShadow_391_83" result="shape"/>
</filter>
</defs>
</svg>
