<svg width="167" height="121" viewBox="0 0 167 121" fill="none" xmlns="http://www.w3.org/2000/svg">
<g filter="url(#filter0_d_391_84)">
<path d="M153 0H14C8.47715 0 4 4.47715 4 10V58.7566C4 64.2795 8.47715 68.7566 14 68.7566H43C48.5228 68.7566 53 73.2338 53 78.7566V103C53 108.523 57.4771 113 63 113H153C158.523 113 163 108.523 163 103V10C163 4.47715 158.523 0 153 0Z" fill="#EDE8DF"/>
</g>
<g filter="url(#filter1_d_391_84)">
<path d="M21.5032 91.3628C21.2773 91.1364 20.9708 91.009 20.6509 91.0086C20.3311 91.0082 20.0242 91.1348 19.7977 91.3606L14.363 96.7814C14.1366 97.0073 14.0092 97.3139 14.0088 97.6337C14.0083 97.9535 14.135 98.2604 14.3608 98.4869L19.7816 103.922C20.0088 104.142 20.3133 104.264 20.6296 104.261C20.9458 104.259 21.2485 104.132 21.4724 103.909C21.6963 103.686 21.8236 103.383 21.8267 103.067C21.8299 102.751 21.7087 102.446 21.4893 102.218L18.2285 98.8453L29.6871 98.86C30.007 98.8604 30.3139 98.7337 30.5404 98.5078C30.7669 98.2819 30.8944 97.9753 30.8948 97.6554C30.8952 97.3355 30.7685 97.0285 30.5426 96.802C30.3167 96.5755 30.0101 96.4481 29.6902 96.4477L18.2316 96.4329L21.501 93.0683C21.7274 92.8424 21.8549 92.5358 21.8553 92.216C21.8557 91.8962 21.7291 91.5893 21.5032 91.3628Z" fill="#36463E"/>
</g>
<path d="M34.584 33C34.408 33 34.272 32.956 34.176 32.868C34.088 32.772 34.044 32.636 34.044 32.46V25.08C34.044 24.904 34.088 24.772 34.176 24.684C34.272 24.588 34.408 24.54 34.584 24.54H39.048C39.184 24.54 39.288 24.576 39.36 24.648C39.432 24.72 39.468 24.82 39.468 24.948C39.468 25.084 39.432 25.188 39.36 25.26C39.288 25.332 39.184 25.368 39.048 25.368H35.004V28.296H38.796C38.932 28.296 39.036 28.332 39.108 28.404C39.18 28.468 39.216 28.568 39.216 28.704C39.216 28.84 39.18 28.944 39.108 29.016C39.036 29.088 38.932 29.124 38.796 29.124H35.004V32.172H39.048C39.184 32.172 39.288 32.208 39.36 32.28C39.432 32.352 39.468 32.452 39.468 32.58C39.468 32.716 39.432 32.82 39.36 32.892C39.288 32.964 39.184 33 39.048 33H34.584ZM41.3881 33.084C41.2281 33.084 41.1081 33.04 41.0281 32.952C40.9481 32.864 40.9081 32.74 40.9081 32.58V27.576C40.9081 27.416 40.9481 27.296 41.0281 27.216C41.1081 27.128 41.2241 27.084 41.3761 27.084C41.5281 27.084 41.6441 27.128 41.7241 27.216C41.8121 27.296 41.8561 27.416 41.8561 27.576V28.608L41.7241 28.464C41.8921 28 42.1641 27.652 42.5401 27.42C42.9241 27.18 43.3641 27.06 43.8601 27.06C44.3241 27.06 44.7081 27.144 45.0121 27.312C45.3241 27.48 45.5561 27.736 45.7081 28.08C45.8601 28.416 45.9361 28.844 45.9361 29.364V32.58C45.9361 32.74 45.8921 32.864 45.8041 32.952C45.7241 33.04 45.6081 33.084 45.4561 33.084C45.2961 33.084 45.1721 33.04 45.0841 32.952C45.0041 32.864 44.9641 32.74 44.9641 32.58V29.424C44.9641 28.88 44.8561 28.484 44.6401 28.236C44.4321 27.98 44.0961 27.852 43.6321 27.852C43.0961 27.852 42.6681 28.02 42.3481 28.356C42.0361 28.684 41.8801 29.124 41.8801 29.676V32.58C41.8801 32.916 41.7161 33.084 41.3881 33.084ZM50.2004 33.108C49.6164 33.108 49.1124 32.98 48.6884 32.724C48.2644 32.468 47.9364 32.112 47.7044 31.656C47.4804 31.192 47.3684 30.656 47.3684 30.048C47.3684 29.584 47.4324 29.168 47.5604 28.8C47.6884 28.432 47.8764 28.12 48.1244 27.864C48.3724 27.6 48.6684 27.4 49.0124 27.264C49.3644 27.128 49.7604 27.06 50.2004 27.06C50.4884 27.06 50.7884 27.104 51.1004 27.192C51.4124 27.28 51.6964 27.432 51.9524 27.648C52.0324 27.704 52.0844 27.772 52.1084 27.852C52.1324 27.932 52.1324 28.012 52.1084 28.092C52.0844 28.164 52.0444 28.228 51.9884 28.284C51.9324 28.332 51.8604 28.36 51.7724 28.368C51.6924 28.376 51.6084 28.348 51.5204 28.284C51.3124 28.124 51.1004 28.012 50.8844 27.948C50.6684 27.884 50.4604 27.852 50.2604 27.852C49.9484 27.852 49.6764 27.904 49.4444 28.008C49.2124 28.104 49.0164 28.244 48.8564 28.428C48.6964 28.612 48.5724 28.84 48.4844 29.112C48.4044 29.384 48.3644 29.7 48.3644 30.06C48.3644 30.756 48.5284 31.308 48.8564 31.716C49.1844 32.116 49.6524 32.316 50.2604 32.316C50.4604 32.316 50.6644 32.284 50.8724 32.22C51.0884 32.156 51.3044 32.044 51.5204 31.884C51.6084 31.82 51.6924 31.792 51.7724 31.8C51.8524 31.808 51.9204 31.84 51.9764 31.896C52.0324 31.944 52.0684 32.008 52.0844 32.088C52.1084 32.168 52.1084 32.248 52.0844 32.328C52.0604 32.4 52.0084 32.464 51.9284 32.52C51.6724 32.728 51.3924 32.88 51.0884 32.976C50.7844 33.064 50.4884 33.108 50.2004 33.108ZM55.5899 33.108C55.0219 33.108 54.5299 32.984 54.1139 32.736C53.6979 32.488 53.3739 32.14 53.1419 31.692C52.9179 31.236 52.8059 30.7 52.8059 30.084C52.8059 29.62 52.8699 29.204 52.9979 28.836C53.1259 28.46 53.3139 28.14 53.5619 27.876C53.8099 27.612 54.1019 27.412 54.4379 27.276C54.7819 27.132 55.1659 27.06 55.5899 27.06C56.1579 27.06 56.6499 27.184 57.0659 27.432C57.4819 27.68 57.8019 28.032 58.0259 28.488C58.2579 28.936 58.3739 29.468 58.3739 30.084C58.3739 30.548 58.3099 30.964 58.1819 31.332C58.0539 31.7 57.8659 32.02 57.6179 32.292C57.3699 32.556 57.0739 32.76 56.7299 32.904C56.3939 33.04 56.0139 33.108 55.5899 33.108ZM55.5899 32.328C55.9499 32.328 56.2659 32.24 56.5379 32.064C56.8099 31.888 57.0179 31.632 57.1619 31.296C57.3139 30.96 57.3899 30.556 57.3899 30.084C57.3899 29.356 57.2259 28.8 56.8979 28.416C56.5779 28.032 56.1419 27.84 55.5899 27.84C55.2219 27.84 54.9019 27.928 54.6299 28.104C54.3659 28.272 54.1579 28.524 54.0059 28.86C53.8619 29.188 53.7899 29.596 53.7899 30.084C53.7899 30.804 53.9539 31.36 54.2819 31.752C54.6099 32.136 55.0459 32.328 55.5899 32.328ZM60.3139 33.084C60.1539 33.084 60.0339 33.04 59.9539 32.952C59.8739 32.864 59.8339 32.74 59.8339 32.58V27.576C59.8339 27.416 59.8739 27.296 59.9539 27.216C60.0339 27.128 60.1499 27.084 60.3019 27.084C60.4539 27.084 60.5699 27.128 60.6499 27.216C60.7379 27.296 60.7819 27.416 60.7819 27.576V28.608L60.6499 28.464C60.8179 28 61.0899 27.652 61.4659 27.42C61.8499 27.18 62.2899 27.06 62.7859 27.06C63.2499 27.06 63.6339 27.144 63.9379 27.312C64.2499 27.48 64.4819 27.736 64.6339 28.08C64.7859 28.416 64.8619 28.844 64.8619 29.364V32.58C64.8619 32.74 64.8179 32.864 64.7299 32.952C64.6499 33.04 64.5339 33.084 64.3819 33.084C64.2219 33.084 64.0979 33.04 64.0099 32.952C63.9299 32.864 63.8899 32.74 63.8899 32.58V29.424C63.8899 28.88 63.7819 28.484 63.5659 28.236C63.3579 27.98 63.0219 27.852 62.5579 27.852C62.0219 27.852 61.5939 28.02 61.2739 28.356C60.9619 28.684 60.8059 29.124 60.8059 29.676V32.58C60.8059 32.916 60.6419 33.084 60.3139 33.084ZM68.9942 33.108C68.5382 33.108 68.1542 33.028 67.8422 32.868C67.5382 32.7 67.3102 32.46 67.1582 32.148C67.0062 31.828 66.9302 31.44 66.9302 30.984V27.924H66.1262C65.9902 27.924 65.8862 27.892 65.8142 27.828C65.7422 27.756 65.7062 27.66 65.7062 27.54C65.7062 27.42 65.7422 27.328 65.8142 27.264C65.8862 27.2 65.9902 27.168 66.1262 27.168H66.9302V25.788C66.9302 25.628 66.9742 25.508 67.0622 25.428C67.1502 25.34 67.2702 25.296 67.4222 25.296C67.5742 25.296 67.6902 25.34 67.7702 25.428C67.8582 25.508 67.9022 25.628 67.9022 25.788V27.168H69.4142C69.5502 27.168 69.6542 27.2 69.7262 27.264C69.7982 27.328 69.8342 27.42 69.8342 27.54C69.8342 27.66 69.7982 27.756 69.7262 27.828C69.6542 27.892 69.5502 27.924 69.4142 27.924H67.9022V30.888C67.9022 31.344 67.9982 31.692 68.1902 31.932C68.3822 32.164 68.6942 32.28 69.1262 32.28C69.2782 32.28 69.4062 32.264 69.5102 32.232C69.6222 32.2 69.7142 32.184 69.7862 32.184C69.8582 32.176 69.9182 32.2 69.9662 32.256C70.0142 32.312 70.0382 32.408 70.0382 32.544C70.0382 32.64 70.0182 32.728 69.9782 32.808C69.9462 32.888 69.8862 32.944 69.7982 32.976C69.7022 33.008 69.5742 33.036 69.4142 33.06C69.2622 33.092 69.1222 33.108 68.9942 33.108ZM71.3415 33.084C71.1815 33.084 71.0575 33.04 70.9695 32.952C70.8895 32.864 70.8495 32.74 70.8495 32.58V27.576C70.8495 27.416 70.8895 27.296 70.9695 27.216C71.0495 27.128 71.1655 27.084 71.3175 27.084C71.4695 27.084 71.5855 27.128 71.6655 27.216C71.7535 27.296 71.7975 27.416 71.7975 27.576V28.548H71.6775C71.8055 28.076 72.0495 27.712 72.4095 27.456C72.7695 27.2 73.2135 27.064 73.7415 27.048C73.8615 27.04 73.9575 27.068 74.0295 27.132C74.1015 27.188 74.1415 27.288 74.1495 27.432C74.1575 27.568 74.1255 27.676 74.0535 27.756C73.9815 27.836 73.8695 27.884 73.7175 27.9L73.5255 27.924C72.9815 27.972 72.5615 28.148 72.2655 28.452C71.9775 28.748 71.8335 29.156 71.8335 29.676V32.58C71.8335 32.74 71.7895 32.864 71.7015 32.952C71.6215 33.04 71.5015 33.084 71.3415 33.084ZM76.9277 33.108C76.5277 33.108 76.1677 33.032 75.8477 32.88C75.5357 32.72 75.2877 32.504 75.1037 32.232C74.9197 31.96 74.8277 31.656 74.8277 31.32C74.8277 30.888 74.9357 30.548 75.1517 30.3C75.3757 30.052 75.7397 29.876 76.2437 29.772C76.7557 29.668 77.4517 29.616 78.3317 29.616H78.8717V30.252H78.3437C77.6957 30.252 77.1837 30.284 76.8077 30.348C76.4397 30.404 76.1797 30.504 76.0277 30.648C75.8837 30.792 75.8117 30.996 75.8117 31.26C75.8117 31.588 75.9237 31.856 76.1477 32.064C76.3797 32.272 76.6917 32.376 77.0837 32.376C77.4037 32.376 77.6837 32.3 77.9237 32.148C78.1717 31.996 78.3637 31.788 78.4997 31.524C78.6437 31.26 78.7157 30.956 78.7157 30.612V29.244C78.7157 28.748 78.6157 28.392 78.4157 28.176C78.2157 27.952 77.8877 27.84 77.4317 27.84C77.1517 27.84 76.8717 27.876 76.5917 27.948C76.3117 28.02 76.0157 28.136 75.7037 28.296C75.5917 28.352 75.4957 28.372 75.4157 28.356C75.3357 28.332 75.2717 28.288 75.2237 28.224C75.1757 28.16 75.1477 28.088 75.1397 28.008C75.1317 27.92 75.1477 27.836 75.1877 27.756C75.2357 27.676 75.3077 27.612 75.4037 27.564C75.7557 27.388 76.1037 27.26 76.4477 27.18C76.7917 27.1 77.1197 27.06 77.4317 27.06C77.9357 27.06 78.3517 27.144 78.6797 27.312C79.0077 27.472 79.2517 27.72 79.4117 28.056C79.5717 28.384 79.6517 28.808 79.6517 29.328V32.58C79.6517 32.74 79.6117 32.864 79.5317 32.952C79.4597 33.04 79.3517 33.084 79.2077 33.084C79.0557 33.084 78.9397 33.04 78.8597 32.952C78.7797 32.864 78.7397 32.74 78.7397 32.58V31.644H78.8477C78.7837 31.948 78.6597 32.208 78.4757 32.424C78.2997 32.64 78.0797 32.808 77.8157 32.928C77.5517 33.048 77.2557 33.108 76.9277 33.108ZM81.935 33.084C81.775 33.084 81.655 33.04 81.575 32.952C81.495 32.864 81.455 32.74 81.455 32.58V27.576C81.455 27.416 81.495 27.296 81.575 27.216C81.655 27.128 81.771 27.084 81.923 27.084C82.075 27.084 82.191 27.128 82.271 27.216C82.359 27.296 82.403 27.416 82.403 27.576V28.608L82.271 28.464C82.439 28 82.711 27.652 83.087 27.42C83.471 27.18 83.911 27.06 84.407 27.06C84.871 27.06 85.255 27.144 85.559 27.312C85.871 27.48 86.103 27.736 86.255 28.08C86.407 28.416 86.483 28.844 86.483 29.364V32.58C86.483 32.74 86.439 32.864 86.351 32.952C86.271 33.04 86.155 33.084 86.003 33.084C85.843 33.084 85.719 33.04 85.631 32.952C85.551 32.864 85.511 32.74 85.511 32.58V29.424C85.511 28.88 85.403 28.484 85.187 28.236C84.979 27.98 84.643 27.852 84.179 27.852C83.643 27.852 83.215 28.02 82.895 28.356C82.583 28.684 82.427 29.124 82.427 29.676V32.58C82.427 32.916 82.263 33.084 81.935 33.084ZM90.6993 33.108C90.1313 33.108 89.6393 32.984 89.2233 32.736C88.8073 32.488 88.4833 32.14 88.2513 31.692C88.0273 31.236 87.9153 30.7 87.9153 30.084C87.9153 29.62 87.9793 29.204 88.1073 28.836C88.2353 28.46 88.4233 28.14 88.6713 27.876C88.9193 27.612 89.2113 27.412 89.5473 27.276C89.8913 27.132 90.2753 27.06 90.6993 27.06C91.2673 27.06 91.7593 27.184 92.1753 27.432C92.5913 27.68 92.9113 28.032 93.1353 28.488C93.3673 28.936 93.4833 29.468 93.4833 30.084C93.4833 30.548 93.4193 30.964 93.2913 31.332C93.1633 31.7 92.9753 32.02 92.7273 32.292C92.4793 32.556 92.1833 32.76 91.8393 32.904C91.5033 33.04 91.1233 33.108 90.6993 33.108ZM90.6993 32.328C91.0593 32.328 91.3753 32.24 91.6473 32.064C91.9193 31.888 92.1273 31.632 92.2713 31.296C92.4233 30.96 92.4993 30.556 92.4993 30.084C92.4993 29.356 92.3353 28.8 92.0073 28.416C91.6873 28.032 91.2513 27.84 90.6993 27.84C90.3313 27.84 90.0113 27.928 89.7393 28.104C89.4753 28.272 89.2673 28.524 89.1153 28.86C88.9713 29.188 88.8993 29.596 88.8993 30.084C88.8993 30.804 89.0633 31.36 89.3913 31.752C89.7193 32.136 90.1553 32.328 90.6993 32.328ZM96.9113 33.108C96.5513 33.108 96.1873 33.064 95.8193 32.976C95.4593 32.888 95.1233 32.736 94.8113 32.52C94.7313 32.464 94.6753 32.4 94.6433 32.328C94.6113 32.248 94.5993 32.172 94.6073 32.1C94.6233 32.02 94.6553 31.952 94.7033 31.896C94.7593 31.84 94.8233 31.808 94.8953 31.8C94.9753 31.784 95.0633 31.8 95.1593 31.848C95.4713 32.04 95.7713 32.176 96.0593 32.256C96.3553 32.328 96.6473 32.364 96.9353 32.364C97.3913 32.364 97.7353 32.28 97.9673 32.112C98.1993 31.944 98.3153 31.716 98.3153 31.428C98.3153 31.204 98.2393 31.028 98.0873 30.9C97.9353 30.764 97.6953 30.66 97.3673 30.588L96.2753 30.348C95.7713 30.244 95.3953 30.064 95.1473 29.808C94.9073 29.552 94.7873 29.22 94.7873 28.812C94.7873 28.452 94.8793 28.144 95.0633 27.888C95.2553 27.624 95.5233 27.42 95.8673 27.276C96.2113 27.132 96.6113 27.06 97.0673 27.06C97.4193 27.06 97.7513 27.108 98.0633 27.204C98.3833 27.292 98.6713 27.436 98.9273 27.636C99.0073 27.692 99.0593 27.76 99.0833 27.84C99.1153 27.912 99.1193 27.988 99.0953 28.068C99.0793 28.14 99.0433 28.204 98.9873 28.26C98.9313 28.308 98.8633 28.336 98.7833 28.344C98.7033 28.352 98.6193 28.328 98.5313 28.272C98.2913 28.112 98.0473 27.996 97.7993 27.924C97.5513 27.844 97.3073 27.804 97.0673 27.804C96.6193 27.804 96.2793 27.892 96.0473 28.068C95.8153 28.244 95.6993 28.476 95.6993 28.764C95.6993 28.988 95.7713 29.172 95.9153 29.316C96.0593 29.46 96.2833 29.564 96.5873 29.628L97.6793 29.856C98.1993 29.968 98.5873 30.148 98.8433 30.396C99.1073 30.636 99.2393 30.964 99.2393 31.38C99.2393 31.908 99.0273 32.328 98.6033 32.64C98.1793 32.952 97.6153 33.108 96.9113 33.108ZM106.442 33.108C105.826 33.108 105.294 32.988 104.846 32.748C104.406 32.5 104.062 32.152 103.814 31.704C103.574 31.256 103.454 30.72 103.454 30.096C103.454 29.488 103.574 28.96 103.814 28.512C104.054 28.056 104.382 27.7 104.798 27.444C105.222 27.188 105.71 27.06 106.262 27.06C106.654 27.06 107.006 27.128 107.318 27.264C107.63 27.392 107.894 27.58 108.11 27.828C108.334 28.076 108.502 28.376 108.614 28.728C108.734 29.08 108.794 29.476 108.794 29.916C108.794 30.044 108.758 30.14 108.686 30.204C108.614 30.26 108.51 30.288 108.374 30.288H104.198V29.652H108.146L107.954 29.808C107.954 29.376 107.89 29.012 107.762 28.716C107.634 28.412 107.446 28.18 107.198 28.02C106.958 27.86 106.654 27.78 106.286 27.78C105.878 27.78 105.53 27.876 105.242 28.068C104.962 28.252 104.75 28.512 104.606 28.848C104.462 29.176 104.39 29.56 104.39 30V30.072C104.39 30.808 104.566 31.368 104.918 31.752C105.278 32.136 105.786 32.328 106.442 32.328C106.714 32.328 106.982 32.292 107.246 32.22C107.518 32.148 107.782 32.028 108.038 31.86C108.15 31.788 108.25 31.756 108.338 31.764C108.434 31.764 108.51 31.792 108.566 31.848C108.622 31.896 108.658 31.96 108.674 32.04C108.698 32.112 108.69 32.192 108.65 32.28C108.618 32.368 108.55 32.444 108.446 32.508C108.182 32.7 107.87 32.848 107.51 32.952C107.15 33.056 106.794 33.108 106.442 33.108ZM110.681 33.084C110.521 33.084 110.401 33.04 110.321 32.952C110.241 32.864 110.201 32.74 110.201 32.58V27.576C110.201 27.416 110.241 27.296 110.321 27.216C110.401 27.128 110.517 27.084 110.669 27.084C110.821 27.084 110.937 27.128 111.017 27.216C111.105 27.296 111.149 27.416 111.149 27.576V28.608L111.017 28.464C111.185 28 111.457 27.652 111.833 27.42C112.217 27.18 112.657 27.06 113.153 27.06C113.617 27.06 114.001 27.144 114.305 27.312C114.617 27.48 114.849 27.736 115.001 28.08C115.153 28.416 115.229 28.844 115.229 29.364V32.58C115.229 32.74 115.185 32.864 115.097 32.952C115.017 33.04 114.901 33.084 114.749 33.084C114.589 33.084 114.465 33.04 114.377 32.952C114.297 32.864 114.257 32.74 114.257 32.58V29.424C114.257 28.88 114.149 28.484 113.933 28.236C113.725 27.98 113.389 27.852 112.925 27.852C112.389 27.852 111.961 28.02 111.641 28.356C111.329 28.684 111.173 29.124 111.173 29.676V32.58C111.173 32.916 111.009 33.084 110.681 33.084ZM34.572 49.084C34.404 49.084 34.272 49.04 34.176 48.952C34.088 48.856 34.044 48.72 34.044 48.544V41.08C34.044 40.904 34.088 40.772 34.176 40.684C34.272 40.588 34.408 40.54 34.584 40.54H38.94C39.076 40.54 39.18 40.576 39.252 40.648C39.324 40.72 39.36 40.82 39.36 40.948C39.36 41.084 39.324 41.188 39.252 41.26C39.18 41.332 39.076 41.368 38.94 41.368H35.028V44.32H38.688C38.824 44.32 38.928 44.356 39 44.428C39.08 44.5 39.12 44.6 39.12 44.728C39.12 44.864 39.08 44.968 39 45.04C38.928 45.112 38.824 45.148 38.688 45.148H35.028V48.544C35.028 48.904 34.876 49.084 34.572 49.084ZM42.0878 49.108C41.6878 49.108 41.3278 49.032 41.0078 48.88C40.6958 48.72 40.4478 48.504 40.2638 48.232C40.0798 47.96 39.9878 47.656 39.9878 47.32C39.9878 46.888 40.0958 46.548 40.3118 46.3C40.5358 46.052 40.8998 45.876 41.4038 45.772C41.9158 45.668 42.6118 45.616 43.4918 45.616H44.0318V46.252H43.5038C42.8558 46.252 42.3438 46.284 41.9678 46.348C41.5998 46.404 41.3398 46.504 41.1878 46.648C41.0438 46.792 40.9718 46.996 40.9718 47.26C40.9718 47.588 41.0838 47.856 41.3078 48.064C41.5398 48.272 41.8518 48.376 42.2438 48.376C42.5638 48.376 42.8438 48.3 43.0838 48.148C43.3318 47.996 43.5238 47.788 43.6598 47.524C43.8038 47.26 43.8758 46.956 43.8758 46.612V45.244C43.8758 44.748 43.7758 44.392 43.5758 44.176C43.3758 43.952 43.0478 43.84 42.5918 43.84C42.3118 43.84 42.0318 43.876 41.7518 43.948C41.4718 44.02 41.1758 44.136 40.8638 44.296C40.7518 44.352 40.6558 44.372 40.5758 44.356C40.4958 44.332 40.4318 44.288 40.3838 44.224C40.3358 44.16 40.3078 44.088 40.2998 44.008C40.2918 43.92 40.3078 43.836 40.3478 43.756C40.3958 43.676 40.4678 43.612 40.5638 43.564C40.9158 43.388 41.2638 43.26 41.6078 43.18C41.9518 43.1 42.2798 43.06 42.5918 43.06C43.0958 43.06 43.5118 43.144 43.8398 43.312C44.1678 43.472 44.4118 43.72 44.5718 44.056C44.7318 44.384 44.8118 44.808 44.8118 45.328V48.58C44.8118 48.74 44.7718 48.864 44.6918 48.952C44.6198 49.04 44.5118 49.084 44.3678 49.084C44.2158 49.084 44.0998 49.04 44.0198 48.952C43.9398 48.864 43.8998 48.74 43.8998 48.58V47.644H44.0078C43.9438 47.948 43.8198 48.208 43.6358 48.424C43.4598 48.64 43.2398 48.808 42.9758 48.928C42.7118 49.048 42.4158 49.108 42.0878 49.108ZM49.0871 49.108C48.5031 49.108 47.9991 48.98 47.5751 48.724C47.1511 48.468 46.8231 48.112 46.5911 47.656C46.3671 47.192 46.2551 46.656 46.2551 46.048C46.2551 45.584 46.3191 45.168 46.4471 44.8C46.5751 44.432 46.7631 44.12 47.0111 43.864C47.2591 43.6 47.5551 43.4 47.8991 43.264C48.2511 43.128 48.6471 43.06 49.0871 43.06C49.3751 43.06 49.6751 43.104 49.9871 43.192C50.2991 43.28 50.5831 43.432 50.8391 43.648C50.9191 43.704 50.9711 43.772 50.9951 43.852C51.0191 43.932 51.0191 44.012 50.9951 44.092C50.9711 44.164 50.9311 44.228 50.8751 44.284C50.8191 44.332 50.7471 44.36 50.6591 44.368C50.5791 44.376 50.4951 44.348 50.4071 44.284C50.1991 44.124 49.9871 44.012 49.7711 43.948C49.5551 43.884 49.3471 43.852 49.1471 43.852C48.8351 43.852 48.5631 43.904 48.3311 44.008C48.0991 44.104 47.9031 44.244 47.7431 44.428C47.5831 44.612 47.4591 44.84 47.3711 45.112C47.2911 45.384 47.2511 45.7 47.2511 46.06C47.2511 46.756 47.4151 47.308 47.7431 47.716C48.0711 48.116 48.5391 48.316 49.1471 48.316C49.3471 48.316 49.5511 48.284 49.7591 48.22C49.9751 48.156 50.1911 48.044 50.4071 47.884C50.4951 47.82 50.5791 47.792 50.6591 47.8C50.7391 47.808 50.8071 47.84 50.8631 47.896C50.9191 47.944 50.9551 48.008 50.9711 48.088C50.9951 48.168 50.9951 48.248 50.9711 48.328C50.9471 48.4 50.8951 48.464 50.8151 48.52C50.5591 48.728 50.2791 48.88 49.9751 48.976C49.6711 49.064 49.3751 49.108 49.0871 49.108ZM54.6806 49.108C54.0646 49.108 53.5326 48.988 53.0846 48.748C52.6446 48.5 52.3006 48.152 52.0526 47.704C51.8126 47.256 51.6926 46.72 51.6926 46.096C51.6926 45.488 51.8126 44.96 52.0526 44.512C52.2926 44.056 52.6206 43.7 53.0366 43.444C53.4606 43.188 53.9486 43.06 54.5006 43.06C54.8926 43.06 55.2446 43.128 55.5566 43.264C55.8686 43.392 56.1326 43.58 56.3486 43.828C56.5726 44.076 56.7406 44.376 56.8526 44.728C56.9726 45.08 57.0326 45.476 57.0326 45.916C57.0326 46.044 56.9966 46.14 56.9246 46.204C56.8526 46.26 56.7486 46.288 56.6126 46.288H52.4366V45.652H56.3846L56.1926 45.808C56.1926 45.376 56.1286 45.012 56.0006 44.716C55.8726 44.412 55.6846 44.18 55.4366 44.02C55.1966 43.86 54.8926 43.78 54.5246 43.78C54.1166 43.78 53.7686 43.876 53.4806 44.068C53.2006 44.252 52.9886 44.512 52.8446 44.848C52.7006 45.176 52.6286 45.56 52.6286 46V46.072C52.6286 46.808 52.8046 47.368 53.1566 47.752C53.5166 48.136 54.0246 48.328 54.6806 48.328C54.9526 48.328 55.2206 48.292 55.4846 48.22C55.7566 48.148 56.0206 48.028 56.2766 47.86C56.3886 47.788 56.4886 47.756 56.5766 47.764C56.6726 47.764 56.7486 47.792 56.8046 47.848C56.8606 47.896 56.8966 47.96 56.9126 48.04C56.9366 48.112 56.9286 48.192 56.8886 48.28C56.8566 48.368 56.7886 48.444 56.6846 48.508C56.4206 48.7 56.1086 48.848 55.7486 48.952C55.3886 49.056 55.0326 49.108 54.6806 49.108ZM61.3913 49.108C60.8633 49.108 60.4073 48.972 60.0233 48.7C59.6473 48.428 59.3953 48.064 59.2673 47.608L59.3993 47.476V48.58C59.3993 48.74 59.3553 48.864 59.2673 48.952C59.1873 49.04 59.0713 49.084 58.9193 49.084C58.7593 49.084 58.6393 49.04 58.5593 48.952C58.4793 48.864 58.4393 48.74 58.4393 48.58V40.948C58.4393 40.788 58.4793 40.668 58.5593 40.588C58.6393 40.5 58.7593 40.456 58.9193 40.456C59.0713 40.456 59.1913 40.5 59.2793 40.588C59.3673 40.668 59.4113 40.788 59.4113 40.948V44.524H59.2673C59.4033 44.076 59.6593 43.72 60.0353 43.456C60.4113 43.192 60.8633 43.06 61.3913 43.06C61.9193 43.06 62.3753 43.184 62.7593 43.432C63.1433 43.672 63.4393 44.02 63.6473 44.476C63.8633 44.924 63.9713 45.46 63.9713 46.084C63.9713 46.7 63.8633 47.236 63.6473 47.692C63.4393 48.14 63.1393 48.488 62.7473 48.736C62.3633 48.984 61.9113 49.108 61.3913 49.108ZM61.1873 48.328C61.5553 48.328 61.8713 48.24 62.1353 48.064C62.4073 47.888 62.6153 47.632 62.7593 47.296C62.9113 46.96 62.9873 46.556 62.9873 46.084C62.9873 45.356 62.8233 44.8 62.4953 44.416C62.1753 44.032 61.7393 43.84 61.1873 43.84C60.8273 43.84 60.5113 43.928 60.2393 44.104C59.9673 44.272 59.7553 44.524 59.6033 44.86C59.4593 45.188 59.3873 45.596 59.3873 46.084C59.3873 46.804 59.5513 47.36 59.8793 47.752C60.2073 48.136 60.6433 48.328 61.1873 48.328ZM67.8594 49.108C67.2914 49.108 66.7994 48.984 66.3834 48.736C65.9674 48.488 65.6434 48.14 65.4114 47.692C65.1874 47.236 65.0754 46.7 65.0754 46.084C65.0754 45.62 65.1394 45.204 65.2674 44.836C65.3954 44.46 65.5834 44.14 65.8314 43.876C66.0794 43.612 66.3714 43.412 66.7074 43.276C67.0514 43.132 67.4354 43.06 67.8594 43.06C68.4274 43.06 68.9194 43.184 69.3354 43.432C69.7514 43.68 70.0714 44.032 70.2954 44.488C70.5274 44.936 70.6434 45.468 70.6434 46.084C70.6434 46.548 70.5794 46.964 70.4514 47.332C70.3234 47.7 70.1354 48.02 69.8874 48.292C69.6394 48.556 69.3434 48.76 68.9994 48.904C68.6634 49.04 68.2834 49.108 67.8594 49.108ZM67.8594 48.328C68.2194 48.328 68.5354 48.24 68.8074 48.064C69.0794 47.888 69.2874 47.632 69.4314 47.296C69.5834 46.96 69.6594 46.556 69.6594 46.084C69.6594 45.356 69.4954 44.8 69.1674 44.416C68.8474 44.032 68.4114 43.84 67.8594 43.84C67.4914 43.84 67.1714 43.928 66.8994 44.104C66.6354 44.272 66.4274 44.524 66.2754 44.86C66.1314 45.188 66.0594 45.596 66.0594 46.084C66.0594 46.804 66.2234 47.36 66.5514 47.752C66.8794 48.136 67.3154 48.328 67.8594 48.328ZM74.5274 49.108C73.9594 49.108 73.4674 48.984 73.0514 48.736C72.6354 48.488 72.3114 48.14 72.0794 47.692C71.8554 47.236 71.7434 46.7 71.7434 46.084C71.7434 45.62 71.8074 45.204 71.9354 44.836C72.0634 44.46 72.2514 44.14 72.4994 43.876C72.7474 43.612 73.0394 43.412 73.3754 43.276C73.7194 43.132 74.1034 43.06 74.5274 43.06C75.0954 43.06 75.5874 43.184 76.0034 43.432C76.4194 43.68 76.7394 44.032 76.9634 44.488C77.1954 44.936 77.3114 45.468 77.3114 46.084C77.3114 46.548 77.2474 46.964 77.1194 47.332C76.9914 47.7 76.8034 48.02 76.5554 48.292C76.3074 48.556 76.0114 48.76 75.6674 48.904C75.3314 49.04 74.9514 49.108 74.5274 49.108ZM74.5274 48.328C74.8874 48.328 75.2034 48.24 75.4754 48.064C75.7474 47.888 75.9554 47.632 76.0994 47.296C76.2514 46.96 76.3274 46.556 76.3274 46.084C76.3274 45.356 76.1634 44.8 75.8354 44.416C75.5154 44.032 75.0794 43.84 74.5274 43.84C74.1594 43.84 73.8394 43.928 73.5674 44.104C73.3034 44.272 73.0954 44.524 72.9434 44.86C72.7994 45.188 72.7274 45.596 72.7274 46.084C72.7274 46.804 72.8914 47.36 73.2194 47.752C73.5474 48.136 73.9834 48.328 74.5274 48.328ZM79.2514 49.084C79.0914 49.084 78.9714 49.04 78.8914 48.952C78.8114 48.864 78.7714 48.74 78.7714 48.58V40.948C78.7714 40.788 78.8114 40.668 78.8914 40.588C78.9714 40.5 79.0914 40.456 79.2514 40.456C79.4034 40.456 79.5234 40.5 79.6114 40.588C79.6994 40.668 79.7434 40.788 79.7434 40.948V45.76H79.7674L82.2274 43.408C82.3394 43.304 82.4354 43.224 82.5154 43.168C82.6034 43.112 82.7194 43.084 82.8634 43.084C82.9914 43.084 83.0914 43.12 83.1634 43.192C83.2354 43.256 83.2674 43.34 83.2594 43.444C83.2594 43.54 83.2114 43.644 83.1154 43.756L80.4994 46.24V45.712L83.3434 48.388C83.4554 48.5 83.5114 48.608 83.5114 48.712C83.5114 48.816 83.4714 48.904 83.3914 48.976C83.3194 49.048 83.2234 49.084 83.1034 49.084C82.9594 49.084 82.8434 49.056 82.7554 49C82.6674 48.936 82.5594 48.844 82.4314 48.724L79.7674 46.264H79.7434V48.58C79.7434 48.916 79.5794 49.084 79.2514 49.084Z" fill="#36463E"/>
<defs>
<filter id="filter0_d_391_84" x="0" y="0" width="167" height="121" filterUnits="userSpaceOnUse" color-interpolation-filters="sRGB">
<feFlood flood-opacity="0" result="BackgroundImageFix"/>
<feColorMatrix in="SourceAlpha" type="matrix" values="0 0 0 0 0 0 0 0 0 0 0 0 0 0 0 0 0 0 127 0" result="hardAlpha"/>
<feOffset dy="4"/>
<feGaussianBlur stdDeviation="2"/>
<feComposite in2="hardAlpha" operator="out"/>
<feColorMatrix type="matrix" values="0 0 0 0 0 0 0 0 0 0 0 0 0 0 0 0 0 0 0.25 0"/>
<feBlend mode="normal" in2="BackgroundImageFix" result="effect1_dropShadow_391_84"/>
<feBlend mode="normal" in="SourceGraphic" in2="effect1_dropShadow_391_84" result="shape"/>
</filter>
<filter id="filter1_d_391_84" x="10.0088" y="91.0085" width="24.8862" height="21.2527" filterUnits="userSpaceOnUse" color-interpolation-filters="sRGB">
<feFlood flood-opacity="0" result="BackgroundImageFix"/>
<feColorMatrix in="SourceAlpha" type="matrix" values="0 0 0 0 0 0 0 0 0 0 0 0 0 0 0 0 0 0 127 0" result="hardAlpha"/>
<feOffset dy="4"/>
<feGaussianBlur stdDeviation="2"/>
<feComposite in2="hardAlpha" operator="out"/>
<feColorMatrix type="matrix" values="0 0 0 0 0 0 0 0 0 0 0 0 0 0 0 0 0 0 0.25 0"/>
<feBlend mode="normal" in2="BackgroundImageFix" result="effect1_dropShadow_391_84"/>
<feBlend mode="normal" in="SourceGraphic" in2="effect1_dropShadow_391_84" result="shape"/>
</filter>
</defs>
</svg>
