<svg width="139" height="63" viewBox="0 0 139 63" fill="none" xmlns="http://www.w3.org/2000/svg">
<path d="M69.635 7.69998H75.515C77.4283 7.69998 78.8633 8.21331 79.82 9.23998C80.7766 10.2666 81.255 11.7716 81.255 13.755V26.145C81.255 28.1283 80.7766 29.6333 79.82 30.66C78.8633 31.6866 77.4283 32.2 75.515 32.2H69.635V7.69998ZM75.445 28.7C76.075 28.7 76.5533 28.5133 76.88 28.14C77.23 27.7666 77.405 27.16 77.405 26.32V13.58C77.405 12.74 77.23 12.1333 76.88 11.76C76.5533 11.3866 76.075 11.2 75.445 11.2H73.485V28.7H75.445ZM86.7603 7.69998H91.9753L95.9653 32.2H92.1153L91.4153 27.335V27.405H87.0403L86.3403 32.2H82.7703L86.7603 7.69998ZM90.9603 24.08L89.2453 11.97H89.1753L87.4953 24.08H90.9603ZM99.2367 11.2H95.2117V7.69998H107.112V11.2H103.087V32.2H99.2367V11.2ZM110.344 7.69998H115.559L119.549 32.2H115.699L114.999 27.335V27.405H110.624L109.924 32.2H106.354L110.344 7.69998ZM114.544 24.08L112.829 11.97H112.759L111.079 24.08H114.544Z" fill="white"/>
<path d="M54.632 49.6L53.144 53.2H52.392L56.744 42.752H57.176L61.56 53.2H60.744L59.24 49.6H54.632ZM56.92 43.936C56.76 44.416 56.616 44.816 56.488 45.136L54.888 48.976H58.984L57.4 45.152C57.1546 44.5546 56.9946 44.1493 56.92 43.936ZM71.5593 52.688C70.7593 53.136 69.6447 53.36 68.2153 53.36C66.7967 53.36 65.5433 52.848 64.4553 51.824C63.378 50.8 62.8393 49.5306 62.8393 48.016C62.8393 46.4906 63.3087 45.216 64.2473 44.192C65.1967 43.168 66.418 42.656 67.9113 42.656C69.1167 42.656 70.2953 42.8426 71.4473 43.216L71.2553 43.824C70.146 43.4826 68.9993 43.312 67.8153 43.312C66.6313 43.312 65.634 43.7653 64.8233 44.672C64.0233 45.568 63.6233 46.672 63.6233 47.984C63.6233 49.2853 64.0873 50.3946 65.0153 51.312C65.954 52.2293 67.0367 52.688 68.2633 52.688C69.49 52.688 70.5087 52.5173 71.3193 52.176L71.5593 52.688ZM74.1825 53.2V42.864C75.0998 42.7893 75.8785 42.752 76.5185 42.752C77.4998 42.752 78.3105 43.008 78.9505 43.52C79.5905 44.0213 79.9105 44.7413 79.9105 45.68C79.9105 46.3093 79.7291 46.8906 79.3665 47.424C79.0038 47.9573 78.5931 48.3893 78.1345 48.72C79.4038 50.4053 80.1878 51.4133 80.4865 51.744C81.0945 52.3733 81.7558 52.7306 82.4705 52.816L82.4545 53.312C81.8571 53.3013 81.3718 53.216 80.9985 53.056C80.6251 52.8853 80.2518 52.6026 79.8785 52.208C79.5158 51.8133 78.7105 50.752 77.4625 49.024C76.5985 49.024 75.7505 48.9973 74.9185 48.944V53.2H74.1825ZM77.0625 48.416C77.4785 48.416 77.9265 48.1386 78.4065 47.584C78.8865 47.0293 79.1265 46.384 79.1265 45.648C79.1265 44.912 78.8758 44.352 78.3745 43.968C77.8731 43.584 77.2225 43.392 76.4225 43.392C75.9958 43.392 75.4945 43.4133 74.9185 43.456V48.336C75.6865 48.3893 76.4011 48.416 77.0625 48.416ZM88.1182 53.36C86.6355 53.36 85.3929 52.8426 84.3902 51.808C83.3875 50.7733 82.8862 49.5093 82.8862 48.016C82.8862 46.512 83.3875 45.2426 84.3902 44.208C85.3929 43.1733 86.6355 42.656 88.1182 42.656C89.6009 42.656 90.8435 43.1733 91.8462 44.208C92.8489 45.2426 93.3502 46.512 93.3502 48.016C93.3502 49.5093 92.8489 50.7733 91.8462 51.808C90.8435 52.8426 89.6009 53.36 88.1182 53.36ZM88.1182 43.312C86.8382 43.312 85.7715 43.7653 84.9182 44.672C84.0755 45.5786 83.6542 46.6933 83.6542 48.016C83.6542 49.328 84.0755 50.4373 84.9182 51.344C85.7715 52.24 86.8382 52.688 88.1182 52.688C89.4089 52.688 90.4755 52.24 91.3182 51.344C92.1609 50.4373 92.5822 49.328 92.5822 48.016C92.5822 46.6933 92.1609 45.5786 91.3182 44.672C90.4755 43.7653 89.4089 43.312 88.1182 43.312ZM99.2195 53.2H98.4995V49.488L94.5795 42.816H95.4595L98.4835 47.968C98.7181 48.4373 98.8515 48.688 98.8835 48.72C98.9475 48.5813 99.0808 48.336 99.2835 47.984L102.307 42.816H103.139L99.2195 49.52V53.2ZM109.587 53.36C108.104 53.36 106.862 52.8426 105.859 51.808C104.856 50.7733 104.355 49.5093 104.355 48.016C104.355 46.512 104.856 45.2426 105.859 44.208C106.862 43.1733 108.104 42.656 109.587 42.656C111.07 42.656 112.312 43.1733 113.315 44.208C114.318 45.2426 114.819 46.512 114.819 48.016C114.819 49.5093 114.318 50.7733 113.315 51.808C112.312 52.8426 111.07 53.36 109.587 53.36ZM109.587 43.312C108.307 43.312 107.24 43.7653 106.387 44.672C105.544 45.5786 105.123 46.6933 105.123 48.016C105.123 49.328 105.544 50.4373 106.387 51.344C107.24 52.24 108.307 52.688 109.587 52.688C110.878 52.688 111.944 52.24 112.787 51.344C113.63 50.4373 114.051 49.328 114.051 48.016C114.051 46.6933 113.63 45.5786 112.787 44.672C111.944 43.7653 110.878 43.312 109.587 43.312ZM122.362 43.312C121.178 43.312 120.181 43.7653 119.37 44.672C118.57 45.568 118.17 46.672 118.17 47.984C118.17 49.296 118.624 50.4106 119.53 51.328C120.437 52.2346 121.504 52.688 122.73 52.688C123.968 52.688 124.928 52.544 125.61 52.256V47.984H126.346V52.592C125.514 53.104 124.336 53.36 122.81 53.36C121.285 53.36 120 52.8426 118.954 51.808C117.909 50.7733 117.386 49.504 117.386 48C117.386 46.4853 117.856 45.216 118.794 44.192C119.744 43.168 120.965 42.656 122.458 42.656C123.664 42.656 124.842 42.8426 125.994 43.216L125.802 43.824C124.693 43.4826 123.546 43.312 122.362 43.312ZM130.351 49.6L128.863 53.2H128.111L132.463 42.752H132.895L137.279 53.2H136.463L134.959 49.6H130.351ZM132.639 43.936C132.479 44.416 132.335 44.816 132.207 45.136L130.607 48.976H134.703L133.119 45.152C132.873 44.5546 132.713 44.1493 132.639 43.936Z" fill="white"/>
<path d="M41.5417 20.0343C41.9541 19.4761 36.1463 9.9863 36.2838 9.46091C36.4212 8.93552 44.4971 20.2314 43.0194 21.6105C42.0597 22.5062 37.3019 21.3796 34.0844 20.4168C34.0844 20.4168 33.1565 19.9247 32.8845 20.0431C31.7869 19.6866 31.0602 19.4053 31.0602 19.3448C31.0602 19.1149 41.1293 20.5926 41.5417 20.0343Z" fill="white"/>
<path d="M33.6377 25.5181C33.5689 25.1897 32.8816 20.6911 32.8129 20.1985C32.8013 20.1158 32.8295 20.067 32.8845 20.0431C33.248 20.1612 33.6523 20.2876 34.0844 20.4168C33.3971 21.2493 37.2117 29.4257 37.3148 30.2137C37.4179 31.0018 37.2117 32.775 37.0398 33.5631C36.868 34.3512 36.2494 30.6734 36.1807 30.3122C36.112 29.951 33.7064 25.8464 33.6377 25.5181Z" fill="white"/>
<path d="M35.1154 35.7303C35.1154 35.3034 34.4281 37.5692 34.2906 38.2259C34.1531 38.8826 34.1531 39.9006 34.2906 40.3603C34.4281 40.82 36.112 47.3545 35.8027 47.9784C35.4934 48.6023 35.3559 48.2739 35.1154 48.5695C34.8748 48.865 34.5655 49.1277 34.5999 49.3904C34.6343 49.6531 35.3903 49.7844 35.5965 49.6531C35.8027 49.5217 36.7649 47.5515 36.6275 47.0261C36.49 46.5008 35.1154 39.5722 35.1154 38.7185V35.7303Z" fill="white"/>
<path d="M36.3525 49.3904C36.0776 49.1277 40.5108 50.5068 40.5108 50.5068C40.5108 50.5068 41.1738 50.6962 41.3355 51.0322C41.4645 51.3002 41.5074 51.6561 41.3355 51.7875C41.1637 51.9188 26.146 51.9845 25.5618 52.1158C24.9775 52.2472 16.9704 52.9696 16.3862 53.0024C15.802 53.0353 11.3001 52.8711 10.166 52.8054C9.03196 52.7397 10.3035 52.3785 13.1214 51.7875C15.9394 51.1964 38.7925 51.5576 39.1018 51.4591C39.4111 51.3606 39.9609 51.2621 39.6173 51.0322C39.2736 50.8024 36.6275 49.6531 36.3525 49.3904Z" fill="white"/>
<path d="M33.7064 50.7039C33.5689 50.5725 32.916 50.3235 32.3661 50.2441C31.9415 50.1828 30.8884 49.9815 31.2664 50.2441C31.6445 50.5068 31.7476 50.8024 32.0568 50.8024C32.3661 50.8024 33.8438 50.8352 33.7064 50.7039Z" fill="white"/>
<path d="M26.1116 46.0082C25.5961 45.5485 19.9602 44.6291 20.2007 44.9574C20.4413 45.2858 22.1939 46.3037 22.9156 46.0082C23.6373 45.7127 26.6271 46.4679 26.1116 46.0082Z" fill="white"/>
<path d="M18.5168 44.5962C18.0357 44.6619 14.2555 45.3186 13.1214 45.8769C11.9874 46.4351 11.8843 48.3068 11.5063 48.865C11.1283 49.4232 13.5682 52.0502 12.6747 48.9635C11.7812 45.8769 18.998 44.5306 18.5168 44.5962Z" fill="white"/>
<path d="M9.89109 51.0979C10.0629 51.4591 9.5818 48.5366 9.30688 48.1754C9.03196 47.8142 6.11089 48.2411 6.38581 48.2739C6.66074 48.3068 8.27591 48.4381 8.37901 48.5366C8.48211 48.6351 9.71927 50.7367 9.89109 51.0979Z" fill="white"/>
<path d="M6.21398 48.4053C5.97343 48.2739 0.371849 49.0292 0.234387 50.3755C0.0969247 51.7218 0.406214 53.2323 0.543676 53.1995C0.681138 53.1666 1.12789 52.9039 1.09352 52.5756C1.05916 52.2472 0.509311 51.9517 0.646773 51.0322C0.784235 50.1128 6.45454 48.5366 6.21398 48.4053Z" fill="white"/>
<path d="M25.5618 49.8829C25.5618 49.8829 19.4791 48.1426 17.9326 48.1098C16.3862 48.0769 16.0769 48.7008 15.7676 48.865C15.4583 49.0292 17.1078 48.7008 18.0357 48.865C18.9636 49.0292 22.2627 50.0471 23.328 50.1128C24.3933 50.1785 25.5274 49.9815 25.5961 49.9486C25.6649 49.9158 25.5618 49.8829 25.5618 49.8829Z" fill="white"/>
<path d="M32.9503 28.1122L32.6411 37.0109C32.5203 40.4861 31.5785 39.6208 31.4726 41.3782C31.4038 42.5202 31.6788 44.0052 31.6788 44.3007C31.6788 44.5962 30.1324 42.7574 30.3042 41.3782C30.476 39.9991 31.0786 39.0326 31.4726 37.5035C32.4007 33.9023 33.0711 24.637 32.9503 28.1122Z" fill="white"/>
<path d="M40.8544 7.42503C40.5451 7.22801 39.6173 7.03099 39.6173 7.03099C39.6173 7.03099 37.6241 6.80113 37.7959 7.03099C37.9677 7.26085 38.4832 8.08177 38.9987 8.57432C39.5142 9.06687 40.3733 8.41013 40.3733 8.41013C40.3733 8.41013 41.1637 7.62205 40.8544 7.42503Z" fill="white"/>
<path d="M27.6237 17.5387C27.6237 17.5387 25.2723 16.4068 23.6373 16.2581L23.5857 16.2534C22.9356 16.1942 22.5434 16.1584 21.8847 16.2581C21.2307 16.3571 20.1664 16.6522 20.2695 16.7507C20.2695 16.7507 20.4394 17.0651 20.6131 17.2104C21.0216 17.552 21.6097 17.6159 21.9877 17.4074C22.3658 17.1989 22.8278 17.0814 23.3967 17.0134C23.9966 16.9416 24.344 17.0024 24.9432 17.079C25.6691 17.1719 26.0361 17.434 26.7646 17.5059C27.0986 17.5389 27.6237 17.5387 27.6237 17.5387Z" fill="white"/>
<path d="M31.507 22.9568C31.3008 22.7598 25.9741 17.9656 25.6649 17.8343C25.3556 17.7029 26.0429 17.6044 26.0429 17.6044C26.0429 17.6044 27.3556 17.8801 28.1048 18.2612C30.1652 19.3092 31.7132 23.1538 31.507 22.9568Z" fill="white"/>
<path d="M34.5655 12.3834C34.4968 12.3177 33.0878 8.90269 33.0878 8.57432C33.0878 8.24595 34.2562 8.57432 34.2562 8.57432C34.2562 8.57432 34.6458 9.33281 34.7717 9.85495C35.007 10.8304 34.7111 12.3995 34.6686 12.4162C34.6261 12.4329 34.6343 12.4491 34.5655 12.3834Z" fill="white"/>
<path d="M34.5655 15.273C34.2562 15.5357 32.5036 15.9954 32.263 15.5357C32.0225 15.076 32.0568 13.9595 31.0602 13.4342C30.0636 12.9088 28.5017 13.0261 27.0051 12.3834C25.6738 11.8116 24.9144 11.4265 23.8435 10.4789C23.4255 10.109 23.05 9.96949 22.8469 9.46091C22.591 8.82043 22.8469 8.41014 23.0874 7.72056C23.328 7.03099 25.3212 10.3803 25.8023 10.5774C26.2834 10.7744 27.5976 11.296 28.7921 11.6281C30.3286 12.0554 32.0568 12.0222 32.8129 12.3834C33.5689 12.7446 34.8748 15.0103 34.5655 15.273Z" fill="white"/>
<path d="M34.0844 7.03099C33.9126 6.63695 26.8677 6.34142 25.6649 5.98022C24.4621 5.61901 20.6819 4.27271 20.0976 4.10852C19.5134 3.94434 16.9017 4.30554 16.6955 4.5354C16.4893 4.76526 15.7676 6.43993 16.4893 5.98022C17.2109 5.5205 18.1388 5.06079 18.8949 5.09363C19.6509 5.12646 24.1184 6.53844 24.9432 6.73546C25.768 6.93248 34.2562 7.42503 34.0844 7.03099Z" fill="white"/>
<path d="M19.376 13.6969C18.8949 13.5327 18.2075 13.4013 18.0701 12.9088C17.9326 12.4162 18.2014 11.2471 17.589 10.4789C17.1243 9.89595 16.5483 9.90638 15.9394 9.46091C15.7197 9.30019 15.4933 9.27911 15.3896 9.03403C15.2229 8.64029 15.5326 8.25292 15.9394 8.08177C16.2096 7.96808 16.4893 7.72056 16.6955 8.08177C16.9017 8.44297 17.8872 8.92521 18.4137 9.65793C19.372 10.9915 19.8571 13.861 19.376 13.6969Z" fill="white"/>
<path d="M17.589 2.95924C17.1422 2.72938 17.1759 1.67907 16.4893 1.25173C15.9355 0.90706 15.4984 0.839321 14.8397 0.890523C13.3631 1.0053 12.9227 2.28315 12.2623 3.5503C11.4325 5.14251 11.4463 7.58922 11.7812 8.08177C12.1161 8.57432 13.362 9.03403 12.8122 9.03403C12.2623 9.03403 11.6437 9.19822 11.3001 9.03403C10.9564 8.86985 10.7618 6.463 11.0939 4.86377C11.4095 3.34392 11.5841 2.26357 12.8122 1.25173C13.5485 0.645024 14.0743 0.235615 15.0459 0.200951C15.7095 0.177279 16.6955 0.594992 16.6955 0.594992C16.6955 0.594992 18.0357 3.18909 17.589 2.95924Z" fill="white"/>
<path d="M34.0844 20.4168C37.3019 21.3796 42.0597 22.5062 43.0194 21.6105C44.4971 20.2314 36.4212 8.93552 36.2838 9.46091C36.1463 9.9863 41.9541 19.4761 41.5417 20.0343C41.1293 20.5926 31.0602 19.1149 31.0602 19.3448C31.0602 19.4053 31.7869 19.6866 32.8845 20.0431M34.0844 20.4168C33.3971 21.2493 37.2117 29.4257 37.3148 30.2137C37.4179 31.0018 37.2117 32.775 37.0398 33.5631C36.868 34.3512 36.2494 30.6734 36.1807 30.3122C36.112 29.951 33.7064 25.8464 33.6377 25.5181C33.5689 25.1897 32.8816 20.6911 32.8129 20.1985C32.8013 20.1158 32.8295 20.067 32.8845 20.0431M34.0844 20.4168C34.0844 20.4168 33.1565 19.9247 32.8845 20.0431M34.0844 20.4168C33.6523 20.2876 33.248 20.1612 32.8845 20.0431M35.1154 35.7303C35.1154 35.3034 34.4281 37.5692 34.2906 38.2259C34.1531 38.8826 34.1531 39.9006 34.2906 40.3603C34.4281 40.82 36.112 47.3545 35.8027 47.9784C35.4934 48.6023 35.3559 48.2739 35.1154 48.5695C34.8748 48.865 34.5655 49.1277 34.5999 49.3904C34.6343 49.6531 35.3903 49.7844 35.5965 49.6531C35.8027 49.5217 36.7649 47.5515 36.6275 47.0261C36.49 46.5008 35.1154 39.5722 35.1154 38.7185M35.1154 35.7303C35.1154 36.1572 35.1154 37.8647 35.1154 38.7185M35.1154 35.7303V38.7185M32.9503 28.1122C32.8296 31.5874 32.7618 33.5358 32.6411 37.0109M32.9503 28.1122C33.0711 24.637 32.4007 33.9023 31.4726 37.5035C31.0786 39.0326 30.476 39.9991 30.3042 41.3782C30.1324 42.7574 31.6788 44.5962 31.6788 44.3007C31.6788 44.0052 31.4038 42.5202 31.4726 41.3782C31.5785 39.6208 32.5203 40.4861 32.6411 37.0109M32.9503 28.1122L32.6411 37.0109M23.6373 16.2581C25.2723 16.4068 27.6237 17.5387 27.6237 17.5387C27.6237 17.5387 27.0986 17.5389 26.7646 17.5059C26.0361 17.434 25.6691 17.1719 24.9432 17.079C24.344 17.0024 23.9966 16.9416 23.3967 17.0134C22.8278 17.0814 22.3658 17.1989 21.9877 17.4074C21.6097 17.6159 21.0216 17.552 20.6131 17.2104C20.4394 17.0651 20.2695 16.7507 20.2695 16.7507C20.1664 16.6522 21.2307 16.3571 21.8847 16.2581C22.5434 16.1584 22.9356 16.1942 23.5857 16.2534M23.6373 16.2581L23.5857 16.2534M23.6373 16.2581C23.6199 16.2565 23.6027 16.255 23.5857 16.2534M33.7064 50.7039C33.5689 50.5725 32.916 50.3235 32.3661 50.2441C31.9415 50.1828 30.8884 49.9815 31.2664 50.2441C31.6445 50.5068 31.7476 50.8024 32.0568 50.8024C32.3661 50.8024 33.8438 50.8352 33.7064 50.7039ZM36.3525 49.3904C36.0776 49.1277 40.5108 50.5068 40.5108 50.5068C40.5108 50.5068 41.1738 50.6962 41.3355 51.0322C41.4645 51.3002 41.5074 51.6561 41.3355 51.7875C41.1637 51.9188 26.146 51.9845 25.5618 52.1158C24.9775 52.2472 16.9704 52.9696 16.3862 53.0024C15.802 53.0353 11.3001 52.8711 10.166 52.8054C9.03196 52.7397 10.3035 52.3785 13.1214 51.7875C15.9394 51.1964 38.7925 51.5576 39.1018 51.4591C39.4111 51.3606 39.9609 51.2621 39.6173 51.0322C39.2736 50.8024 36.6275 49.6531 36.3525 49.3904ZM25.5618 49.8829C25.5618 49.8829 19.4791 48.1426 17.9326 48.1098C16.3862 48.0769 16.0769 48.7008 15.7676 48.865C15.4583 49.0292 17.1078 48.7008 18.0357 48.865C18.9636 49.0292 22.2627 50.0471 23.328 50.1128C24.3933 50.1785 25.5274 49.9815 25.5961 49.9486C25.6649 49.9158 25.5618 49.8829 25.5618 49.8829ZM26.1116 46.0082C25.5961 45.5485 19.9602 44.6291 20.2007 44.9574C20.4413 45.2858 22.1939 46.3037 22.9156 46.0082C23.6373 45.7127 26.6271 46.4679 26.1116 46.0082ZM18.5168 44.5962C18.0357 44.6619 14.2555 45.3186 13.1214 45.8769C11.9874 46.4351 11.8843 48.3068 11.5063 48.865C11.1283 49.4232 13.5682 52.0502 12.6747 48.9635C11.7812 45.8769 18.998 44.5306 18.5168 44.5962ZM9.89109 51.0979C10.0629 51.4591 9.5818 48.5366 9.30688 48.1754C9.03196 47.8142 6.11089 48.2411 6.38581 48.2739C6.66074 48.3068 8.27591 48.4381 8.37901 48.5366C8.48211 48.6351 9.71927 50.7367 9.89109 51.0979ZM6.21398 48.4053C5.97343 48.2739 0.371849 49.0292 0.234387 50.3755C0.0969247 51.7218 0.406214 53.2323 0.543676 53.1995C0.681138 53.1666 1.12789 52.9039 1.09352 52.5756C1.05916 52.2472 0.509311 51.9517 0.646773 51.0322C0.784235 50.1128 6.45454 48.5366 6.21398 48.4053ZM40.8544 7.42503C40.5451 7.22801 39.6173 7.03099 39.6173 7.03099C39.6173 7.03099 37.6241 6.80113 37.7959 7.03099C37.9677 7.26085 38.4832 8.08177 38.9987 8.57432C39.5142 9.06687 40.3733 8.41013 40.3733 8.41013C40.3733 8.41013 41.1637 7.62205 40.8544 7.42503ZM34.5655 12.3834C34.4968 12.3177 33.0878 8.90269 33.0878 8.57432C33.0878 8.24595 34.2562 8.57432 34.2562 8.57432C34.2562 8.57432 34.6458 9.33281 34.7717 9.85495C35.007 10.8304 34.7111 12.3995 34.6686 12.4162C34.6261 12.4329 34.6343 12.4491 34.5655 12.3834ZM31.507 22.9568C31.3008 22.7598 25.9741 17.9656 25.6649 17.8343C25.3556 17.7029 26.0429 17.6044 26.0429 17.6044C26.0429 17.6044 27.3556 17.8801 28.1048 18.2612C30.1652 19.3092 31.7132 23.1538 31.507 22.9568ZM34.5655 15.273C34.2562 15.5357 32.5036 15.9954 32.263 15.5357C32.0225 15.076 32.0568 13.9595 31.0602 13.4342C30.0636 12.9088 28.5017 13.0261 27.0051 12.3834C25.6738 11.8116 24.9144 11.4265 23.8435 10.4789C23.4255 10.109 23.05 9.96949 22.8469 9.46091C22.591 8.82043 22.8469 8.41014 23.0874 7.72056C23.328 7.03099 25.3212 10.3803 25.8023 10.5774C26.2834 10.7744 27.5976 11.296 28.7921 11.6281C30.3286 12.0554 32.0568 12.0222 32.8129 12.3834C33.5689 12.7446 34.8748 15.0103 34.5655 15.273ZM34.0844 7.03099C33.9126 6.63695 26.8677 6.34142 25.6649 5.98022C24.4621 5.61901 20.6819 4.27271 20.0976 4.10852C19.5134 3.94434 16.9017 4.30554 16.6955 4.5354C16.4893 4.76526 15.7676 6.43993 16.4893 5.98022C17.2109 5.5205 18.1388 5.06079 18.8949 5.09363C19.6509 5.12646 24.1184 6.53844 24.9432 6.73546C25.768 6.93248 34.2562 7.42503 34.0844 7.03099ZM19.376 13.6969C18.8949 13.5327 18.2075 13.4013 18.0701 12.9088C17.9326 12.4162 18.2014 11.2471 17.589 10.4789C17.1243 9.89595 16.5483 9.90638 15.9394 9.46091C15.7197 9.30019 15.4933 9.27911 15.3896 9.03403C15.2229 8.64029 15.5326 8.25292 15.9394 8.08177C16.2096 7.96808 16.4893 7.72056 16.6955 8.08177C16.9017 8.44297 17.8872 8.92521 18.4137 9.65793C19.372 10.9915 19.8571 13.861 19.376 13.6969ZM17.589 2.95924C17.1422 2.72938 17.1759 1.67907 16.4893 1.25173C15.9355 0.90706 15.4984 0.839321 14.8397 0.890523C13.3631 1.0053 12.9227 2.28315 12.2623 3.5503C11.4325 5.14251 11.4463 7.58922 11.7812 8.08177C12.1161 8.57432 13.362 9.03403 12.8122 9.03403C12.2623 9.03403 11.6437 9.19822 11.3001 9.03403C10.9564 8.86985 10.7618 6.463 11.0939 4.86377C11.4095 3.34392 11.5841 2.26357 12.8122 1.25173C13.5485 0.645024 14.0743 0.235615 15.0459 0.200951C15.7095 0.177279 16.6955 0.594992 16.6955 0.594992C16.6955 0.594992 18.0357 3.18909 17.589 2.95924Z" stroke="white" stroke-width="0.4"/>
</svg>
