<svg width="21" height="20" viewBox="0 0 21 20" fill="none" xmlns="http://www.w3.org/2000/svg">
<rect x="0.75" y="0.75" width="19.5" height="18.5" rx="4.25" stroke="white" stroke-width="1.5"/>
<path d="M15.9994 12.4556V14.42C15.9995 14.5607 15.9462 14.6961 15.8503 14.799C15.7545 14.9019 15.6231 14.9646 15.4828 14.9744C15.2402 14.9915 15.0421 15 14.8884 15C9.97922 15 6 11.0206 6 6.11111C6 5.95778 6.00852 5.75963 6.02555 5.51667C6.0354 5.37636 6.0981 5.24501 6.20099 5.14912C6.30389 5.05323 6.43932 4.99994 6.57997 5H8.5443C8.61321 4.99993 8.67968 5.02548 8.73081 5.07168C8.78193 5.11788 8.81406 5.18143 8.82095 5.25C8.83355 5.37741 8.8454 5.47963 8.85651 5.55667C8.9669 6.32718 9.19315 7.07658 9.52758 7.77944C9.58036 7.89056 9.54591 8.02333 9.44592 8.09444L8.2471 8.95111C8.98023 10.659 10.3413 12.0202 12.0491 12.7533L12.9046 11.5567C12.9394 11.5076 12.9905 11.4724 13.0487 11.4573C13.1069 11.4421 13.1686 11.448 13.2229 11.4739C13.9257 11.8077 14.6748 12.0334 15.445 12.1433C15.5221 12.1544 15.6239 12.1663 15.7506 12.1789C15.819 12.1859 15.8824 12.2181 15.9285 12.2692C15.9746 12.3203 15.9995 12.3867 15.9994 12.4556Z" fill="white"/>
</svg>
