<svg width="131" height="69" viewBox="0 0 131 69" fill="none" xmlns="http://www.w3.org/2000/svg">
<path d="M72.12 21.08C72.12 19.0533 71.0667 18.04 68.96 18.04H65.24V38.72H68.96C71.0667 38.72 72.12 37.6667 72.12 35.56V21.08ZM61.48 14.88H69.32C71.4533 14.88 73.08 15.4133 74.2 16.48C75.32 17.5467 75.88 19.04 75.88 20.96V35.76C75.88 37.7067 75.3467 39.24 74.28 40.36C73.24 41.4533 71.64 42 69.48 42H61.48V14.88ZM91.7863 42L90.3063 34.8H83.5863L82.1063 42H78.4263L84.3463 14.88H89.6263L95.4663 42H91.7863ZM84.2263 31.56H89.6263L86.9063 18.4L84.2263 31.56ZM110.471 14.88V18.2H105.311V42H101.511V18.2H96.3513V14.88H110.471ZM124.638 42L123.158 34.8H116.438L114.958 42H111.278L117.198 14.88H122.478L128.318 42H124.638ZM117.078 31.56H122.478L119.758 18.4L117.078 31.56Z" fill="white"/>
<path d="M64.42 54.7V55.3C64.42 55.74 64.52 56.0667 64.72 56.28C64.9333 56.4933 65.34 56.6 65.94 56.6C66.5533 56.6 67.1133 56.3933 67.62 55.98V52.64L65.72 53.16C65.2 53.3067 64.8533 53.4933 64.68 53.72C64.5067 53.9333 64.42 54.26 64.42 54.7ZM63.12 46.78C63.88 46.5267 64.8467 46.4 66.02 46.4C68.3 46.4 69.44 47.4333 69.44 49.5V58H67.64V57.18C67.0533 57.7667 66.28 58.06 65.32 58.06C63.48 58.06 62.56 57.1333 62.56 55.28V54.62C62.56 53.8733 62.7533 53.2733 63.14 52.82C63.5267 52.3533 64.1467 52 65 51.76L67.62 51.04V49.5C67.62 49.0067 67.4867 48.6533 67.22 48.44C66.9533 48.2133 66.3867 48.1 65.52 48.1C64.6667 48.1 63.8667 48.2333 63.12 48.5V46.78ZM71.6142 49.44C71.6142 47.4133 72.7876 46.4 75.1342 46.4C75.9742 46.4 76.7209 46.4933 77.3742 46.68V48.42C76.7076 48.2333 76.0276 48.14 75.3342 48.14C74.6542 48.14 74.1742 48.2533 73.8942 48.48C73.6276 48.7067 73.4942 49.0667 73.4942 49.56V54.96C73.4942 55.4533 73.6276 55.8133 73.8942 56.04C74.1742 56.2667 74.6676 56.38 75.3742 56.38C76.0809 56.38 76.7542 56.2733 77.3942 56.06V57.82C76.6209 58.0067 75.8676 58.1 75.1342 58.1C72.7876 58.1 71.6142 57.0867 71.6142 55.06V49.44ZM83.3356 46.44H83.7956V48.22H83.1956C82.569 48.22 81.8823 48.4733 81.1356 48.98V58H79.2556V46.5H81.0556V47.34C81.0956 47.3133 81.169 47.26 81.2756 47.18C81.3956 47.1 81.469 47.0533 81.4956 47.04C81.5356 47.0133 81.6023 46.9667 81.6956 46.9C81.8023 46.8333 81.8756 46.7933 81.9156 46.78C81.9556 46.7667 82.0156 46.74 82.0956 46.7C82.189 46.6467 82.2623 46.6133 82.3156 46.6C82.369 46.5867 82.4356 46.5667 82.5156 46.54C82.609 46.5 82.6956 46.48 82.7756 46.48C83.0156 46.4533 83.2023 46.44 83.3356 46.44ZM89.8745 49.48C89.8745 48.4533 89.3612 47.94 88.3345 47.94C87.3079 47.94 86.7945 48.4533 86.7945 49.48V55.02C86.7945 56.0467 87.3079 56.56 88.3345 56.56C89.3612 56.56 89.8745 56.0467 89.8745 55.02V49.48ZM84.9345 49.44C84.9345 48.48 85.2145 47.72 85.7745 47.16C86.3345 46.5867 87.1879 46.3 88.3345 46.3C89.4812 46.3 90.3345 46.5867 90.8945 47.16C91.4679 47.72 91.7545 48.48 91.7545 49.44V55.06C91.7545 56.02 91.4679 56.7867 90.8945 57.36C90.3345 57.92 89.4812 58.2 88.3345 58.2C87.1879 58.2 86.3345 57.92 85.7745 57.36C85.2145 56.7867 84.9345 56.02 84.9345 55.06V49.44ZM98.7213 46.5H100.581L97.5613 60.98H95.7413L96.3413 58H95.5413L93.1013 46.5H94.9813C96.0079 51.5267 96.6279 54.8933 96.8413 56.6C97.0546 55.0133 97.3346 53.3467 97.6813 51.6L98.7213 46.5ZM106.867 49.48C106.867 48.4533 106.353 47.94 105.327 47.94C104.3 47.94 103.787 48.4533 103.787 49.48V55.02C103.787 56.0467 104.3 56.56 105.327 56.56C106.353 56.56 106.867 56.0467 106.867 55.02V49.48ZM101.927 49.44C101.927 48.48 102.207 47.72 102.767 47.16C103.327 46.5867 104.18 46.3 105.327 46.3C106.473 46.3 107.327 46.5867 107.887 47.16C108.46 47.72 108.747 48.48 108.747 49.44V55.06C108.747 56.02 108.46 56.7867 107.887 57.36C107.327 57.92 106.473 58.2 105.327 58.2C104.18 58.2 103.327 57.92 102.767 57.36C102.207 56.7867 101.927 56.02 101.927 55.06V49.44ZM118.433 47.24H117.753C117.447 47.24 117.187 47.3 116.973 47.42C117.347 47.8867 117.533 48.5067 117.533 49.28V50.92C117.533 51.8533 117.247 52.58 116.673 53.1C116.113 53.62 115.26 53.8867 114.113 53.9C113.487 53.9 113.173 54.1933 113.173 54.78C113.173 55.06 113.253 55.26 113.413 55.38C113.587 55.5 113.887 55.56 114.313 55.56H115.473C117.367 55.56 118.313 56.3533 118.313 57.94V58.28C118.313 60.08 117.04 60.98 114.493 60.98H113.713C112.26 60.98 111.16 60.7467 110.413 60.28V58.52C111.293 59.0933 112.38 59.38 113.673 59.38H114.313C115.113 59.38 115.68 59.2867 116.013 59.1C116.347 58.9133 116.513 58.6333 116.513 58.26V58.08C116.513 57.76 116.427 57.5267 116.253 57.38C116.093 57.22 115.773 57.14 115.293 57.14H114.073C112.353 57.14 111.493 56.56 111.493 55.4V55.08C111.493 54.3333 111.847 53.88 112.553 53.72C111.207 53.3333 110.533 52.4 110.533 50.92V49.28C110.533 48.3333 110.82 47.6 111.393 47.08C111.98 46.56 112.793 46.3 113.833 46.3C114.873 46.3 115.673 46.46 116.233 46.78C116.513 45.9267 117.147 45.5 118.133 45.5H118.433V47.24ZM115.653 50.9V49.3C115.653 48.8067 115.527 48.4467 115.273 48.22C115.02 47.98 114.607 47.86 114.033 47.86C113.46 47.86 113.047 47.98 112.793 48.22C112.54 48.4467 112.413 48.8067 112.413 49.3V50.9C112.413 51.3933 112.54 51.76 112.793 52C113.047 52.2267 113.46 52.34 114.033 52.34C114.607 52.34 115.02 52.2267 115.273 52C115.527 51.76 115.653 51.3933 115.653 50.9ZM121.178 54.7V55.3C121.178 55.74 121.278 56.0667 121.478 56.28C121.691 56.4933 122.098 56.6 122.698 56.6C123.311 56.6 123.871 56.3933 124.378 55.98V52.64L122.478 53.16C121.958 53.3067 121.611 53.4933 121.438 53.72C121.264 53.9333 121.178 54.26 121.178 54.7ZM119.878 46.78C120.638 46.5267 121.604 46.4 122.778 46.4C125.058 46.4 126.198 47.4333 126.198 49.5V58H124.398V57.18C123.811 57.7667 123.038 58.06 122.078 58.06C120.238 58.06 119.318 57.1333 119.318 55.28V54.62C119.318 53.8733 119.511 53.2733 119.898 52.82C120.284 52.3533 120.904 52 121.758 51.76L124.378 51.04V49.5C124.378 49.0067 124.244 48.6533 123.978 48.44C123.711 48.2133 123.144 48.1 122.278 48.1C121.424 48.1 120.624 48.2333 119.878 48.5V46.78Z" fill="white"/>
<path d="M2.15957 25.8221C1.62249 25.0953 9.18609 12.7407 9.00709 12.0567C8.82809 11.3727 -1.68937 26.0786 0.235101 27.8741C1.48502 29.0402 7.68123 27.5735 11.8714 26.3201C11.8714 26.3201 13.0798 25.6794 13.4341 25.8335C14.8636 25.3694 15.8099 25.0031 15.8099 24.9243C15.8099 24.6251 2.69665 26.5488 2.15957 25.8221Z" fill="white"/>
<path d="M12.4532 32.9613C12.5427 32.5338 13.4378 26.6771 13.5273 26.0358C13.5424 25.9281 13.5057 25.8646 13.4341 25.8335C12.9606 25.9873 12.4341 26.1517 11.8714 26.3201C12.7665 27.4038 7.7987 38.0485 7.66443 39.0745C7.53017 40.1005 7.7987 42.409 8.02247 43.435C8.24625 44.461 9.05184 39.673 9.14135 39.2028C9.23086 38.7325 12.3637 33.3888 12.4532 32.9613Z" fill="white"/>
<path d="M10.5288 46.2565C10.5288 45.7007 11.4239 48.6504 11.6029 49.5054C11.7819 50.3604 11.7819 51.6857 11.6029 52.2842C11.4239 52.8827 9.23086 61.3899 9.63365 62.2021C10.0365 63.0144 10.2155 62.5869 10.5288 62.9716C10.842 63.3563 11.2448 63.6983 11.2001 64.0403C11.1553 64.3823 10.1707 64.5533 9.90219 64.3823C9.63365 64.2113 8.38051 61.6464 8.55953 60.9624C8.73855 60.2784 10.5288 51.2582 10.5288 50.1467V46.2565Z" fill="white"/>
<path d="M8.91757 64.0403C9.27561 63.6983 3.50221 65.4938 3.50221 65.4938C3.50221 65.4938 2.63877 65.7403 2.42809 66.1778C2.26009 66.5267 2.20431 66.9901 2.42809 67.1611C2.65186 67.3321 22.2098 67.4176 22.9707 67.5886C23.7315 67.7596 34.1594 68.7001 34.9203 68.7428C35.6811 68.7856 41.544 68.5718 43.0209 68.4863C44.4979 68.4008 42.8419 67.9306 39.172 67.1611C35.5021 66.3916 5.73996 66.8618 5.33717 66.7336C4.93437 66.6053 4.21829 66.4771 4.66584 66.1778C5.11339 65.8786 8.55953 64.3823 8.91757 64.0403Z" fill="white"/>
<path d="M12.3637 65.7503C12.5427 65.5793 13.3931 65.2552 14.1092 65.1518C14.6622 65.072 16.0336 64.8098 15.5413 65.1518C15.049 65.4938 14.9148 65.8786 14.512 65.8786C14.1092 65.8786 12.1847 65.9213 12.3637 65.7503Z" fill="white"/>
<path d="M22.2546 59.6371C22.9259 59.0386 30.2657 57.8416 29.9525 58.2691C29.6392 58.6966 27.3567 60.0219 26.4168 59.6371C25.4769 59.2524 21.5833 60.2356 22.2546 59.6371Z" fill="white"/>
<path d="M32.1455 57.7989C32.772 57.8844 37.6951 58.7394 39.172 59.4661C40.6489 60.1929 40.7832 62.6296 41.2755 63.3563C41.7678 64.0831 38.5902 67.5031 39.7538 63.4846C40.9174 59.4661 31.5189 57.7134 32.1455 57.7989Z" fill="white"/>
<path d="M43.379 66.2633C43.1552 66.7336 43.7818 62.9289 44.1398 62.4586C44.4979 61.9884 48.302 62.5441 47.944 62.5869C47.586 62.6296 45.4825 62.8006 45.3482 62.9289C45.2139 63.0571 43.6028 65.7931 43.379 66.2633Z" fill="white"/>
<path d="M48.1678 62.7579C48.4811 62.5869 55.7761 63.5701 55.9552 65.3228C56.1342 67.0756 55.7314 69.0421 55.5524 68.9993C55.3733 68.9566 54.7915 68.6146 54.8363 68.1871C54.881 67.7596 55.5971 67.3748 55.4181 66.1778C55.2391 64.9808 47.8545 62.9289 48.1678 62.7579Z" fill="white"/>
<path d="M22.9707 64.6816C22.9707 64.6816 30.8923 62.4159 32.9063 62.3731C34.9203 62.3304 35.3231 63.1426 35.7259 63.3563C36.1287 63.5701 33.9804 63.1426 32.772 63.3563C31.5636 63.5701 27.2672 64.8953 25.8797 64.9808C24.4923 65.0663 23.0154 64.8098 22.9259 64.7671C22.8364 64.7243 22.9707 64.6816 22.9707 64.6816Z" fill="white"/>
<path d="M13.3483 36.3385L13.7511 47.9237C13.9084 52.448 15.1349 51.3214 15.2728 53.6094C15.3624 55.0962 15.0043 57.0294 15.0043 57.4141C15.0043 57.7989 17.0182 55.4049 16.7945 53.6094C16.5707 51.8139 15.786 50.5556 15.2728 48.5649C14.0642 43.8766 13.191 31.8142 13.3483 36.3385Z" fill="white"/>
<path d="M3.05466 9.4062C3.45745 9.1497 4.66584 8.8932 4.66584 8.8932C4.66584 8.8932 7.26164 8.59395 7.03786 8.8932C6.81409 9.19245 6.14276 10.2612 5.47143 10.9024C4.80011 11.5437 3.68123 10.6887 3.68123 10.6887C3.68123 10.6887 2.65186 9.6627 3.05466 9.4062Z" fill="white"/>
<path d="M20.2854 22.5731C20.2854 22.5731 23.3476 21.0995 25.4769 20.9059L25.5441 20.8998C26.3908 20.8226 26.9015 20.7761 27.7595 20.9059C28.6111 21.0347 29.9972 21.4189 29.8629 21.5471C29.8629 21.5471 29.6417 21.9565 29.4154 22.1456C28.8834 22.5903 28.1175 22.6736 27.6252 22.4021C27.1329 22.1306 26.5311 21.9777 25.7902 21.8891C25.0091 21.7957 24.5566 21.8748 23.7763 21.9746C22.8309 22.0955 22.353 22.4368 21.4042 22.5304C20.9693 22.5733 20.2854 22.5731 20.2854 22.5731Z" fill="white"/>
<path d="M15.228 29.6268C15.4966 29.3703 22.4336 23.1289 22.8364 22.9579C23.2392 22.7869 22.3441 22.6586 22.3441 22.6586C22.3441 22.6586 20.6345 23.0174 19.6588 23.5136C16.9755 24.878 14.9595 29.8833 15.228 29.6268Z" fill="white"/>
<path d="M11.2448 15.8614C11.3343 15.7759 13.1693 11.3299 13.1693 10.9024C13.1693 10.4749 11.6476 10.9024 11.6476 10.9024C11.6476 10.9024 11.1403 11.8899 10.9763 12.5697C10.6699 13.8395 11.0552 15.8824 11.1106 15.9042C11.1659 15.9259 11.1553 15.9469 11.2448 15.8614Z" fill="white"/>
<path d="M11.2448 19.6234C11.6476 19.9654 13.9301 20.5639 14.2434 19.9654C14.5567 19.3669 14.512 17.9134 15.8099 17.2294C17.1078 16.5454 19.1419 16.6982 21.091 15.8614C22.8247 15.117 23.8138 14.6156 25.2084 13.3819C25.7528 12.9004 26.2418 12.7188 26.5063 12.0567C26.8395 11.2228 26.5063 10.6887 26.193 9.79095C25.8797 8.8932 23.284 13.2537 22.6574 13.5102C22.0308 13.7667 20.3193 14.4457 18.7637 14.8782C16.7627 15.4345 14.512 15.3912 13.5273 15.8614C12.5427 16.3317 10.842 19.2814 11.2448 19.6234Z" fill="white"/>
<path d="M11.8714 8.8932C12.0952 8.38021 21.27 7.99546 22.8364 7.52521C24.4028 7.05497 29.3259 5.30223 30.0867 5.08848C30.8476 4.87473 34.2489 5.34498 34.5175 5.64422C34.786 5.94347 35.7259 8.12371 34.786 7.52521C33.8461 6.92672 32.6378 6.32822 31.6532 6.37097C30.6685 6.41372 24.8504 8.25196 23.7763 8.50846C22.7021 8.76495 11.6476 9.4062 11.8714 8.8932Z" fill="white"/>
<path d="M31.0266 17.5714C31.6532 17.3576 32.5483 17.1867 32.7273 16.5454C32.9063 15.9042 32.5562 14.3821 33.3538 13.3819C33.959 12.6231 34.7091 12.6366 35.5021 12.0567C35.7882 11.8474 36.0831 11.82 36.2182 11.5009C36.4352 10.9883 36.0319 10.484 35.5021 10.2612C35.1502 10.1132 34.786 9.79095 34.5175 10.2612C34.2489 10.7314 32.9654 11.3593 32.2797 12.3132C31.0317 14.0493 30.4 17.7851 31.0266 17.5714Z" fill="white"/>
<path d="M33.3538 3.59224C33.9357 3.29299 33.8918 1.92561 34.786 1.36925C35.5072 0.920537 36.0764 0.832347 36.9342 0.899006C38.8573 1.04844 39.4308 2.71204 40.2909 4.36173C41.3716 6.43461 41.3536 9.61995 40.9174 10.2612C40.4813 10.9024 38.8587 11.5009 39.5748 11.5009C40.2909 11.5009 41.0965 11.7147 41.544 11.5009C41.9916 11.2872 42.245 8.15375 41.8125 6.07172C41.4016 4.09305 41.1742 2.68656 39.5748 1.36925C38.6158 0.579395 37.9311 0.0463906 36.6657 0.00126213C35.8016 -0.0295569 34.5175 0.514259 34.5175 0.514259C34.5175 0.514259 32.772 3.89149 33.3538 3.59224Z" fill="white"/>
</svg>
