<svg width="220" height="60" viewBox="0 0 220 60" fill="none" xmlns="http://www.w3.org/2000/svg">
<path d="M140.635 7.5H146.515C148.428 7.5 149.863 8.01333 150.82 9.04C151.777 10.0667 152.255 11.5717 152.255 13.555V25.945C152.255 27.9283 151.777 29.4333 150.82 30.46C149.863 31.4867 148.428 32 146.515 32H140.635V7.5ZM146.445 28.5C147.075 28.5 147.553 28.3133 147.88 27.94C148.23 27.5667 148.405 26.96 148.405 26.12V13.38C148.405 12.54 148.23 11.9333 147.88 11.56C147.553 11.1867 147.075 11 146.445 11H144.485V28.5H146.445ZM157.76 7.5H162.975L166.965 32H163.115L162.415 27.135V27.205H158.04L157.34 32H153.77L157.76 7.5ZM161.96 23.88L160.245 11.77H160.175L158.495 23.88H161.96ZM170.237 11H166.212V7.5H178.112V11H174.087V32H170.237V11ZM181.344 7.5H186.559L190.549 32H186.699L185.999 27.135V27.205H181.624L180.924 32H177.354L181.344 7.5ZM185.544 23.88L183.829 11.77H183.759L182.079 23.88H185.544Z" fill="white"/>
<path d="M126.632 47.4L125.144 51H124.392L128.744 40.552H129.176L133.56 51H132.744L131.24 47.4H126.632ZM128.92 41.736C128.76 42.216 128.616 42.616 128.488 42.936L126.888 46.776H130.984L129.4 42.952C129.155 42.3547 128.995 41.9493 128.92 41.736ZM143.559 50.488C142.759 50.936 141.645 51.16 140.215 51.16C138.797 51.16 137.543 50.648 136.455 49.624C135.378 48.6 134.839 47.3307 134.839 45.816C134.839 44.2907 135.309 43.016 136.247 41.992C137.197 40.968 138.418 40.456 139.911 40.456C141.117 40.456 142.295 40.6427 143.447 41.016L143.255 41.624C142.146 41.2827 140.999 41.112 139.815 41.112C138.631 41.112 137.634 41.5653 136.823 42.472C136.023 43.368 135.623 44.472 135.623 45.784C135.623 47.0853 136.087 48.1947 137.015 49.112C137.954 50.0293 139.037 50.488 140.263 50.488C141.49 50.488 142.509 50.3173 143.319 49.976L143.559 50.488ZM146.182 51V40.664C147.1 40.5893 147.878 40.552 148.518 40.552C149.5 40.552 150.31 40.808 150.95 41.32C151.59 41.8213 151.91 42.5413 151.91 43.48C151.91 44.1093 151.729 44.6907 151.366 45.224C151.004 45.7573 150.593 46.1893 150.134 46.52C151.404 48.2053 152.188 49.2133 152.486 49.544C153.094 50.1733 153.756 50.5307 154.47 50.616L154.454 51.112C153.857 51.1013 153.372 51.016 152.998 50.856C152.625 50.6853 152.252 50.4027 151.878 50.008C151.516 49.6133 150.71 48.552 149.462 46.824C148.598 46.824 147.75 46.7973 146.918 46.744V51H146.182ZM149.062 46.216C149.478 46.216 149.926 45.9387 150.406 45.384C150.886 44.8293 151.126 44.184 151.126 43.448C151.126 42.712 150.876 42.152 150.374 41.768C149.873 41.384 149.222 41.192 148.422 41.192C147.996 41.192 147.494 41.2133 146.918 41.256V46.136C147.686 46.1893 148.401 46.216 149.062 46.216ZM160.118 51.16C158.636 51.16 157.393 50.6427 156.39 49.608C155.388 48.5733 154.886 47.3093 154.886 45.816C154.886 44.312 155.388 43.0427 156.39 42.008C157.393 40.9733 158.636 40.456 160.118 40.456C161.601 40.456 162.844 40.9733 163.846 42.008C164.849 43.0427 165.35 44.312 165.35 45.816C165.35 47.3093 164.849 48.5733 163.846 49.608C162.844 50.6427 161.601 51.16 160.118 51.16ZM160.118 41.112C158.838 41.112 157.772 41.5653 156.918 42.472C156.076 43.3787 155.654 44.4933 155.654 45.816C155.654 47.128 156.076 48.2373 156.918 49.144C157.772 50.04 158.838 50.488 160.118 50.488C161.409 50.488 162.476 50.04 163.318 49.144C164.161 48.2373 164.582 47.128 164.582 45.816C164.582 44.4933 164.161 43.3787 163.318 42.472C162.476 41.5653 161.409 41.112 160.118 41.112ZM171.219 51H170.499V47.288L166.579 40.616H167.459L170.483 45.768C170.718 46.2373 170.851 46.488 170.883 46.52C170.947 46.3813 171.081 46.136 171.283 45.784L174.307 40.616H175.139L171.219 47.32V51ZM181.587 51.16C180.104 51.16 178.862 50.6427 177.859 49.608C176.856 48.5733 176.355 47.3093 176.355 45.816C176.355 44.312 176.856 43.0427 177.859 42.008C178.862 40.9733 180.104 40.456 181.587 40.456C183.07 40.456 184.312 40.9733 185.315 42.008C186.318 43.0427 186.819 44.312 186.819 45.816C186.819 47.3093 186.318 48.5733 185.315 49.608C184.312 50.6427 183.07 51.16 181.587 51.16ZM181.587 41.112C180.307 41.112 179.24 41.5653 178.387 42.472C177.544 43.3787 177.123 44.4933 177.123 45.816C177.123 47.128 177.544 48.2373 178.387 49.144C179.24 50.04 180.307 50.488 181.587 50.488C182.878 50.488 183.944 50.04 184.787 49.144C185.63 48.2373 186.051 47.128 186.051 45.816C186.051 44.4933 185.63 43.3787 184.787 42.472C183.944 41.5653 182.878 41.112 181.587 41.112ZM194.362 41.112C193.178 41.112 192.181 41.5653 191.37 42.472C190.57 43.368 190.17 44.472 190.17 45.784C190.17 47.096 190.624 48.2107 191.53 49.128C192.437 50.0347 193.504 50.488 194.73 50.488C195.968 50.488 196.928 50.344 197.61 50.056V45.784H198.346V50.392C197.514 50.904 196.336 51.16 194.81 51.16C193.285 51.16 192 50.6427 190.954 49.608C189.909 48.5733 189.386 47.304 189.386 45.8C189.386 44.2853 189.856 43.016 190.794 41.992C191.744 40.968 192.965 40.456 194.458 40.456C195.664 40.456 196.842 40.6427 197.994 41.016L197.802 41.624C196.693 41.2827 195.546 41.112 194.362 41.112ZM202.351 47.4L200.863 51H200.111L204.463 40.552H204.895L209.279 51H208.463L206.959 47.4H202.351ZM204.639 41.736C204.479 42.216 204.335 42.616 204.207 42.936L202.607 46.776H206.703L205.119 42.952C204.873 42.3547 204.713 41.9493 204.639 41.736Z" fill="white"/>
<path d="M1.85819 22.8344C1.44579 22.2761 7.25356 12.7863 7.11611 12.2609C6.97866 11.7355 -1.09725 23.0314 0.380475 24.4105C1.34023 25.3063 6.09804 24.1797 9.3155 23.2169C9.3155 23.2169 10.2434 22.7247 10.5154 22.8431C11.613 22.4866 12.3397 22.2053 12.3397 22.1448C12.3397 21.9149 2.27059 23.3926 1.85819 22.8344Z" fill="white"/>
<path d="M9.76225 28.3181C9.83098 27.9897 10.5183 23.4911 10.587 22.9985C10.5986 22.9158 10.5704 22.867 10.5154 22.8431C10.1519 22.9612 9.74757 23.0876 9.3155 23.2169C10.0028 24.0493 6.18824 32.2257 6.08514 33.0138C5.98204 33.8018 6.18824 35.575 6.36006 36.3631C6.53189 37.1512 7.15047 33.4735 7.2192 33.1123C7.28793 32.7511 9.69352 28.6465 9.76225 28.3181Z" fill="white"/>
<path d="M8.28453 38.5303C8.28453 38.1034 8.97184 40.3692 9.1093 41.0259C9.24677 41.6827 9.24677 42.7006 9.1093 43.1603C8.97184 43.62 7.28793 50.1545 7.59722 50.7784C7.90651 51.4023 8.04397 51.074 8.28453 51.3695C8.52509 51.665 8.83438 51.9277 8.80001 52.1904C8.76565 52.4531 8.00961 52.5845 7.80341 52.4531C7.59722 52.3218 6.63499 50.3516 6.77245 49.8262C6.90991 49.3008 8.28453 42.3722 8.28453 41.5185V38.5303Z" fill="white"/>
<path d="M7.04737 52.1904C7.3223 51.9277 2.88915 53.3069 2.88915 53.3069C2.88915 53.3069 2.22615 53.4962 2.06438 53.8322C1.93538 54.1002 1.89255 54.4561 2.06438 54.5875C2.2362 54.7188 17.2539 54.7845 17.8381 54.9159C18.4224 55.0472 26.4295 55.7696 27.0137 55.8025C27.5979 55.8353 32.0998 55.6711 33.2339 55.6054C34.3679 55.5398 33.0964 55.1786 30.2785 54.5875C27.4605 53.9964 4.60742 54.3576 4.29813 54.2591C3.98884 54.1606 3.439 54.0621 3.78265 53.8322C4.12631 53.6024 6.77245 52.4531 7.04737 52.1904Z" fill="white"/>
<path d="M9.69352 53.5039C9.83098 53.3725 10.4839 53.1236 11.0338 53.0442C11.4584 52.9829 12.5115 52.7815 12.1335 53.0442C11.7554 53.3069 11.6524 53.6024 11.3431 53.6024C11.0338 53.6024 9.55606 53.6352 9.69352 53.5039Z" fill="white"/>
<path d="M17.2883 48.8082C17.8038 48.3485 23.4397 47.4291 23.1992 47.7575C22.9586 48.0858 21.206 49.1038 20.4843 48.8082C19.7626 48.5127 16.7728 49.2679 17.2883 48.8082Z" fill="white"/>
<path d="M24.8831 47.3962C25.3642 47.4619 29.1444 48.1187 30.2785 48.6769C31.4125 49.2351 31.5156 51.1068 31.8936 51.665C32.2717 52.2232 29.8317 54.8502 30.7252 51.7635C31.6187 48.6769 24.402 47.3306 24.8831 47.3962Z" fill="white"/>
<path d="M33.5088 53.8979C33.337 54.2591 33.8181 51.3367 34.093 50.9755C34.3679 50.6142 37.289 51.0411 37.0141 51.074C36.7392 51.1068 35.124 51.2381 35.0209 51.3367C34.9178 51.4352 33.6806 53.5367 33.5088 53.8979Z" fill="white"/>
<path d="M37.1859 51.2053C37.4265 51.074 43.0281 51.8292 43.1655 53.1755C43.303 54.5218 42.9937 56.0323 42.8562 55.9995C42.7188 55.9666 42.272 55.7039 42.3064 55.3756C42.3407 55.0472 42.8906 54.7517 42.7531 53.8322C42.6157 52.9128 36.9454 51.3367 37.1859 51.2053Z" fill="white"/>
<path d="M17.8381 52.683C17.8381 52.683 23.9208 50.9426 25.4673 50.9098C27.0137 50.8769 27.323 51.5008 27.6323 51.665C27.9416 51.8292 26.2921 51.5008 25.3642 51.665C24.4363 51.8292 21.1372 52.8471 20.0719 52.9128C19.0066 52.9785 17.8725 52.7815 17.8038 52.7486C17.735 52.7158 17.8381 52.683 17.8381 52.683Z" fill="white"/>
<path d="M10.4496 30.9122L10.7588 39.811C10.8796 43.2861 11.8214 42.4208 11.9273 44.1782C11.9961 45.3202 11.7211 46.8052 11.7211 47.1007C11.7211 47.3962 13.2675 45.5574 13.0957 44.1782C12.9239 42.7991 12.3213 41.8326 11.9273 40.3035C10.9992 36.7023 10.3288 27.437 10.4496 30.9122Z" fill="white"/>
<path d="M2.54549 10.2251C2.85478 10.028 3.78265 9.83101 3.78265 9.83101C3.78265 9.83101 5.77585 9.60115 5.60402 9.83101C5.4322 10.0609 4.91671 10.8818 4.40123 11.3743C3.88575 11.8669 3.02661 11.2102 3.02661 11.2102C3.02661 11.2102 2.2362 10.4221 2.54549 10.2251Z" fill="white"/>
<path d="M15.7762 20.3388C15.7762 20.3388 18.1276 19.2069 19.7626 19.0581L19.8142 19.0534C20.4643 18.9942 20.8565 18.9585 21.5152 19.0581C22.1692 19.1571 23.2335 19.4522 23.1304 19.5507C23.1304 19.5507 22.9605 19.8651 22.7868 20.0104C22.3783 20.352 21.7902 20.416 21.4122 20.2074C21.0341 19.9989 20.5721 19.8814 20.0032 19.8134C19.4033 19.7416 19.0559 19.8024 18.4567 19.8791C17.7308 19.9719 17.3638 20.234 16.6353 20.3059C16.3013 20.3389 15.7762 20.3388 15.7762 20.3388Z" fill="white"/>
<path d="M11.8929 25.7568C12.0991 25.5598 17.4258 20.7656 17.735 20.6343C18.0443 20.503 17.357 20.4044 17.357 20.4044C17.357 20.4044 16.0443 20.6801 15.2951 21.0612C13.2347 22.1092 11.6867 25.9539 11.8929 25.7568Z" fill="white"/>
<path d="M8.83438 15.1834C8.90311 15.1177 10.3121 11.7027 10.3121 11.3743C10.3121 11.046 9.14367 11.3743 9.14367 11.3743C9.14367 11.3743 8.75413 12.1328 8.62819 12.655C8.39291 13.6304 8.68879 15.1995 8.73128 15.2162C8.77378 15.2329 8.76565 15.2491 8.83438 15.1834Z" fill="white"/>
<path d="M8.83438 18.073C9.14367 18.3357 10.8963 18.7954 11.1369 18.3357C11.3774 17.876 11.3431 16.7596 12.3397 16.2342C13.3363 15.7088 14.8982 15.8262 16.3948 15.1834C17.7261 14.6116 18.4855 14.2265 19.5564 13.2789C19.9744 12.909 20.3499 12.7695 20.553 12.2609C20.8089 11.6204 20.553 11.2102 20.3125 10.5206C20.0719 9.83101 18.0787 13.1804 17.5976 13.3774C17.1165 13.5744 15.8023 14.096 14.6078 14.4282C13.0713 14.8554 11.3431 14.8222 10.587 15.1834C9.83098 15.5446 8.52509 17.8103 8.83438 18.073Z" fill="white"/>
<path d="M9.3155 9.83101C9.48732 9.43697 16.5323 9.14144 17.735 8.78024C18.9378 8.41903 22.718 7.07272 23.3023 6.90854C23.8865 6.74436 26.4982 7.10556 26.7044 7.33542C26.9106 7.56528 27.6323 9.23995 26.9106 8.78024C26.189 8.32052 25.2611 7.86081 24.505 7.89364C23.749 7.92648 19.2815 9.33846 18.4567 9.53548C17.6319 9.7325 9.14367 10.2251 9.3155 9.83101Z" fill="white"/>
<path d="M24.0239 16.4969C24.505 16.3327 25.1924 16.2013 25.3298 15.7088C25.4673 15.2162 25.1985 14.0472 25.8109 13.2789C26.2756 12.696 26.8516 12.7064 27.4605 12.2609C27.6802 12.1002 27.9066 12.0791 28.0103 11.8341C28.177 11.4403 27.8673 11.0529 27.4605 10.8818C27.1903 10.7681 26.9106 10.5206 26.7044 10.8818C26.4982 11.243 25.5127 11.7252 24.9862 12.458C24.0279 13.7915 23.5428 16.6611 24.0239 16.4969Z" fill="white"/>
<path d="M25.8109 5.75926C26.2577 5.5294 26.224 4.47909 26.9106 4.05175C27.4644 3.70708 27.9015 3.63934 28.5602 3.69054C30.0368 3.80532 30.4772 5.08316 31.1376 6.35032C31.9674 7.94253 31.9536 10.3892 31.6187 10.8818C31.2838 11.3743 30.0379 11.8341 30.5877 11.8341C31.1376 11.8341 31.7562 11.9982 32.0998 11.8341C32.4435 11.6699 32.6381 9.26302 32.306 7.66379C31.9904 6.14394 31.8158 5.06359 30.5877 4.05175C29.8514 3.44504 29.3256 3.03563 28.354 3.00097C27.6904 2.9773 26.7044 3.39501 26.7044 3.39501C26.7044 3.39501 25.3642 5.98911 25.8109 5.75926Z" fill="white"/>
<path d="M9.3155 23.2169C6.09804 24.1797 1.34023 25.3063 0.380475 24.4105C-1.09725 23.0314 6.97866 11.7355 7.11611 12.2609C7.25356 12.7863 1.44579 22.2761 1.85819 22.8344C2.27059 23.3926 12.3397 21.9149 12.3397 22.1448C12.3397 22.2053 11.613 22.4866 10.5154 22.8431M9.3155 23.2169C10.0028 24.0493 6.18824 32.2257 6.08514 33.0138C5.98204 33.8018 6.18824 35.575 6.36006 36.3631C6.53189 37.1512 7.15047 33.4735 7.2192 33.1123C7.28793 32.7511 9.69352 28.6465 9.76225 28.3181C9.83098 27.9897 10.5183 23.4911 10.587 22.9985C10.5986 22.9158 10.5704 22.867 10.5154 22.8431M9.3155 23.2169C9.3155 23.2169 10.2434 22.7247 10.5154 22.8431M9.3155 23.2169C9.74757 23.0876 10.1519 22.9612 10.5154 22.8431M8.28453 38.5303C8.28453 38.1034 8.97184 40.3692 9.1093 41.0259C9.24677 41.6827 9.24677 42.7006 9.1093 43.1603C8.97184 43.62 7.28793 50.1545 7.59722 50.7784C7.90651 51.4023 8.04397 51.074 8.28453 51.3695C8.52509 51.665 8.83438 51.9277 8.80001 52.1904C8.76565 52.4531 8.00961 52.5845 7.80341 52.4531C7.59722 52.3218 6.63499 50.3516 6.77245 49.8262C6.90991 49.3008 8.28453 42.3722 8.28453 41.5185M8.28453 38.5303C8.28453 38.9572 8.28453 40.6647 8.28453 41.5185M8.28453 38.5303V41.5185M10.4496 30.9122C10.5703 34.3874 10.6381 36.3358 10.7588 39.811M10.4496 30.9122C10.3288 27.437 10.9992 36.7023 11.9273 40.3035C12.3213 41.8326 12.9239 42.7991 13.0957 44.1782C13.2675 45.5574 11.7211 47.3962 11.7211 47.1007C11.7211 46.8052 11.9961 45.3202 11.9273 44.1782C11.8214 42.4208 10.8796 43.2861 10.7588 39.811M10.4496 30.9122L10.7588 39.811M19.7626 19.0581C18.1276 19.2069 15.7762 20.3388 15.7762 20.3388C15.7762 20.3388 16.3013 20.3389 16.6353 20.3059C17.3638 20.234 17.7308 19.9719 18.4567 19.8791C19.0559 19.8024 19.4033 19.7416 20.0032 19.8134C20.5721 19.8814 21.0341 19.9989 21.4122 20.2074C21.7902 20.416 22.3783 20.352 22.7868 20.0104C22.9605 19.8651 23.1304 19.5507 23.1304 19.5507C23.2335 19.4522 22.1692 19.1571 21.5152 19.0581C20.8565 18.9585 20.4643 18.9942 19.8142 19.0534M19.7626 19.0581L19.8142 19.0534M19.7626 19.0581C19.78 19.0566 19.7972 19.055 19.8142 19.0534M9.69352 53.5039C9.83098 53.3725 10.4839 53.1236 11.0338 53.0442C11.4584 52.9829 12.5115 52.7815 12.1335 53.0442C11.7554 53.3069 11.6524 53.6024 11.3431 53.6024C11.0338 53.6024 9.55606 53.6352 9.69352 53.5039ZM7.04737 52.1904C7.3223 51.9277 2.88915 53.3069 2.88915 53.3069C2.88915 53.3069 2.22615 53.4962 2.06438 53.8322C1.93538 54.1002 1.89255 54.4561 2.06438 54.5875C2.2362 54.7188 17.2539 54.7845 17.8381 54.9159C18.4224 55.0472 26.4295 55.7696 27.0137 55.8025C27.5979 55.8353 32.0998 55.6711 33.2339 55.6054C34.3679 55.5398 33.0964 55.1786 30.2785 54.5875C27.4605 53.9964 4.60742 54.3576 4.29813 54.2591C3.98884 54.1606 3.439 54.0621 3.78265 53.8322C4.12631 53.6024 6.77245 52.4531 7.04737 52.1904ZM17.8381 52.683C17.8381 52.683 23.9208 50.9426 25.4673 50.9098C27.0137 50.8769 27.323 51.5008 27.6323 51.665C27.9416 51.8292 26.2921 51.5008 25.3642 51.665C24.4363 51.8292 21.1372 52.8471 20.0719 52.9128C19.0066 52.9785 17.8725 52.7815 17.8038 52.7486C17.735 52.7158 17.8381 52.683 17.8381 52.683ZM17.2883 48.8082C17.8038 48.3485 23.4397 47.4291 23.1992 47.7575C22.9586 48.0858 21.206 49.1038 20.4843 48.8082C19.7626 48.5127 16.7728 49.2679 17.2883 48.8082ZM24.8831 47.3962C25.3642 47.4619 29.1444 48.1187 30.2785 48.6769C31.4125 49.2351 31.5156 51.1068 31.8936 51.665C32.2717 52.2232 29.8317 54.8502 30.7252 51.7635C31.6187 48.6769 24.402 47.3306 24.8831 47.3962ZM33.5088 53.8979C33.337 54.2591 33.8181 51.3367 34.093 50.9755C34.3679 50.6142 37.289 51.0411 37.0141 51.074C36.7392 51.1068 35.124 51.2381 35.0209 51.3367C34.9178 51.4352 33.6806 53.5367 33.5088 53.8979ZM37.1859 51.2053C37.4265 51.074 43.0281 51.8292 43.1655 53.1755C43.303 54.5218 42.9937 56.0323 42.8562 55.9995C42.7188 55.9666 42.272 55.7039 42.3064 55.3756C42.3407 55.0472 42.8906 54.7517 42.7531 53.8322C42.6157 52.9128 36.9454 51.3367 37.1859 51.2053ZM2.54549 10.2251C2.85478 10.028 3.78265 9.83101 3.78265 9.83101C3.78265 9.83101 5.77585 9.60115 5.60402 9.83101C5.4322 10.0609 4.91671 10.8818 4.40123 11.3743C3.88575 11.8669 3.02661 11.2102 3.02661 11.2102C3.02661 11.2102 2.2362 10.4221 2.54549 10.2251ZM8.83438 15.1834C8.90311 15.1177 10.3121 11.7027 10.3121 11.3743C10.3121 11.046 9.14367 11.3743 9.14367 11.3743C9.14367 11.3743 8.75413 12.1328 8.62819 12.655C8.39291 13.6304 8.68879 15.1995 8.73128 15.2162C8.77378 15.2329 8.76565 15.2491 8.83438 15.1834ZM11.8929 25.7568C12.0991 25.5598 17.4258 20.7656 17.735 20.6343C18.0443 20.503 17.357 20.4044 17.357 20.4044C17.357 20.4044 16.0443 20.6801 15.2951 21.0612C13.2347 22.1092 11.6867 25.9539 11.8929 25.7568ZM8.83438 18.073C9.14367 18.3357 10.8963 18.7954 11.1369 18.3357C11.3774 17.876 11.3431 16.7596 12.3397 16.2342C13.3363 15.7088 14.8982 15.8262 16.3948 15.1834C17.7261 14.6116 18.4855 14.2265 19.5564 13.2789C19.9744 12.909 20.3499 12.7695 20.553 12.2609C20.8089 11.6204 20.553 11.2102 20.3125 10.5206C20.0719 9.83101 18.0787 13.1804 17.5976 13.3774C17.1165 13.5744 15.8023 14.096 14.6078 14.4282C13.0713 14.8554 11.3431 14.8222 10.587 15.1834C9.83098 15.5446 8.52509 17.8103 8.83438 18.073ZM9.3155 9.83101C9.48732 9.43697 16.5323 9.14144 17.735 8.78024C18.9378 8.41903 22.718 7.07272 23.3023 6.90854C23.8865 6.74436 26.4982 7.10556 26.7044 7.33542C26.9106 7.56528 27.6323 9.23995 26.9106 8.78024C26.189 8.32052 25.2611 7.86081 24.505 7.89364C23.749 7.92648 19.2815 9.33846 18.4567 9.53548C17.6319 9.7325 9.14367 10.2251 9.3155 9.83101ZM24.0239 16.4969C24.505 16.3327 25.1924 16.2013 25.3298 15.7088C25.4673 15.2162 25.1985 14.0472 25.8109 13.2789C26.2756 12.696 26.8516 12.7064 27.4605 12.2609C27.6802 12.1002 27.9066 12.0791 28.0103 11.8341C28.177 11.4403 27.8673 11.0529 27.4605 10.8818C27.1903 10.7681 26.9106 10.5206 26.7044 10.8818C26.4982 11.243 25.5127 11.7252 24.9862 12.458C24.0279 13.7915 23.5428 16.6611 24.0239 16.4969ZM25.8109 5.75926C26.2577 5.5294 26.224 4.47909 26.9106 4.05175C27.4644 3.70708 27.9015 3.63934 28.5602 3.69054C30.0368 3.80532 30.4772 5.08316 31.1376 6.35032C31.9674 7.94253 31.9536 10.3892 31.6187 10.8818C31.2838 11.3743 30.0379 11.8341 30.5877 11.8341C31.1376 11.8341 31.7562 11.9982 32.0998 11.8341C32.4435 11.6699 32.6381 9.26302 32.306 7.66379C31.9904 6.14394 31.8158 5.06359 30.5877 4.05175C29.8514 3.44504 29.3256 3.03563 28.354 3.00097C27.6904 2.9773 26.7044 3.39501 26.7044 3.39501C26.7044 3.39501 25.3642 5.98911 25.8109 5.75926Z" stroke="white" stroke-width="0.4"/>
</svg>
