<svg width="1118" height="808" viewBox="0 0 1118 808" fill="none" xmlns="http://www.w3.org/2000/svg">
<path d="M24.1265 302.015C18.1263 293.515 102.626 149.015 100.626 141.015C98.6267 133.015 -18.8736 305.015 2.62653 326.015C16.5905 339.654 85.8141 322.499 132.626 307.839C132.626 307.839 146.126 300.345 150.085 302.148C166.054 296.72 176.627 292.436 176.627 291.515C176.627 288.015 30.1267 310.515 24.1265 302.015Z" fill="white"/>
<path d="M139.126 385.515C140.126 380.515 150.126 312.015 151.126 304.515C151.294 303.255 150.884 302.512 150.085 302.148C144.795 303.947 138.913 305.87 132.626 307.839C142.626 320.515 87.1264 445.015 85.6264 457.015C84.1264 469.015 87.1264 496.015 89.6264 508.015C92.1264 520.015 101.126 464.015 102.126 458.515C103.126 453.015 138.126 390.515 139.126 385.515Z" fill="white"/>
<path d="M117.626 541.015C117.626 534.515 127.626 569.015 129.626 579.015C131.626 589.015 131.626 604.515 129.626 611.515C127.626 618.515 103.126 718.015 107.626 727.515C112.126 737.015 114.126 732.015 117.626 736.515C121.126 741.015 125.626 745.015 125.126 749.015C124.626 753.015 113.626 755.015 110.626 753.015C107.626 751.015 93.6264 721.015 95.6264 713.015C97.6264 705.015 117.626 599.515 117.626 586.515V541.015Z" fill="white"/>
<path d="M99.6264 749.015C103.626 745.015 39.1264 766.015 39.1264 766.015C39.1264 766.015 29.4801 768.898 27.1264 774.015C25.2496 778.095 24.6264 783.515 27.1264 785.515C29.6264 787.515 248.126 788.515 256.626 790.515C265.126 792.515 381.626 803.515 390.126 804.015C398.626 804.515 464.126 802.015 480.626 801.015C497.126 800.015 478.626 794.515 437.626 785.515C396.626 776.515 64.1264 782.015 59.6264 780.515C55.1264 779.015 47.1264 777.515 52.1264 774.015C57.1264 770.515 95.6264 753.015 99.6264 749.015Z" fill="white"/>
<path d="M138.126 769.015C140.126 767.015 149.626 763.224 157.626 762.015C163.805 761.081 179.126 758.015 173.626 762.015C168.126 766.015 166.626 770.515 162.126 770.515C157.626 770.515 136.126 771.015 138.126 769.015Z" fill="white"/>
<path d="M248.626 697.515C256.126 690.515 338.126 676.515 334.626 681.515C331.126 686.515 305.626 702.015 295.126 697.515C284.626 693.015 241.126 704.515 248.626 697.515Z" fill="white"/>
<path d="M359.126 676.015C366.126 677.015 421.126 687.015 437.626 695.515C454.126 704.015 455.626 732.515 461.126 741.015C466.626 749.515 431.126 789.515 444.126 742.515C457.126 695.515 352.126 675.015 359.126 676.015Z" fill="white"/>
<path d="M484.626 775.015C482.126 780.515 489.126 736.015 493.126 730.515C497.126 725.015 539.626 731.515 535.626 732.015C531.626 732.515 508.126 734.515 506.626 736.015C505.126 737.515 487.126 769.515 484.626 775.015Z" fill="white"/>
<path d="M538.126 734.015C541.626 732.015 623.126 743.515 625.126 764.015C627.126 784.515 622.626 807.515 620.626 807.015C618.626 806.515 612.126 802.515 612.626 797.515C613.126 792.515 621.126 788.015 619.126 774.015C617.126 760.015 534.626 736.015 538.126 734.015Z" fill="white"/>
<path d="M256.626 756.515C256.626 756.515 345.126 730.015 367.626 729.515C390.126 729.015 394.626 738.515 399.126 741.015C403.626 743.515 379.626 738.515 366.126 741.015C352.626 743.515 304.626 759.015 289.126 760.015C273.626 761.015 257.126 758.015 256.126 757.515C255.126 757.015 256.626 756.515 256.626 756.515Z" fill="white"/>
<path d="M149.126 425.015L153.626 560.515C155.384 613.431 169.086 600.254 170.626 627.015C171.627 644.404 167.626 667.015 167.626 671.515C167.626 676.015 190.126 648.015 187.626 627.015C185.126 606.015 176.359 591.298 170.626 568.015C157.124 513.18 147.369 372.099 149.126 425.015Z" fill="white"/>
<path d="M34.1264 110.015C38.6264 107.015 52.1264 104.015 52.1264 104.015C52.1264 104.015 81.1264 100.515 78.6264 104.015C76.1264 107.515 68.6264 120.015 61.1264 127.515C53.6264 135.015 41.1264 125.015 41.1264 125.015C41.1264 125.015 29.6264 113.015 34.1264 110.015Z" fill="white"/>
<path d="M226.626 264.015C226.626 264.015 260.838 246.779 284.626 244.515L285.377 244.443C294.836 243.541 300.541 242.997 310.126 244.515C319.641 246.021 335.126 250.515 333.626 252.015C333.626 252.015 331.154 256.802 328.626 259.015C322.683 264.216 314.126 265.19 308.626 262.015C303.126 258.839 296.403 257.051 288.126 256.015C279.399 254.922 274.344 255.848 265.626 257.015C255.065 258.428 249.726 262.42 239.126 263.515C234.267 264.017 226.626 264.015 226.626 264.015Z" fill="white"/>
<path d="M170.126 346.515C173.126 343.515 250.626 270.515 255.126 268.515C259.626 266.515 249.626 265.015 249.626 265.015C249.626 265.015 230.527 269.212 219.626 275.015C189.648 290.973 167.126 349.515 170.126 346.515Z" fill="white"/>
<path d="M125.626 185.515C126.626 184.515 147.126 132.515 147.126 127.515C147.126 122.515 130.126 127.515 130.126 127.515C130.126 127.515 124.459 139.064 122.626 147.015C119.203 161.867 123.508 185.761 124.126 186.015C124.745 186.269 124.626 186.515 125.626 185.515Z" fill="white"/>
<path d="M125.626 229.515C130.126 233.515 155.626 240.515 159.126 233.515C162.626 226.515 162.127 209.515 176.627 201.515C191.126 193.515 213.852 195.302 235.626 185.515C254.996 176.809 266.045 170.944 281.626 156.515C287.708 150.883 293.171 148.759 296.126 141.015C299.849 131.262 296.126 125.015 292.626 114.515C289.126 104.015 260.126 155.015 253.126 158.015C246.126 161.015 227.006 168.957 209.626 174.015C187.271 180.521 162.126 180.015 151.126 185.515C140.126 191.015 121.126 225.515 125.626 229.515Z" fill="white"/>
<path d="M132.626 104.015C135.126 98.0147 237.626 93.5148 255.126 88.0148C272.626 82.5148 327.626 62.0147 336.126 59.5148C344.626 57.0148 382.626 62.5148 385.626 66.0148C388.626 69.5148 399.126 95.0147 388.626 88.0148C378.126 81.0148 364.626 74.0147 353.626 74.5148C342.626 75.0148 277.626 96.5148 265.626 99.5148C253.626 102.515 130.126 110.015 132.626 104.015Z" fill="white"/>
<path d="M346.626 205.515C353.626 203.015 363.626 201.015 365.626 193.515C367.626 186.015 363.716 168.213 372.626 156.515C379.387 147.639 387.768 147.798 396.626 141.015C399.823 138.568 403.117 138.247 404.626 134.515C407.051 128.519 402.545 122.621 396.626 120.015C392.695 118.284 388.626 114.515 385.626 120.015C382.626 125.515 368.287 132.858 360.626 144.015C346.684 164.321 339.626 208.015 346.626 205.515Z" fill="white"/>
<path d="M372.626 42.0148C379.126 38.5148 378.637 22.5219 388.626 16.0148C396.683 10.7666 403.043 9.73512 412.626 10.5148C434.11 12.2625 440.517 31.72 450.126 51.0148C462.2 75.2591 461.999 112.515 457.126 120.015C452.254 127.515 434.126 134.515 442.126 134.515C450.126 134.515 459.126 137.015 464.126 134.515C469.126 132.015 471.958 95.3661 467.126 71.0148C462.535 47.8722 459.995 31.422 442.126 16.0148C431.413 6.7766 423.763 0.542584 409.626 0.0147618C399.972 -0.345697 385.626 6.01476 385.626 6.01476C385.626 6.01476 366.126 45.5148 372.626 42.0148Z" fill="white"/>
<path d="M684.2 294H717.8C728.733 294 736.933 296.933 742.4 302.8C747.867 308.667 750.6 317.267 750.6 328.6V399.4C750.6 410.733 747.867 419.333 742.4 425.2C736.933 431.067 728.733 434 717.8 434H684.2V294ZM717.4 414C721 414 723.733 412.933 725.6 410.8C727.6 408.667 728.6 405.2 728.6 400.4V327.6C728.6 322.8 727.6 319.333 725.6 317.2C723.733 315.067 721 314 717.4 314H706.2V414H717.4ZM782.059 294H811.859L834.659 434H812.659L808.659 406.2V406.6H783.659L779.659 434H759.259L782.059 294ZM806.059 387.6L796.259 318.4H795.859L786.259 387.6H806.059ZM853.353 314H830.353V294H898.353V314H875.353V434H853.353V314ZM916.825 294H946.625L969.425 434H947.425L943.425 406.2V406.6H918.425L914.425 434H894.025L916.825 294ZM940.825 387.6L931.025 318.4H930.625L921.025 387.6H940.825Z" fill="white"/>
<path d="M546 543.2L535.7 568H530.6L560.7 496H563.5L593.7 568H588.3L578 543.2H546ZM561.8 504C561.733 504.067 561.6 504.467 561.4 505.2C560.467 508.067 559.567 510.5 558.7 512.5L547.7 539.1H576.3L565.3 512.6C562.967 507.533 561.8 504.667 561.8 504ZM641.332 569.2C630.932 569.2 621.999 565.667 614.532 558.6C607.065 551.467 603.332 542.7 603.332 532.3C603.332 521.833 606.599 513.067 613.132 506C619.665 498.867 628.032 495.3 638.232 495.3C646.232 495.3 654.332 496.633 662.532 499.3L661.232 503.3C653.232 500.9 645.565 499.7 638.232 499.7C629.499 499.7 622.365 502.833 616.832 509.1C611.299 515.367 608.532 523.033 608.532 532.1C608.532 541.167 611.732 548.9 618.132 555.3C624.599 561.633 632.332 564.8 641.332 564.8C649.199 564.8 655.999 563.6 661.732 561.2L663.232 564.6C660.699 566.067 657.365 567.2 653.232 568C649.165 568.8 645.199 569.2 641.332 569.2ZM682.044 568V496.8C688.377 496.333 693.677 496.1 697.944 496.1C704.744 496.1 710.344 497.867 714.744 501.4C719.144 504.867 721.344 509.8 721.344 516.2C721.344 520.533 720.077 524.567 717.544 528.3C715.01 532.033 712.177 535 709.044 537.2C711.51 540.6 714.544 544.667 718.144 549.4C721.81 554.067 724.177 557 725.244 558.2C729.31 562.533 733.91 565 739.044 565.6L738.944 568.8C734.877 568.733 731.577 568.133 729.044 567C726.51 565.8 724.077 564 721.744 561.6C719.477 559.2 713.777 551.733 704.644 539.2C698.11 539.2 692.177 539 686.844 538.6V568H682.044ZM701.744 535.2C704.677 535.2 707.81 533.267 711.144 529.4C714.477 525.533 716.144 521.067 716.144 516C716.144 510.867 714.41 507 710.944 504.4C707.544 501.733 703.01 500.4 697.344 500.4C694.344 500.4 690.844 500.533 686.844 500.8V534.7C692.177 535.033 697.144 535.2 701.744 535.2ZM753.564 558.5C746.964 551.367 743.664 542.6 743.664 532.2C743.664 521.8 746.964 513.067 753.564 506C760.231 498.867 768.631 495.3 778.764 495.3C788.897 495.3 797.297 498.867 803.964 506C810.631 513.067 813.964 521.8 813.964 532.2C813.964 542.6 810.631 551.367 803.964 558.5C797.297 565.633 788.897 569.2 778.764 569.2C768.631 569.2 760.231 565.633 753.564 558.5ZM757.164 509.1C751.631 515.3 748.864 523 748.864 532.2C748.864 541.4 751.631 549.133 757.164 555.4C762.764 561.667 769.964 564.8 778.764 564.8C787.631 564.8 794.831 561.667 800.364 555.4C805.964 549.133 808.764 541.4 808.764 532.2C808.764 523 805.964 515.3 800.364 509.1C794.831 502.833 787.631 499.7 778.764 499.7C769.897 499.7 762.697 502.833 757.164 509.1ZM853.999 568H849.199V542.4L822.299 496.5H828.099L848.899 532.7C850.099 534.833 851.099 536.7 851.899 538.3C852.166 537.433 853.099 535.633 854.699 532.9L875.499 496.5H880.999L853.999 542.6V568ZM899.267 558.5C892.667 551.367 889.367 542.6 889.367 532.2C889.367 521.8 892.667 513.067 899.267 506C905.934 498.867 914.334 495.3 924.467 495.3C934.601 495.3 943.001 498.867 949.667 506C956.334 513.067 959.667 521.8 959.667 532.2C959.667 542.6 956.334 551.367 949.667 558.5C943.001 565.633 934.601 569.2 924.467 569.2C914.334 569.2 905.934 565.633 899.267 558.5ZM902.867 509.1C897.334 515.3 894.567 523 894.567 532.2C894.567 541.4 897.334 549.133 902.867 555.4C908.467 561.667 915.667 564.8 924.467 564.8C933.334 564.8 940.534 561.667 946.067 555.4C951.667 549.133 954.467 541.4 954.467 532.2C954.467 523 951.667 515.3 946.067 509.1C940.534 502.833 933.334 499.7 924.467 499.7C915.601 499.7 908.401 502.833 902.867 509.1ZM1012.55 499.7C1003.82 499.7 996.682 502.833 991.148 509.1C985.615 515.367 982.848 523.067 982.848 532.2C982.848 541.267 985.982 548.967 992.248 555.3C998.515 561.633 1006.15 564.8 1015.15 564.8C1022.88 564.8 1029.32 563.733 1034.45 561.6V532.2H1039.25V563.8C1033.45 567.4 1025.32 569.2 1014.85 569.2C1004.45 569.2 995.648 565.633 988.448 558.5C981.248 551.3 977.648 542.533 977.648 532.2C977.648 521.8 980.915 513.067 987.448 506C993.982 498.867 1002.35 495.3 1012.55 495.3C1020.55 495.3 1028.65 496.633 1036.85 499.3L1035.55 503.3C1027.55 500.9 1019.88 499.7 1012.55 499.7ZM1067.88 543.2L1057.58 568H1052.48L1082.58 496H1085.38L1115.58 568H1110.18L1099.88 543.2H1067.88ZM1083.68 504C1083.61 504.067 1083.48 504.467 1083.28 505.2C1082.34 508.067 1081.44 510.5 1080.58 512.5L1069.58 539.1H1098.18L1087.18 512.6C1084.84 507.533 1083.68 504.667 1083.68 504Z" fill="white"/>
</svg>
