<svg width="21" height="20" viewBox="0 0 21 20" fill="none" xmlns="http://www.w3.org/2000/svg">
<rect x="0.75" y="0.75" width="19.5" height="18.5" rx="4.25" stroke="white" stroke-width="1.5"/>
<path d="M15.1055 5.89153C14.5065 5.2897 13.7931 4.81251 13.0069 4.48777C12.2207 4.16303 11.3774 3.99723 10.5261 4.00004C6.9593 4.00004 4.05226 6.89253 4.05226 10.4415C4.05226 11.579 4.35276 12.684 4.91457 13.659L4 17L7.42965 16.103C8.37688 16.6165 9.44171 16.8895 10.5261 16.8895C14.093 16.8895 17 13.997 17 10.448C17 8.72552 16.3271 7.10703 15.1055 5.89153ZM10.5261 15.7975C9.5593 15.7975 8.61206 15.5375 7.78241 15.05L7.58643 14.933L5.54824 15.466L6.09045 13.49L5.9598 13.2885C5.42252 12.4351 5.13729 11.4485 5.13668 10.4415C5.13668 7.49053 7.55377 5.08553 10.5196 5.08553C11.9568 5.08553 13.309 5.64453 14.3216 6.65853C14.8231 7.15504 15.2205 7.74568 15.4907 8.39619C15.761 9.0467 15.8987 9.74413 15.896 10.448C15.909 13.399 13.492 15.7975 10.5261 15.7975ZM13.4789 11.7935C13.3156 11.7155 12.5186 11.3255 12.3749 11.267C12.2246 11.215 12.1201 11.189 12.009 11.345C11.898 11.5075 11.591 11.8715 11.4995 11.9755C11.408 12.086 11.31 12.099 11.1467 12.0145C10.9834 11.9365 10.4608 11.761 9.84673 11.215C9.36332 10.786 9.04322 10.2595 8.94523 10.097C8.85377 9.93452 8.93216 9.85002 9.01708 9.76552C9.08894 9.69402 9.1804 9.57702 9.25879 9.48602C9.33719 9.39502 9.36985 9.32352 9.42211 9.21952C9.47437 9.10902 9.44824 9.01802 9.40904 8.94002C9.36985 8.86202 9.04322 8.06902 8.91256 7.74403C8.78191 7.43203 8.64472 7.47103 8.54673 7.46453H8.23317C8.12211 7.46453 7.95226 7.50353 7.80201 7.66603C7.65829 7.82852 7.2402 8.21852 7.2402 9.01152C7.2402 9.80452 7.82161 10.5715 7.9 10.6755C7.97839 10.786 9.04322 12.411 10.6633 13.1065C11.0487 13.2755 11.3492 13.373 11.5844 13.4445C11.9698 13.568 12.3226 13.5485 12.6035 13.5095C12.9171 13.464 13.5638 13.1195 13.6945 12.7425C13.8317 12.3655 13.8317 12.047 13.7859 11.9755C13.7402 11.904 13.6422 11.8715 13.4789 11.7935Z" fill="white"/>
</svg>
