<svg width="21" height="20" viewBox="0 0 21 20" fill="none" xmlns="http://www.w3.org/2000/svg">
<rect x="0.75" y="0.75" width="19.5" height="18.5" rx="4.25" stroke="white" stroke-width="1.5"/>
<path d="M18 5.81251V15.1875C18 15.7195 17.5945 16.125 17.0625 16.125H16.125V7.61672L10.5 11.6573L4.875 7.61672V16.125H3.9375C3.40547 16.125 3 15.7195 3 15.1875V5.81251C3 5.54626 3.10031 5.31188 3.26859 5.14594C3.35619 5.05819 3.46056 4.98897 3.57548 4.94242C3.69041 4.89587 3.81353 4.87295 3.9375 4.87501H4.25016L10.5 9.40641L16.7498 4.87501H17.0625C17.3287 4.87501 17.5631 4.97532 17.7314 5.14594C17.8997 5.31188 18 5.54626 18 5.81251Z" fill="white"/>
</svg>
