<svg width="11" height="12" viewBox="0 0 11 12" fill="none" xmlns="http://www.w3.org/2000/svg">
<path d="M10.8998 11.3595L7.57081 7.69237C8.19128 6.87873 8.56524 5.83197 8.56524 4.68898C8.56524 2.09935 6.64782 0 4.28262 0C1.91741 0 0 2.09935 0 4.68898C0 7.27861 1.91741 9.37796 4.28262 9.37796C5.35721 9.37796 6.33879 8.94357 7.09082 8.22747L10.4152 11.8901C10.5489 12.0366 10.766 12.0366 10.8998 11.8901C11.0334 11.7436 11.0334 11.5062 10.8998 11.3595H10.8998ZM4.28262 8.63391C2.29274 8.63391 0.679566 6.86767 0.679566 4.68898C0.679566 2.51029 2.29274 0.744047 4.28262 0.744047C6.27249 0.744047 7.88567 2.51029 7.88567 4.68898C7.88567 6.86767 6.27249 8.63391 4.28262 8.63391Z" fill="#36463E"/>
</svg>
