<svg width="625" height="69" viewBox="0 0 625 69" fill="none" xmlns="http://www.w3.org/2000/svg">
<g filter="url(#filter0_d_454_56)">
<path d="M578.096 39.5827C578.459 39.2191 578.951 39.0144 579.465 39.0138C579.979 39.0131 580.472 39.2165 580.835 39.5792L589.563 48.2847C589.927 48.6475 590.131 49.1399 590.132 49.6535C590.133 50.1671 589.929 50.66 589.567 51.0237L580.861 59.7517C580.496 60.105 580.007 60.3009 579.499 60.2971C578.991 60.2934 578.505 60.0903 578.146 59.7316C577.786 59.3729 577.582 58.8873 577.577 58.3794C577.572 57.8715 577.766 57.382 578.119 57.0162L583.355 51.5993L564.953 51.6229C564.439 51.6236 563.947 51.4201 563.583 51.0573C563.219 50.6945 563.014 50.2021 563.014 49.6883C563.013 49.1746 563.216 48.6816 563.579 48.3179C563.942 47.9542 564.435 47.7494 564.948 47.7488L583.35 47.7251L578.1 42.3217C577.736 41.9589 577.532 41.4665 577.531 40.9529C577.53 40.4393 577.734 39.9464 578.096 39.5827Z" fill="#36463E"/>
</g>
<g filter="url(#filter1_d_454_56)">
<path d="M611 0H14C8.47715 0 4 4.47715 4 10V50C4 55.5228 8.47714 60 14 60H524C529.523 60 534 55.5228 534 50V40C534 34.4772 538.477 30 544 30H611C616.523 30 621 25.5228 621 20V10C621 4.47715 616.523 0 611 0Z" fill="#EDE8DF"/>
</g>
<path d="M233.488 34.126C232.517 34.126 231.687 33.9207 230.996 33.51C230.305 33.0993 229.773 32.516 229.4 31.76C229.036 31.004 228.854 30.1033 228.854 29.058C228.854 28.274 228.957 27.574 229.162 26.958C229.377 26.3327 229.68 25.8053 230.072 25.376C230.473 24.9373 230.963 24.6013 231.542 24.368C232.121 24.1253 232.769 24.004 233.488 24.004C234.067 24.004 234.617 24.088 235.14 24.256C235.663 24.4147 236.115 24.6527 236.498 24.97C236.619 25.0633 236.699 25.1707 236.736 25.292C236.783 25.404 236.787 25.516 236.75 25.628C236.722 25.7307 236.666 25.8193 236.582 25.894C236.507 25.9593 236.414 25.992 236.302 25.992C236.19 25.992 236.064 25.9453 235.924 25.852C235.588 25.5813 235.219 25.3807 234.818 25.25C234.417 25.1193 233.983 25.054 233.516 25.054C232.779 25.054 232.153 25.2127 231.64 25.53C231.127 25.838 230.739 26.2907 230.478 26.888C230.217 27.4853 230.086 28.2087 230.086 29.058C230.086 29.9073 230.217 30.6353 230.478 31.242C230.739 31.8393 231.127 32.2967 231.64 32.614C232.153 32.922 232.779 33.076 233.516 33.076C233.973 33.076 234.407 33.0107 234.818 32.88C235.229 32.74 235.607 32.5347 235.952 32.264C236.092 32.1707 236.218 32.1287 236.33 32.138C236.442 32.138 236.535 32.1707 236.61 32.236C236.685 32.3013 236.736 32.3853 236.764 32.488C236.801 32.5907 236.801 32.698 236.764 32.81C236.736 32.922 236.666 33.02 236.554 33.104C236.162 33.44 235.7 33.6967 235.168 33.874C234.645 34.042 234.085 34.126 233.488 34.126ZM239.044 34.098C238.857 34.098 238.717 34.0467 238.624 33.944C238.531 33.8413 238.484 33.6967 238.484 33.51V24.606C238.484 24.4193 238.531 24.2793 238.624 24.186C238.717 24.0833 238.857 24.032 239.044 24.032C239.221 24.032 239.361 24.0833 239.464 24.186C239.567 24.2793 239.618 24.4193 239.618 24.606V28.708H239.436C239.632 28.1667 239.949 27.7607 240.388 27.49C240.836 27.21 241.349 27.07 241.928 27.07C242.469 27.07 242.917 27.168 243.272 27.364C243.636 27.56 243.907 27.8587 244.084 28.26C244.261 28.652 244.35 29.1513 244.35 29.758V33.51C244.35 33.6967 244.299 33.8413 244.196 33.944C244.103 34.0467 243.967 34.098 243.79 34.098C243.603 34.098 243.459 34.0467 243.356 33.944C243.263 33.8413 243.216 33.6967 243.216 33.51V29.828C243.216 29.1933 243.09 28.7313 242.838 28.442C242.595 28.1433 242.203 27.994 241.662 27.994C241.037 27.994 240.537 28.19 240.164 28.582C239.8 28.9647 239.618 29.478 239.618 30.122V33.51C239.618 33.902 239.427 34.098 239.044 34.098ZM248.583 34.126C248.116 34.126 247.696 34.0373 247.323 33.86C246.959 33.6733 246.67 33.4213 246.455 33.104C246.24 32.7867 246.133 32.432 246.133 32.04C246.133 31.536 246.259 31.1393 246.511 30.85C246.772 30.5607 247.197 30.3553 247.785 30.234C248.382 30.1127 249.194 30.052 250.221 30.052H250.851V30.794H250.235C249.479 30.794 248.882 30.8313 248.443 30.906C248.014 30.9713 247.71 31.088 247.533 31.256C247.365 31.424 247.281 31.662 247.281 31.97C247.281 32.3527 247.412 32.6653 247.673 32.908C247.944 33.1507 248.308 33.272 248.765 33.272C249.138 33.272 249.465 33.1833 249.745 33.006C250.034 32.8287 250.258 32.586 250.417 32.278C250.585 31.97 250.669 31.6153 250.669 31.214V29.618C250.669 29.0393 250.552 28.624 250.319 28.372C250.086 28.1107 249.703 27.98 249.171 27.98C248.844 27.98 248.518 28.022 248.191 28.106C247.864 28.19 247.519 28.3253 247.155 28.512C247.024 28.5773 246.912 28.6007 246.819 28.582C246.726 28.554 246.651 28.5027 246.595 28.428C246.539 28.3533 246.506 28.2693 246.497 28.176C246.488 28.0733 246.506 27.9753 246.553 27.882C246.609 27.7887 246.693 27.714 246.805 27.658C247.216 27.4527 247.622 27.3033 248.023 27.21C248.424 27.1167 248.807 27.07 249.171 27.07C249.759 27.07 250.244 27.168 250.627 27.364C251.01 27.5507 251.294 27.84 251.481 28.232C251.668 28.6147 251.761 29.1093 251.761 29.716V33.51C251.761 33.6967 251.714 33.8413 251.621 33.944C251.537 34.0467 251.411 34.098 251.243 34.098C251.066 34.098 250.93 34.0467 250.837 33.944C250.744 33.8413 250.697 33.6967 250.697 33.51V32.418H250.823C250.748 32.7727 250.604 33.076 250.389 33.328C250.184 33.58 249.927 33.776 249.619 33.916C249.311 34.056 248.966 34.126 248.583 34.126ZM254.439 34.098C254.252 34.098 254.107 34.0467 254.005 33.944C253.911 33.8413 253.865 33.6967 253.865 33.51V27.672C253.865 27.4853 253.911 27.3453 254.005 27.252C254.098 27.1493 254.233 27.098 254.411 27.098C254.588 27.098 254.723 27.1493 254.817 27.252C254.919 27.3453 254.971 27.4853 254.971 27.672V28.806H254.831C254.98 28.2553 255.265 27.8307 255.685 27.532C256.105 27.2333 256.623 27.0747 257.239 27.056C257.379 27.0467 257.491 27.0793 257.575 27.154C257.659 27.2193 257.705 27.336 257.715 27.504C257.724 27.6627 257.687 27.7887 257.603 27.882C257.519 27.9753 257.388 28.0313 257.211 28.05L256.987 28.078C256.352 28.134 255.862 28.3393 255.517 28.694C255.181 29.0393 255.013 29.5153 255.013 30.122V33.51C255.013 33.6967 254.961 33.8413 254.859 33.944C254.765 34.0467 254.625 34.098 254.439 34.098ZM260.954 34.126C260.282 34.126 259.769 33.9207 259.414 33.51C259.06 33.0993 258.882 32.5113 258.882 31.746V24.606C258.882 24.4193 258.929 24.2793 259.022 24.186C259.116 24.0833 259.256 24.032 259.442 24.032C259.62 24.032 259.76 24.0833 259.862 24.186C259.965 24.2793 260.016 24.4193 260.016 24.606V31.662C260.016 32.166 260.114 32.544 260.31 32.796C260.516 33.0387 260.814 33.16 261.206 33.16C261.29 33.16 261.365 33.1553 261.43 33.146C261.496 33.1367 261.561 33.132 261.626 33.132C261.729 33.1227 261.799 33.146 261.836 33.202C261.883 33.258 261.906 33.37 261.906 33.538C261.906 33.706 261.869 33.832 261.794 33.916C261.72 34 261.598 34.056 261.43 34.084C261.356 34.0933 261.276 34.1027 261.192 34.112C261.108 34.1213 261.029 34.126 260.954 34.126ZM266.023 34.126C265.304 34.126 264.683 33.986 264.161 33.706C263.647 33.4167 263.246 33.0107 262.957 32.488C262.677 31.9653 262.537 31.34 262.537 30.612C262.537 29.9027 262.677 29.2867 262.957 28.764C263.237 28.232 263.619 27.8167 264.105 27.518C264.599 27.2193 265.169 27.07 265.813 27.07C266.27 27.07 266.681 27.1493 267.045 27.308C267.409 27.4573 267.717 27.6767 267.969 27.966C268.23 28.2553 268.426 28.6053 268.557 29.016C268.697 29.4267 268.767 29.8887 268.767 30.402C268.767 30.5513 268.725 30.6633 268.641 30.738C268.557 30.8033 268.435 30.836 268.277 30.836H263.405V30.094H268.011L267.787 30.276C267.787 29.772 267.712 29.3473 267.563 29.002C267.413 28.6473 267.194 28.3767 266.905 28.19C266.625 28.0033 266.27 27.91 265.841 27.91C265.365 27.91 264.959 28.022 264.623 28.246C264.296 28.4607 264.049 28.764 263.881 29.156C263.713 29.5387 263.629 29.9867 263.629 30.5V30.584C263.629 31.4427 263.834 32.096 264.245 32.544C264.665 32.992 265.257 33.216 266.023 33.216C266.34 33.216 266.653 33.174 266.961 33.09C267.278 33.006 267.586 32.866 267.885 32.67C268.015 32.586 268.132 32.5487 268.235 32.558C268.347 32.558 268.435 32.5907 268.501 32.656C268.566 32.712 268.608 32.7867 268.627 32.88C268.655 32.964 268.645 33.0573 268.599 33.16C268.561 33.2627 268.482 33.3513 268.361 33.426C268.053 33.65 267.689 33.8227 267.269 33.944C266.849 34.0653 266.433 34.126 266.023 34.126ZM270.996 34.098C270.809 34.098 270.669 34.0467 270.576 33.944C270.482 33.8413 270.436 33.6967 270.436 33.51V27.672C270.436 27.4853 270.482 27.3453 270.576 27.252C270.669 27.1493 270.804 27.098 270.982 27.098C271.159 27.098 271.294 27.1493 271.388 27.252C271.49 27.3453 271.542 27.4853 271.542 27.672V28.904L271.388 28.708C271.565 28.1853 271.85 27.784 272.242 27.504C272.643 27.2147 273.119 27.07 273.67 27.07C274.248 27.07 274.715 27.21 275.07 27.49C275.434 27.7607 275.676 28.1853 275.798 28.764H275.588C275.756 28.2413 276.054 27.8307 276.484 27.532C276.922 27.224 277.431 27.07 278.01 27.07C278.523 27.07 278.943 27.168 279.27 27.364C279.606 27.56 279.858 27.8587 280.026 28.26C280.194 28.652 280.278 29.1513 280.278 29.758V33.51C280.278 33.6967 280.226 33.8413 280.124 33.944C280.03 34.0467 279.89 34.098 279.704 34.098C279.526 34.098 279.386 34.0467 279.284 33.944C279.19 33.8413 279.144 33.6967 279.144 33.51V29.814C279.144 29.1887 279.036 28.7313 278.822 28.442C278.607 28.1433 278.243 27.994 277.73 27.994C277.17 27.994 276.726 28.19 276.4 28.582C276.082 28.9647 275.924 29.4873 275.924 30.15V33.51C275.924 33.6967 275.872 33.8413 275.77 33.944C275.676 34.0467 275.536 34.098 275.35 34.098C275.172 34.098 275.032 34.0467 274.93 33.944C274.836 33.8413 274.79 33.6967 274.79 33.51V29.814C274.79 29.1887 274.678 28.7313 274.454 28.442C274.239 28.1433 273.88 27.994 273.376 27.994C272.816 27.994 272.372 28.19 272.046 28.582C271.728 28.9647 271.57 29.4873 271.57 30.15V33.51C271.57 33.902 271.378 34.098 270.996 34.098ZM285.226 34.126C284.563 34.126 283.989 33.9813 283.504 33.692C283.019 33.4027 282.641 32.9967 282.37 32.474C282.109 31.942 281.978 31.3167 281.978 30.598C281.978 30.0567 282.053 29.5713 282.202 29.142C282.351 28.7033 282.571 28.33 282.86 28.022C283.149 27.714 283.49 27.4807 283.882 27.322C284.283 27.154 284.731 27.07 285.226 27.07C285.889 27.07 286.463 27.2147 286.948 27.504C287.433 27.7933 287.807 28.204 288.068 28.736C288.339 29.2587 288.474 29.8793 288.474 30.598C288.474 31.1393 288.399 31.6247 288.25 32.054C288.101 32.4833 287.881 32.8567 287.592 33.174C287.303 33.482 286.957 33.72 286.556 33.888C286.164 34.0467 285.721 34.126 285.226 34.126ZM285.226 33.216C285.646 33.216 286.015 33.1133 286.332 32.908C286.649 32.7027 286.892 32.404 287.06 32.012C287.237 31.62 287.326 31.1487 287.326 30.598C287.326 29.7487 287.135 29.1 286.752 28.652C286.379 28.204 285.87 27.98 285.226 27.98C284.797 27.98 284.423 28.0827 284.106 28.288C283.798 28.484 283.555 28.778 283.378 29.17C283.21 29.5527 283.126 30.0287 283.126 30.598C283.126 31.438 283.317 32.0867 283.7 32.544C284.083 32.992 284.591 33.216 285.226 33.216ZM292.473 34.126C292.053 34.126 291.629 34.0747 291.199 33.972C290.779 33.8693 290.387 33.692 290.023 33.44C289.93 33.3747 289.865 33.3 289.827 33.216C289.79 33.1227 289.776 33.034 289.785 32.95C289.804 32.8567 289.841 32.7773 289.897 32.712C289.963 32.6467 290.037 32.6093 290.121 32.6C290.215 32.5813 290.317 32.6 290.429 32.656C290.793 32.88 291.143 33.0387 291.479 33.132C291.825 33.216 292.165 33.258 292.501 33.258C293.033 33.258 293.435 33.16 293.705 32.964C293.976 32.768 294.111 32.502 294.111 32.166C294.111 31.9047 294.023 31.6993 293.845 31.55C293.668 31.3913 293.388 31.27 293.005 31.186L291.731 30.906C291.143 30.7847 290.705 30.5747 290.415 30.276C290.135 29.9773 289.995 29.59 289.995 29.114C289.995 28.694 290.103 28.3347 290.317 28.036C290.541 27.728 290.854 27.49 291.255 27.322C291.657 27.154 292.123 27.07 292.655 27.07C293.066 27.07 293.453 27.126 293.817 27.238C294.191 27.3407 294.527 27.5087 294.825 27.742C294.919 27.8073 294.979 27.8867 295.007 27.98C295.045 28.064 295.049 28.1527 295.021 28.246C295.003 28.33 294.961 28.4047 294.895 28.47C294.83 28.526 294.751 28.5587 294.657 28.568C294.564 28.5773 294.466 28.5493 294.363 28.484C294.083 28.2973 293.799 28.162 293.509 28.078C293.22 27.9847 292.935 27.938 292.655 27.938C292.133 27.938 291.736 28.0407 291.465 28.246C291.195 28.4513 291.059 28.722 291.059 29.058C291.059 29.3193 291.143 29.534 291.311 29.702C291.479 29.87 291.741 29.9913 292.095 30.066L293.369 30.332C293.976 30.4627 294.429 30.6727 294.727 30.962C295.035 31.242 295.189 31.6247 295.189 32.11C295.189 32.726 294.942 33.216 294.447 33.58C293.953 33.944 293.295 34.126 292.473 34.126ZM301.087 36.618C300.9 36.618 300.76 36.5667 300.667 36.464C300.574 36.3707 300.527 36.2307 300.527 36.044V27.672C300.527 27.4853 300.574 27.3453 300.667 27.252C300.76 27.1493 300.896 27.098 301.073 27.098C301.26 27.098 301.4 27.1493 301.493 27.252C301.596 27.3453 301.647 27.4853 301.647 27.672V29.002L301.493 28.806C301.642 28.274 301.936 27.854 302.375 27.546C302.823 27.2287 303.355 27.07 303.971 27.07C304.578 27.07 305.105 27.2147 305.553 27.504C306.01 27.784 306.36 28.19 306.603 28.722C306.855 29.2447 306.981 29.87 306.981 30.598C306.981 31.3167 306.855 31.942 306.603 32.474C306.36 32.9967 306.015 33.4027 305.567 33.692C305.119 33.9813 304.587 34.126 303.971 34.126C303.355 34.126 302.828 33.972 302.389 33.664C301.95 33.3467 301.652 32.9267 301.493 32.404H301.661V36.044C301.661 36.2307 301.61 36.3707 301.507 36.464C301.404 36.5667 301.264 36.618 301.087 36.618ZM303.733 33.216C304.162 33.216 304.531 33.1133 304.839 32.908C305.156 32.7027 305.399 32.404 305.567 32.012C305.744 31.62 305.833 31.1487 305.833 30.598C305.833 29.7487 305.642 29.1 305.259 28.652C304.886 28.204 304.377 27.98 303.733 27.98C303.313 27.98 302.944 28.0827 302.627 28.288C302.31 28.484 302.062 28.778 301.885 29.17C301.717 29.5527 301.633 30.0287 301.633 30.598C301.633 31.438 301.824 32.0867 302.207 32.544C302.59 32.992 303.098 33.216 303.733 33.216ZM311.517 34.126C310.854 34.126 310.28 33.9813 309.795 33.692C309.31 33.4027 308.932 32.9967 308.661 32.474C308.4 31.942 308.269 31.3167 308.269 30.598C308.269 30.0567 308.344 29.5713 308.493 29.142C308.642 28.7033 308.862 28.33 309.151 28.022C309.44 27.714 309.781 27.4807 310.173 27.322C310.574 27.154 311.022 27.07 311.517 27.07C312.18 27.07 312.754 27.2147 313.239 27.504C313.724 27.7933 314.098 28.204 314.359 28.736C314.63 29.2587 314.765 29.8793 314.765 30.598C314.765 31.1393 314.69 31.6247 314.541 32.054C314.392 32.4833 314.172 32.8567 313.883 33.174C313.594 33.482 313.248 33.72 312.847 33.888C312.455 34.0467 312.012 34.126 311.517 34.126ZM311.517 33.216C311.937 33.216 312.306 33.1133 312.623 32.908C312.94 32.7027 313.183 32.404 313.351 32.012C313.528 31.62 313.617 31.1487 313.617 30.598C313.617 29.7487 313.426 29.1 313.043 28.652C312.67 28.204 312.161 27.98 311.517 27.98C311.088 27.98 310.714 28.0827 310.397 28.288C310.089 28.484 309.846 28.778 309.669 29.17C309.501 29.5527 309.417 30.0287 309.417 30.598C309.417 31.438 309.608 32.0867 309.991 32.544C310.374 32.992 310.882 33.216 311.517 33.216ZM317.042 34.098C316.856 34.098 316.711 34.0467 316.608 33.944C316.515 33.8413 316.468 33.6967 316.468 33.51V27.672C316.468 27.4853 316.515 27.3453 316.608 27.252C316.702 27.1493 316.837 27.098 317.014 27.098C317.192 27.098 317.327 27.1493 317.42 27.252C317.523 27.3453 317.574 27.4853 317.574 27.672V28.806H317.434C317.584 28.2553 317.868 27.8307 318.288 27.532C318.708 27.2333 319.226 27.0747 319.842 27.056C319.982 27.0467 320.094 27.0793 320.178 27.154C320.262 27.2193 320.309 27.336 320.318 27.504C320.328 27.6627 320.29 27.7887 320.206 27.882C320.122 27.9753 319.992 28.0313 319.814 28.05L319.59 28.078C318.956 28.134 318.466 28.3393 318.12 28.694C317.784 29.0393 317.616 29.5153 317.616 30.122V33.51C317.616 33.6967 317.565 33.8413 317.462 33.944C317.369 34.0467 317.229 34.098 317.042 34.098ZM328.413 34.098C328.245 34.098 328.11 34.056 328.007 33.972C327.905 33.8787 327.821 33.7433 327.755 33.566L324.661 24.732C324.596 24.536 324.61 24.3727 324.703 24.242C324.806 24.102 324.965 24.032 325.179 24.032C325.338 24.032 325.464 24.074 325.557 24.158C325.651 24.2327 325.73 24.354 325.795 24.522L328.693 33.02H328.203L331.157 24.564C331.223 24.3867 331.302 24.256 331.395 24.172C331.489 24.0787 331.615 24.032 331.773 24.032C331.923 24.032 332.039 24.0787 332.123 24.172C332.217 24.256 332.296 24.3867 332.361 24.564L335.273 33.02H334.839L337.765 24.522C337.812 24.3633 337.882 24.242 337.975 24.158C338.078 24.074 338.209 24.032 338.367 24.032C338.563 24.032 338.708 24.0973 338.801 24.228C338.895 24.3587 338.904 24.5267 338.829 24.732L335.721 33.566C335.656 33.7433 335.572 33.8787 335.469 33.972C335.376 34.056 335.241 34.098 335.063 34.098C334.895 34.098 334.76 34.056 334.657 33.972C334.564 33.8787 334.48 33.7433 334.405 33.566L331.591 25.46H331.899L329.057 33.566C328.992 33.7433 328.913 33.8787 328.819 33.972C328.726 34.056 328.591 34.098 328.413 34.098ZM341.392 34.098C341.205 34.098 341.065 34.0467 340.972 33.944C340.878 33.8413 340.832 33.6967 340.832 33.51V24.606C340.832 24.4193 340.878 24.2793 340.972 24.186C341.065 24.0833 341.205 24.032 341.392 24.032C341.569 24.032 341.709 24.0833 341.812 24.186C341.914 24.2793 341.966 24.4193 341.966 24.606V28.708H341.784C341.98 28.1667 342.297 27.7607 342.736 27.49C343.184 27.21 343.697 27.07 344.276 27.07C344.817 27.07 345.265 27.168 345.62 27.364C345.984 27.56 346.254 27.8587 346.432 28.26C346.609 28.652 346.698 29.1513 346.698 29.758V33.51C346.698 33.6967 346.646 33.8413 346.544 33.944C346.45 34.0467 346.315 34.098 346.138 34.098C345.951 34.098 345.806 34.0467 345.704 33.944C345.61 33.8413 345.564 33.6967 345.564 33.51V29.828C345.564 29.1933 345.438 28.7313 345.186 28.442C344.943 28.1433 344.551 27.994 344.01 27.994C343.384 27.994 342.885 28.19 342.512 28.582C342.148 28.9647 341.966 29.478 341.966 30.122V33.51C341.966 33.902 341.774 34.098 341.392 34.098ZM350.931 34.126C350.464 34.126 350.044 34.0373 349.671 33.86C349.307 33.6733 349.017 33.4213 348.803 33.104C348.588 32.7867 348.481 32.432 348.481 32.04C348.481 31.536 348.607 31.1393 348.859 30.85C349.12 30.5607 349.545 30.3553 350.133 30.234C350.73 30.1127 351.542 30.052 352.569 30.052H353.199V30.794H352.583C351.827 30.794 351.229 30.8313 350.791 30.906C350.361 30.9713 350.058 31.088 349.881 31.256C349.713 31.424 349.629 31.662 349.629 31.97C349.629 32.3527 349.759 32.6653 350.021 32.908C350.291 33.1507 350.655 33.272 351.113 33.272C351.486 33.272 351.813 33.1833 352.093 33.006C352.382 32.8287 352.606 32.586 352.765 32.278C352.933 31.97 353.017 31.6153 353.017 31.214V29.618C353.017 29.0393 352.9 28.624 352.667 28.372C352.433 28.1107 352.051 27.98 351.519 27.98C351.192 27.98 350.865 28.022 350.539 28.106C350.212 28.19 349.867 28.3253 349.503 28.512C349.372 28.5773 349.26 28.6007 349.167 28.582C349.073 28.554 348.999 28.5027 348.943 28.428C348.887 28.3533 348.854 28.2693 348.845 28.176C348.835 28.0733 348.854 27.9753 348.901 27.882C348.957 27.7887 349.041 27.714 349.153 27.658C349.563 27.4527 349.969 27.3033 350.371 27.21C350.772 27.1167 351.155 27.07 351.519 27.07C352.107 27.07 352.592 27.168 352.975 27.364C353.357 27.5507 353.642 27.84 353.829 28.232C354.015 28.6147 354.109 29.1093 354.109 29.716V33.51C354.109 33.6967 354.062 33.8413 353.969 33.944C353.885 34.0467 353.759 34.098 353.591 34.098C353.413 34.098 353.278 34.0467 353.185 33.944C353.091 33.8413 353.045 33.6967 353.045 33.51V32.418H353.171C353.096 32.7727 352.951 33.076 352.737 33.328C352.531 33.58 352.275 33.776 351.967 33.916C351.659 34.056 351.313 34.126 350.931 34.126ZM358.942 34.126C358.41 34.126 357.962 34.0327 357.598 33.846C357.244 33.65 356.978 33.37 356.8 33.006C356.623 32.6327 356.534 32.18 356.534 31.648V28.078H355.596C355.438 28.078 355.316 28.0407 355.232 27.966C355.148 27.882 355.106 27.77 355.106 27.63C355.106 27.49 355.148 27.3827 355.232 27.308C355.316 27.2333 355.438 27.196 355.596 27.196H356.534V25.586C356.534 25.3993 356.586 25.2593 356.688 25.166C356.791 25.0633 356.931 25.012 357.108 25.012C357.286 25.012 357.421 25.0633 357.514 25.166C357.617 25.2593 357.668 25.3993 357.668 25.586V27.196H359.432C359.591 27.196 359.712 27.2333 359.796 27.308C359.88 27.3827 359.922 27.49 359.922 27.63C359.922 27.77 359.88 27.882 359.796 27.966C359.712 28.0407 359.591 28.078 359.432 28.078H357.668V31.536C357.668 32.068 357.78 32.474 358.004 32.754C358.228 33.0247 358.592 33.16 359.096 33.16C359.274 33.16 359.423 33.1413 359.544 33.104C359.675 33.0667 359.782 33.048 359.866 33.048C359.95 33.0387 360.02 33.0667 360.076 33.132C360.132 33.1973 360.16 33.3093 360.16 33.468C360.16 33.58 360.137 33.6827 360.09 33.776C360.053 33.8693 359.983 33.9347 359.88 33.972C359.768 34.0093 359.619 34.042 359.432 34.07C359.255 34.1073 359.092 34.126 358.942 34.126ZM363.403 34.126C362.983 34.126 362.558 34.0747 362.129 33.972C361.709 33.8693 361.317 33.692 360.953 33.44C360.86 33.3747 360.794 33.3 360.757 33.216C360.72 33.1227 360.706 33.034 360.715 32.95C360.734 32.8567 360.771 32.7773 360.827 32.712C360.892 32.6467 360.967 32.6093 361.051 32.6C361.144 32.5813 361.247 32.6 361.359 32.656C361.723 32.88 362.073 33.0387 362.409 33.132C362.754 33.216 363.095 33.258 363.431 33.258C363.963 33.258 364.364 33.16 364.635 32.964C364.906 32.768 365.041 32.502 365.041 32.166C365.041 31.9047 364.952 31.6993 364.775 31.55C364.598 31.3913 364.318 31.27 363.935 31.186L362.661 30.906C362.073 30.7847 361.634 30.5747 361.345 30.276C361.065 29.9773 360.925 29.59 360.925 29.114C360.925 28.694 361.032 28.3347 361.247 28.036C361.471 27.728 361.784 27.49 362.185 27.322C362.586 27.154 363.053 27.07 363.585 27.07C363.996 27.07 364.383 27.126 364.747 27.238C365.12 27.3407 365.456 27.5087 365.755 27.742C365.848 27.8073 365.909 27.8867 365.937 27.98C365.974 28.064 365.979 28.1527 365.951 28.246C365.932 28.33 365.89 28.4047 365.825 28.47C365.76 28.526 365.68 28.5587 365.587 28.568C365.494 28.5773 365.396 28.5493 365.293 28.484C365.013 28.2973 364.728 28.162 364.439 28.078C364.15 27.9847 363.865 27.938 363.585 27.938C363.062 27.938 362.666 28.0407 362.395 28.246C362.124 28.4513 361.989 28.722 361.989 29.058C361.989 29.3193 362.073 29.534 362.241 29.702C362.409 29.87 362.67 29.9913 363.025 30.066L364.299 30.332C364.906 30.4627 365.358 30.6727 365.657 30.962C365.965 31.242 366.119 31.6247 366.119 32.11C366.119 32.726 365.872 33.216 365.377 33.58C364.882 33.944 364.224 34.126 363.403 34.126ZM367.791 34.098C367.642 34.098 367.521 34.0653 367.427 34C367.343 33.9253 367.292 33.832 367.273 33.72C367.264 33.5987 367.292 33.4633 367.357 33.314L371.207 24.55C371.291 24.3633 371.389 24.2327 371.501 24.158C371.623 24.074 371.753 24.032 371.893 24.032C372.033 24.032 372.159 24.074 372.271 24.158C372.393 24.2327 372.491 24.3633 372.565 24.55L376.429 33.314C376.504 33.4633 376.532 33.5987 376.513 33.72C376.504 33.8413 376.457 33.9347 376.373 34C376.289 34.0653 376.173 34.098 376.023 34.098C375.855 34.098 375.72 34.056 375.617 33.972C375.515 33.8787 375.431 33.748 375.365 33.58L374.329 31.186L374.889 31.48H368.869L369.443 31.186L368.421 33.58C368.337 33.7573 368.249 33.888 368.155 33.972C368.062 34.056 367.941 34.098 367.791 34.098ZM371.879 25.474L369.625 30.78L369.289 30.514H374.469L374.161 30.78L371.907 25.474H371.879ZM378.606 36.618C378.42 36.618 378.28 36.5667 378.186 36.464C378.093 36.3707 378.046 36.2307 378.046 36.044V27.672C378.046 27.4853 378.093 27.3453 378.186 27.252C378.28 27.1493 378.415 27.098 378.592 27.098C378.779 27.098 378.919 27.1493 379.012 27.252C379.115 27.3453 379.166 27.4853 379.166 27.672V29.002L379.012 28.806C379.162 28.274 379.456 27.854 379.894 27.546C380.342 27.2287 380.874 27.07 381.49 27.07C382.097 27.07 382.624 27.2147 383.072 27.504C383.53 27.784 383.88 28.19 384.122 28.722C384.374 29.2447 384.5 29.87 384.5 30.598C384.5 31.3167 384.374 31.942 384.122 32.474C383.88 32.9967 383.534 33.4027 383.086 33.692C382.638 33.9813 382.106 34.126 381.49 34.126C380.874 34.126 380.347 33.972 379.908 33.664C379.47 33.3467 379.171 32.9267 379.012 32.404H379.18V36.044C379.18 36.2307 379.129 36.3707 379.026 36.464C378.924 36.5667 378.784 36.618 378.606 36.618ZM381.252 33.216C381.682 33.216 382.05 33.1133 382.358 32.908C382.676 32.7027 382.918 32.404 383.086 32.012C383.264 31.62 383.352 31.1487 383.352 30.598C383.352 29.7487 383.161 29.1 382.778 28.652C382.405 28.204 381.896 27.98 381.252 27.98C380.832 27.98 380.464 28.0827 380.146 28.288C379.829 28.484 379.582 28.778 379.404 29.17C379.236 29.5527 379.152 30.0287 379.152 30.598C379.152 31.438 379.344 32.0867 379.726 32.544C380.109 32.992 380.618 33.216 381.252 33.216ZM386.769 36.618C386.582 36.618 386.442 36.5667 386.349 36.464C386.255 36.3707 386.209 36.2307 386.209 36.044V27.672C386.209 27.4853 386.255 27.3453 386.349 27.252C386.442 27.1493 386.577 27.098 386.755 27.098C386.941 27.098 387.081 27.1493 387.175 27.252C387.277 27.3453 387.329 27.4853 387.329 27.672V29.002L387.175 28.806C387.324 28.274 387.618 27.854 388.057 27.546C388.505 27.2287 389.037 27.07 389.653 27.07C390.259 27.07 390.787 27.2147 391.235 27.504C391.692 27.784 392.042 28.19 392.285 28.722C392.537 29.2447 392.663 29.87 392.663 30.598C392.663 31.3167 392.537 31.942 392.285 32.474C392.042 32.9967 391.697 33.4027 391.249 33.692C390.801 33.9813 390.269 34.126 389.653 34.126C389.037 34.126 388.509 33.972 388.071 33.664C387.632 33.3467 387.333 32.9267 387.175 32.404H387.343V36.044C387.343 36.2307 387.291 36.3707 387.189 36.464C387.086 36.5667 386.946 36.618 386.769 36.618ZM389.415 33.216C389.844 33.216 390.213 33.1133 390.521 32.908C390.838 32.7027 391.081 32.404 391.249 32.012C391.426 31.62 391.515 31.1487 391.515 30.598C391.515 29.7487 391.323 29.1 390.941 28.652C390.567 28.204 390.059 27.98 389.415 27.98C388.995 27.98 388.626 28.0827 388.309 28.288C387.991 28.484 387.744 28.778 387.567 29.17C387.399 29.5527 387.315 30.0287 387.315 30.598C387.315 31.438 387.506 32.0867 387.889 32.544C388.271 32.992 388.78 33.216 389.415 33.216Z" fill="#36463E"/>
<defs>
<filter id="filter0_d_454_56" x="559.014" y="39.0137" width="35.1187" height="29.2834" filterUnits="userSpaceOnUse" color-interpolation-filters="sRGB">
<feFlood flood-opacity="0" result="BackgroundImageFix"/>
<feColorMatrix in="SourceAlpha" type="matrix" values="0 0 0 0 0 0 0 0 0 0 0 0 0 0 0 0 0 0 127 0" result="hardAlpha"/>
<feOffset dy="4"/>
<feGaussianBlur stdDeviation="2"/>
<feComposite in2="hardAlpha" operator="out"/>
<feColorMatrix type="matrix" values="0 0 0 0 0 0 0 0 0 0 0 0 0 0 0 0 0 0 0.25 0"/>
<feBlend mode="normal" in2="BackgroundImageFix" result="effect1_dropShadow_454_56"/>
<feBlend mode="normal" in="SourceGraphic" in2="effect1_dropShadow_454_56" result="shape"/>
</filter>
<filter id="filter1_d_454_56" x="0" y="0" width="625" height="68" filterUnits="userSpaceOnUse" color-interpolation-filters="sRGB">
<feFlood flood-opacity="0" result="BackgroundImageFix"/>
<feColorMatrix in="SourceAlpha" type="matrix" values="0 0 0 0 0 0 0 0 0 0 0 0 0 0 0 0 0 0 127 0" result="hardAlpha"/>
<feOffset dy="4"/>
<feGaussianBlur stdDeviation="2"/>
<feComposite in2="hardAlpha" operator="out"/>
<feColorMatrix type="matrix" values="0 0 0 0 0 0 0 0 0 0 0 0 0 0 0 0 0 0 0.25 0"/>
<feBlend mode="normal" in2="BackgroundImageFix" result="effect1_dropShadow_454_56"/>
<feBlend mode="normal" in="SourceGraphic" in2="effect1_dropShadow_454_56" result="shape"/>
</filter>
</defs>
</svg>
